<?xml version="1.0" encoding="utf-8"?>
<!-- Generator: Adobe Illustrator 16.0.0, SVG Export Plug-In . SVG Version: 6.00 Build 0)  -->
<!DOCTYPE svg PUBLIC "-//W3C//DTD SVG 1.1//EN" "http://www.w3.org/Graphics/SVG/1.1/DTD/svg11.dtd">
<svg version="1.1" id="Layer_1" xmlns="http://www.w3.org/2000/svg" xmlns:xlink="http://www.w3.org/1999/xlink" x="0px" y="0px"
	 width="235.488px" height="251.188px" viewBox="0 0 235.488 251.188" enable-background="new 0 0 235.488 251.188"
	 xml:space="preserve">
<g>
	<path fill="#BCC1C6" d="M94.195,98.12c0,8.666-7.033,15.699-15.699,15.699l0,0c-8.666,0-15.699-7.033-15.699-15.699V74.571
		c0-8.666,7.033-15.699,15.699-15.699l0,0c8.666,0,15.699,7.033,15.699,15.699V98.12z"/>
	<polygon fill="#BCC1C6" points="235.488,164.284 224.483,153.067 215.864,161.844 215.864,58.872 200.165,58.872 200.165,161.844 
		191.546,153.067 180.541,164.284 197.01,181.051 196.963,181.099 207.968,192.315 208.015,192.269 208.062,192.315 
		219.066,181.099 219.02,181.051 	"/>
	<path fill="#BCC1C6" d="M78.496,15.699c34.625,0,62.797,28.172,62.797,62.797v94.195c0,34.625-28.172,62.797-62.797,62.797
		s-62.797-28.172-62.797-62.797V78.496C15.699,43.872,43.872,15.699,78.496,15.699 M78.496,0C35.143,0,0,35.143,0,78.496v94.195
		c0,43.346,35.143,78.496,78.496,78.496c43.354,0,78.496-35.15,78.496-78.496V78.496C156.992,35.143,121.85,0,78.496,0L78.496,0z"/>
</g>
</svg>
