<svg id="svg" version="1.1" xmlns="http://www.w3.org/2000/svg" xmlns:xlink="http://www.w3.org/1999/xlink" width="400" height="307.6923076923077" viewBox="0, 0, 400,307.6923076923077"><g id="svgg"><path id="path0" d="M110.240 2.996 C 111.049 3.059,112.295 3.059,113.009 2.994 C 113.723 2.930,113.062 2.878,111.538 2.878 C 110.015 2.879,109.431 2.932,110.240 2.996 M199.931 3.610 C 200.655 3.675,201.763 3.674,202.393 3.608 C 203.023 3.542,202.431 3.489,201.077 3.490 C 199.723 3.491,199.208 3.545,199.931 3.610 M30.923 4.316 C 30.415 4.441,29.225 4.559,28.277 4.579 C 27.329 4.599,26.152 4.739,25.661 4.890 C 25.171 5.042,23.662 5.478,22.308 5.860 C 14.063 8.186,5.362 16.536,2.765 24.615 C -1.492 37.852,1.470 47.811,13.523 60.785 C 14.632 61.978,17.062 64.671,18.923 66.770 C 20.785 68.868,23.277 71.645,24.462 72.940 C 25.646 74.235,28.138 77.002,30.000 79.089 C 31.862 81.176,34.285 83.869,35.385 85.074 C 36.485 86.278,38.908 88.978,40.769 91.072 C 42.631 93.166,45.123 95.938,46.308 97.233 C 47.492 98.528,49.985 101.296,51.846 103.385 C 53.708 105.473,56.200 108.247,57.385 109.549 C 58.569 110.851,60.992 113.547,62.769 115.540 C 64.546 117.533,67.038 120.299,68.308 121.686 C 70.508 124.090,71.621 125.333,79.077 133.701 C 80.854 135.695,83.426 138.517,84.792 139.971 C 86.158 141.425,87.536 143.014,87.853 143.500 C 88.411 144.358,88.427 145.946,88.343 194.270 C 88.279 230.919,88.350 244.562,88.609 245.692 C 88.802 246.538,89.110 247.854,89.291 248.615 C 90.658 254.347,94.338 258.709,103.846 265.872 C 115.839 274.907,126.949 283.245,127.587 283.692 C 127.949 283.946,130.510 285.877,133.277 287.983 C 143.315 295.623,148.326 299.385,148.464 299.385 C 148.541 299.385,149.542 299.959,150.687 300.660 C 156.692 304.338,164.530 305.022,171.209 302.451 C 178.743 299.549,185.447 291.519,186.868 283.692 C 187.065 282.610,187.214 257.286,187.282 213.429 L 187.389 144.859 188.067 143.891 C 188.441 143.359,189.790 141.805,191.065 140.438 C 192.341 139.071,195.046 136.099,197.077 133.834 C 199.108 131.568,201.808 128.596,203.077 127.228 C 204.346 125.860,207.046 122.880,209.077 120.606 C 211.108 118.332,214.569 114.547,216.769 112.195 C 218.969 109.844,221.175 107.418,221.671 106.806 C 222.168 106.193,223.552 104.645,224.748 103.365 C 225.944 102.086,228.585 99.187,230.615 96.925 C 232.646 94.662,235.277 91.755,236.462 90.464 C 237.646 89.174,240.346 86.192,242.462 83.837 C 246.870 78.931,249.405 76.147,252.283 73.053 C 253.396 71.856,255.900 69.103,257.846 66.937 C 259.792 64.770,262.533 61.761,263.937 60.249 C 268.169 55.692,271.956 49.023,273.162 44.000 C 273.989 40.561,274.591 35.633,274.318 34.553 C 274.198 34.079,273.981 32.654,273.836 31.385 C 273.169 25.558,271.685 22.482,266.233 15.623 C 264.384 13.298,256.532 8.000,254.933 8.000 C 254.669 8.000,254.213 7.870,253.919 7.712 C 252.922 7.174,248.427 6.154,247.054 6.154 C 246.303 6.154,245.262 6.032,244.741 5.882 C 244.220 5.733,229.337 5.525,211.666 5.420 C 181.437 5.240,167.187 5.136,123.231 4.770 C 113.246 4.687,89.846 4.539,71.231 4.443 C 52.615 4.346,36.138 4.227,34.615 4.178 C 33.092 4.130,31.431 4.192,30.923 4.316 M318.346 4.861 C 318.178 5.134,321.192 5.065,321.467 4.789 C 321.563 4.694,320.934 4.615,320.069 4.615 C 319.205 4.615,318.430 4.726,318.346 4.861 M324.260 6.304 C 324.185 6.380,323.032 6.520,321.699 6.615 C 315.620 7.052,309.209 10.275,305.986 14.513 C 296.250 27.314,299.942 45.275,313.692 52.007 C 318.878 54.546,320.950 54.716,349.570 54.950 C 380.800 55.206,382.442 54.995,389.620 49.808 C 401.305 41.365,400.920 19.993,388.932 11.544 C 384.605 8.495,381.482 7.385,375.538 6.785 C 372.540 6.482,324.532 6.032,324.260 6.304 M391.538 11.385 C 392.199 12.062,392.810 12.615,392.894 12.615 C 392.979 12.615,392.507 12.062,391.846 11.385 C 391.185 10.708,390.575 10.154,390.490 10.154 C 390.406 10.154,390.877 10.708,391.538 11.385 M2.016 20.480 C 1.732 20.914,1.543 21.385,1.596 21.528 C 1.649 21.670,1.932 21.316,2.224 20.740 C 2.853 19.502,2.745 19.368,2.016 20.480 M0.532 24.801 C 0.409 24.925,0.308 25.238,0.308 25.497 C 0.308 25.844,0.399 25.878,0.650 25.627 C 0.838 25.439,0.939 25.125,0.874 24.931 C 0.809 24.736,0.655 24.678,0.532 24.801 M392.442 49.923 L 391.538 50.923 392.538 50.019 C 393.471 49.177,393.680 48.923,393.442 48.923 C 393.389 48.923,392.939 49.373,392.442 49.923 M330.662 56.691 C 330.741 56.819,332.217 56.902,333.941 56.877 C 337.358 56.827,336.978 56.690,333.029 56.549 C 331.648 56.500,330.584 56.564,330.662 56.691 M339.154 56.843 C 340.127 56.904,341.719 56.904,342.692 56.843 C 343.665 56.782,342.869 56.732,340.923 56.732 C 338.977 56.732,338.181 56.782,339.154 56.843 M229.678 100.692 L 228.462 102.000 229.769 100.784 C 230.985 99.653,231.218 99.385,230.986 99.385 C 230.935 99.385,230.347 99.973,229.678 100.692 M223.219 107.769 L 221.692 109.385 223.308 107.858 C 224.809 106.439,225.064 106.154,224.835 106.154 C 224.786 106.154,224.059 106.881,223.219 107.769 M206.607 126.231 L 204.462 128.462 206.692 126.316 C 207.919 125.136,208.923 124.132,208.923 124.085 C 208.923 123.859,208.600 124.159,206.607 126.231 M369.154 128.536 C 370.381 128.595,372.388 128.595,373.615 128.536 C 374.842 128.478,373.838 128.430,371.385 128.430 C 368.931 128.430,367.927 128.478,369.154 128.536 M378.769 129.231 C 379.889 129.589,380.991 129.589,380.769 129.231 C 380.665 129.062,379.999 128.937,379.290 128.954 C 378.188 128.980,378.112 129.020,378.769 129.231 M271.692 130.463 C 269.532 130.700,268.641 130.892,266.282 131.630 C 265.119 131.995,260.687 134.405,260.437 134.809 C 260.337 134.970,259.730 135.434,259.088 135.839 C 253.015 139.673,249.497 152.612,252.109 161.503 C 253.355 165.742,256.466 170.995,258.642 172.537 C 259.062 172.834,259.899 173.453,260.502 173.914 C 265.845 177.989,268.048 178.446,283.929 178.769 C 299.121 179.078,373.844 179.202,377.231 178.924 C 390.577 177.827,399.189 167.823,398.685 154.000 C 398.218 141.177,390.190 132.351,377.538 130.751 C 374.359 130.349,275.192 130.079,271.692 130.463 M399.250 146.343 C 399.368 147.423,399.692 147.673,399.692 146.685 C 399.692 146.244,399.573 145.809,399.428 145.719 C 399.282 145.629,399.202 145.910,399.250 146.343 M189.074 212.615 C 189.074 249.254,189.110 264.242,189.154 245.923 C 189.198 227.604,189.198 197.627,189.154 179.308 C 189.110 160.988,189.074 175.977,189.074 212.615 M86.667 161.436 C 86.554 161.549,86.462 172.026,86.462 184.718 C 86.462 197.410,86.551 207.706,86.659 207.597 C 86.806 207.451,87.043 161.231,86.897 161.231 C 86.883 161.231,86.779 161.323,86.667 161.436 M255.077 171.481 C 255.077 171.534,255.527 171.984,256.077 172.481 L 257.077 173.385 256.173 172.385 C 255.331 171.452,255.077 171.243,255.077 171.481 M333.124 181.000 C 333.203 181.127,335.924 181.205,339.172 181.174 C 345.486 181.113,344.818 180.985,337.490 180.851 C 335.010 180.806,333.045 180.873,333.124 181.000 M348.385 181.152 C 350.035 181.208,352.735 181.208,354.385 181.152 C 356.035 181.097,354.685 181.052,351.385 181.052 C 348.085 181.052,346.735 181.097,348.385 181.152 M86.595 230.462 C 86.595 234.608,86.638 236.304,86.691 234.231 C 86.745 232.158,86.745 228.765,86.691 226.692 C 86.638 224.619,86.595 226.315,86.595 230.462 M274.615 255.123 C 273.938 255.247,272.664 255.357,271.784 255.367 C 270.903 255.377,269.865 255.509,269.476 255.660 C 269.087 255.812,268.146 256.102,267.385 256.306 C 266.623 256.509,265.752 256.805,265.448 256.964 C 265.144 257.123,264.153 257.655,263.246 258.146 C 245.507 267.743,248.222 296.932,267.385 302.637 C 268.315 302.914,269.492 303.284,270.000 303.460 C 272.132 304.197,373.169 304.479,378.769 303.763 C 401.996 300.796,407.505 268.603,386.615 257.907 C 384.278 256.711,383.196 256.343,380.000 255.657 C 377.386 255.096,277.516 254.590,274.615 255.123 M167.692 305.308 C 167.692 305.435,168.030 305.538,168.443 305.538 C 168.856 305.538,169.259 305.435,169.337 305.308 C 169.416 305.181,169.078 305.077,168.586 305.077 C 168.094 305.077,167.692 305.181,167.692 305.308 " stroke="none" fill="#1b3354" fill-rule="evenodd"></path><path id="path1" d="M24.788 3.047 C 24.673 3.233,24.103 3.385,23.520 3.385 C 22.938 3.385,22.462 3.523,22.462 3.692 C 22.462 3.862,22.046 4.000,21.538 4.000 C 21.031 4.000,20.615 4.138,20.615 4.308 C 20.615 4.477,20.200 4.615,19.692 4.615 C 19.185 4.615,18.769 4.754,18.769 4.923 C 18.769 5.092,18.492 5.231,18.154 5.231 C 17.815 5.231,17.538 5.369,17.538 5.538 C 17.538 5.708,17.262 5.846,16.923 5.846 C 16.585 5.846,16.308 5.985,16.308 6.154 C 16.308 6.323,16.031 6.462,15.692 6.462 C 15.354 6.462,15.077 6.600,15.077 6.769 C 15.077 6.938,14.855 7.077,14.583 7.077 C 14.311 7.077,13.817 7.422,13.486 7.843 C 13.155 8.264,12.152 9.094,11.258 9.688 C 9.387 10.930,5.846 14.552,5.846 15.224 C 5.846 15.474,5.509 15.899,5.096 16.169 C 4.684 16.440,4.250 17.100,4.132 17.638 C 4.014 18.175,3.659 18.839,3.343 19.113 C 3.028 19.387,2.769 19.822,2.769 20.080 C 2.769 20.338,2.553 20.633,2.288 20.734 C 2.024 20.836,1.884 21.042,1.977 21.194 C 2.071 21.345,1.942 21.639,1.692 21.846 C 1.442 22.054,1.308 22.337,1.393 22.475 C 1.479 22.614,1.401 22.818,1.221 22.929 C 0.997 23.068,1.020 23.285,1.293 23.616 C 1.609 23.999,1.612 24.127,1.308 24.230 C 1.096 24.301,0.923 24.539,0.923 24.760 C 0.923 24.980,0.713 25.557,0.457 26.042 C -0.058 27.014,-0.197 42.919,0.307 43.230 C 0.445 43.315,0.490 43.645,0.407 43.962 C 0.324 44.279,0.545 45.135,0.897 45.865 C 1.250 46.595,1.542 47.340,1.545 47.519 C 1.549 47.699,1.823 48.192,2.154 48.615 C 2.485 49.038,2.759 49.605,2.762 49.875 C 2.766 50.145,3.046 50.617,3.385 50.923 C 3.723 51.229,4.000 51.645,4.000 51.846 C 4.000 52.048,4.277 52.463,4.615 52.769 C 4.954 53.076,5.231 53.491,5.231 53.692 C 5.231 53.894,5.508 54.309,5.846 54.615 C 6.185 54.922,6.462 55.352,6.462 55.571 C 6.462 55.965,10.055 59.594,10.931 60.084 C 11.180 60.224,11.385 60.580,11.385 60.876 C 11.385 61.171,12.631 62.693,14.154 64.257 C 15.677 65.821,16.923 67.240,16.923 67.410 C 16.923 67.580,18.031 68.814,19.385 70.154 C 20.738 71.493,21.846 72.726,21.846 72.893 C 21.846 73.060,23.091 74.416,24.613 75.906 C 26.134 77.396,27.381 78.795,27.382 79.014 C 27.385 79.432,31.876 84.000,32.284 84.000 C 32.684 84.000,33.538 85.098,33.538 85.613 C 33.538 85.881,34.785 87.363,36.308 88.906 C 37.831 90.450,39.077 91.851,39.077 92.020 C 39.077 92.189,40.185 93.401,41.538 94.714 C 42.892 96.027,44.000 97.248,44.000 97.427 C 44.000 97.607,45.246 98.986,46.768 100.492 C 48.290 101.998,49.537 103.399,49.537 103.604 C 49.538 103.810,50.846 105.255,52.444 106.816 C 54.042 108.377,55.291 109.748,55.220 109.864 C 55.059 110.124,58.675 113.876,59.794 114.609 C 60.246 114.905,60.615 115.397,60.615 115.701 C 60.615 116.214,64.630 120.409,65.686 121.000 C 65.944 121.144,66.154 121.511,66.154 121.815 C 66.154 122.120,67.400 123.634,68.923 125.180 C 70.446 126.727,71.692 128.143,71.692 128.327 C 71.692 128.511,72.800 129.724,74.154 131.023 C 75.508 132.322,76.616 133.535,76.616 133.719 C 76.615 134.114,80.972 138.586,82.036 139.283 C 82.439 139.547,82.769 140.011,82.769 140.315 C 82.769 140.618,83.690 141.814,84.816 142.972 L 86.863 145.077 87.009 176.385 C 87.092 194.210,87.038 207.693,86.885 207.693 C 86.557 207.694,86.518 246.005,86.846 246.333 C 86.973 246.460,87.077 246.879,87.077 247.264 C 87.077 247.649,87.215 248.049,87.385 248.154 C 87.554 248.258,87.692 248.698,87.692 249.132 C 87.692 250.121,88.954 253.846,89.289 253.846 C 89.426 253.846,89.538 254.093,89.538 254.394 C 89.538 254.695,89.815 255.141,90.154 255.385 C 90.492 255.629,90.769 256.002,90.769 256.215 C 90.769 256.653,98.356 264.308,98.790 264.308 C 98.945 264.308,99.469 264.723,99.954 265.231 C 100.439 265.738,100.968 266.154,101.130 266.154 C 101.291 266.154,101.821 266.569,102.308 267.077 C 102.794 267.585,103.379 268.000,103.606 268.000 C 103.834 268.000,104.427 268.415,104.923 268.923 C 105.419 269.431,105.975 269.846,106.157 269.846 C 106.340 269.846,106.804 270.158,107.189 270.538 C 107.574 270.919,108.766 271.854,109.837 272.615 C 110.909 273.377,112.067 274.312,112.410 274.692 C 112.753 275.073,113.182 275.385,113.363 275.386 C 113.544 275.387,114.135 275.802,114.676 276.309 C 115.216 276.816,115.823 277.231,116.024 277.231 C 116.225 277.231,116.712 277.606,117.106 278.064 C 117.499 278.522,117.909 278.809,118.017 278.701 C 118.124 278.594,118.628 278.981,119.138 279.561 C 119.647 280.141,120.257 280.615,120.493 280.615 C 120.730 280.615,120.923 280.758,120.923 280.933 C 120.923 281.107,121.165 281.342,121.462 281.455 C 121.758 281.568,122.346 281.984,122.769 282.380 C 123.192 282.775,124.184 283.516,124.973 284.026 C 125.761 284.535,126.484 285.153,126.578 285.399 C 126.673 285.645,127.027 285.846,127.366 285.846 C 127.704 285.846,128.289 286.262,128.664 286.769 C 129.039 287.277,129.539 287.692,129.774 287.692 C 130.009 287.692,130.617 288.108,131.124 288.615 C 131.632 289.123,132.218 289.538,132.427 289.538 C 132.636 289.538,133.114 289.954,133.490 290.462 C 133.865 290.969,134.376 291.385,134.625 291.385 C 134.873 291.385,135.077 291.523,135.077 291.692 C 135.077 291.862,135.280 292.000,135.528 292.000 C 135.776 292.000,136.127 292.277,136.308 292.615 C 136.489 292.954,136.905 293.231,137.232 293.231 C 137.560 293.231,138.135 293.646,138.510 294.154 C 138.886 294.662,139.344 295.077,139.528 295.077 C 139.713 295.077,140.064 295.354,140.308 295.692 C 140.552 296.031,140.908 296.308,141.099 296.308 C 141.291 296.308,141.882 296.723,142.413 297.231 C 142.944 297.738,143.501 298.154,143.651 298.154 C 143.800 298.154,144.520 298.700,145.250 299.367 C 145.980 300.034,146.690 300.510,146.829 300.425 C 146.968 300.339,147.158 300.468,147.251 300.711 C 147.344 300.954,148.070 301.480,148.864 301.880 C 149.658 302.280,150.377 302.688,150.462 302.788 C 150.742 303.116,151.831 303.483,152.922 303.617 C 153.514 303.689,154.081 303.881,154.181 304.044 C 154.281 304.206,154.697 304.360,155.105 304.385 C 155.512 304.411,155.934 304.560,156.042 304.716 C 156.150 304.872,156.600 305.000,157.042 305.000 C 157.484 305.000,157.846 305.121,157.846 305.269 C 157.846 305.417,160.062 305.538,162.769 305.538 C 166.065 305.538,167.692 305.429,167.692 305.209 C 167.692 305.027,168.004 304.917,168.385 304.962 C 168.765 305.008,169.380 304.879,169.751 304.676 C 170.257 304.398,170.479 304.394,170.644 304.661 C 170.803 304.919,170.956 304.896,171.201 304.577 C 171.387 304.335,171.815 304.143,172.154 304.151 C 172.492 304.158,172.964 304.023,173.201 303.851 C 173.439 303.679,173.876 303.538,174.173 303.538 C 174.470 303.538,175.013 303.158,175.379 302.692 C 175.745 302.227,176.307 301.846,176.627 301.846 C 176.947 301.846,177.357 301.569,177.538 301.231 C 177.720 300.892,178.109 300.615,178.404 300.615 C 179.043 300.615,182.610 297.034,183.921 295.075 C 185.869 292.166,188.000 287.982,188.000 287.066 C 188.000 286.754,188.138 286.412,188.308 286.308 C 188.477 286.203,188.615 285.664,188.615 285.110 C 188.615 284.556,188.693 284.025,188.788 283.930 C 188.882 283.836,188.947 252.610,188.933 214.540 L 188.905 145.322 190.914 143.558 C 192.019 142.588,192.923 141.621,192.923 141.408 C 192.923 141.196,194.308 139.614,196.000 137.892 C 197.692 136.169,199.077 134.657,199.077 134.530 C 199.077 134.403,200.323 133.018,201.846 131.452 C 203.369 129.886,204.615 128.481,204.615 128.330 C 204.615 127.977,207.796 124.763,208.787 124.114 C 209.200 123.843,209.538 123.445,209.538 123.228 C 209.538 123.012,209.747 122.755,210.003 122.657 C 210.258 122.559,210.431 122.347,210.387 122.186 C 210.344 122.025,211.658 120.500,213.308 118.797 C 214.958 117.094,216.308 115.492,216.308 115.235 C 216.308 114.979,216.481 114.769,216.692 114.769 C 217.182 114.769,221.622 110.153,221.723 109.538 C 221.765 109.285,222.918 108.038,224.284 106.769 C 225.973 105.201,226.769 104.240,226.769 103.769 C 226.769 103.388,226.892 103.077,227.042 103.077 C 227.343 103.077,230.879 99.502,233.889 96.154 C 234.954 94.969,235.942 93.951,236.084 93.892 C 236.426 93.748,237.846 92.323,237.846 92.124 C 237.846 91.772,239.298 89.862,239.450 90.014 C 239.540 90.104,240.212 89.446,240.942 88.551 C 241.673 87.656,242.492 86.715,242.763 86.462 C 243.035 86.208,243.456 85.602,243.700 85.117 C 243.944 84.631,244.348 84.155,244.597 84.059 C 245.245 83.811,249.538 79.379,249.538 78.959 C 249.538 78.766,250.785 77.450,252.308 76.034 C 253.831 74.618,255.077 73.296,255.077 73.095 C 255.077 72.894,256.021 71.770,257.176 70.596 C 258.330 69.422,259.605 67.977,260.009 67.385 C 260.414 66.792,261.961 65.142,263.449 63.716 C 264.937 62.291,266.154 60.906,266.154 60.639 C 266.154 60.372,266.819 59.568,267.632 58.853 C 268.445 58.137,269.302 57.064,269.536 56.468 C 269.770 55.872,270.074 55.385,270.211 55.385 C 270.349 55.385,270.462 55.055,270.462 54.651 C 270.462 54.177,270.679 53.861,271.077 53.757 C 271.493 53.648,271.692 53.337,271.692 52.798 C 271.692 52.359,271.831 52.000,272.000 52.000 C 272.169 52.000,272.308 51.738,272.308 51.418 C 272.308 51.097,272.513 50.756,272.764 50.660 C 273.015 50.564,273.146 50.290,273.054 50.051 C 272.963 49.813,273.118 49.530,273.399 49.422 C 273.716 49.300,273.838 49.037,273.719 48.728 C 273.614 48.454,273.649 48.074,273.798 47.884 C 274.294 47.249,275.385 43.586,275.385 42.556 C 275.385 41.996,275.523 41.538,275.692 41.538 C 276.108 41.538,276.108 31.795,275.692 31.538 C 275.523 31.434,275.385 30.742,275.385 30.000 C 275.385 29.258,275.246 28.566,275.077 28.462 C 274.908 28.357,274.769 27.803,274.769 27.231 C 274.769 26.658,274.631 26.105,274.462 26.000 C 274.292 25.895,274.154 25.430,274.154 24.966 C 274.154 24.046,273.523 22.468,273.154 22.464 C 273.027 22.463,272.923 22.215,272.923 21.914 C 272.923 21.613,272.646 21.167,272.308 20.923 C 271.969 20.679,271.692 20.233,271.692 19.932 C 271.692 19.631,271.554 19.385,271.385 19.385 C 271.215 19.385,271.073 19.142,271.069 18.846 C 271.065 18.550,270.372 17.632,269.531 16.807 C 268.689 15.981,268.000 15.147,268.000 14.952 C 268.000 14.545,265.178 11.821,263.648 10.751 C 263.080 10.354,262.408 9.813,262.154 9.550 C 261.521 8.893,257.888 7.077,257.206 7.077 C 256.901 7.077,256.566 6.938,256.462 6.769 C 256.357 6.600,256.001 6.462,255.670 6.462 C 255.339 6.462,254.794 6.323,254.457 6.154 C 254.121 5.985,253.571 5.708,253.235 5.538 C 252.899 5.369,252.145 5.231,251.561 5.231 C 250.976 5.231,250.412 5.092,250.308 4.923 C 250.203 4.754,249.303 4.615,248.308 4.615 C 247.312 4.615,246.412 4.477,246.308 4.308 C 246.184 4.107,238.772 4.000,225.077 4.000 C 213.505 4.000,203.970 3.892,203.888 3.760 C 203.807 3.628,183.756 3.477,159.331 3.424 C 134.907 3.371,114.785 3.225,114.615 3.101 C 114.088 2.712,25.028 2.658,24.788 3.047 M82.466 4.157 C 82.572 4.222,98.710 4.311,118.329 4.354 C 137.948 4.398,159.608 4.536,166.462 4.662 C 173.315 4.787,193.600 4.949,211.538 5.020 C 249.403 5.171,251.741 5.340,257.077 8.314 C 257.923 8.786,259.169 9.475,259.846 9.847 C 266.773 13.650,273.002 22.343,274.179 29.846 C 275.052 35.408,274.905 39.936,273.702 44.579 C 272.640 48.676,267.936 57.080,265.381 59.445 C 264.777 60.004,263.365 61.569,262.243 62.923 C 261.121 64.277,259.497 66.077,258.634 66.923 C 257.771 67.769,256.665 68.946,256.177 69.538 C 255.689 70.131,254.376 71.594,253.260 72.790 C 252.144 73.986,249.708 76.672,247.846 78.759 C 244.149 82.903,240.439 86.955,237.269 90.312 C 236.148 91.500,234.356 93.542,233.288 94.851 C 232.219 96.160,231.246 97.231,231.125 97.231 C 231.004 97.231,230.010 98.304,228.916 99.615 C 227.822 100.927,226.234 102.692,225.387 103.538 C 224.539 104.385,222.254 106.862,220.308 109.044 C 218.362 111.226,215.731 114.151,214.462 115.543 C 213.192 116.936,210.492 119.916,208.462 122.166 C 206.431 124.417,204.285 126.755,203.692 127.363 C 203.100 127.970,201.781 129.435,200.761 130.618 C 199.741 131.801,198.229 133.462,197.401 134.308 C 196.573 135.154,195.168 136.726,194.279 137.801 C 193.389 138.876,192.396 139.942,192.072 140.169 C 191.747 140.397,190.701 141.537,189.747 142.703 L 188.012 144.823 187.910 213.412 C 187.803 285.749,187.854 283.252,186.415 287.077 C 184.235 292.872,179.761 298.390,174.769 301.439 C 165.503 307.100,155.721 305.556,143.812 296.554 C 141.506 294.811,139.325 293.177,138.964 292.923 C 138.603 292.669,136.369 291.007,134.000 289.230 C 131.631 287.453,129.346 285.753,128.923 285.452 C 128.500 285.151,127.656 284.529,127.047 284.068 C 124.037 281.792,121.661 279.986,121.385 279.764 C 120.310 278.904,115.764 275.421,114.964 274.844 C 114.434 274.463,113.377 273.667,112.615 273.077 C 111.854 272.486,110.746 271.656,110.154 271.231 C 109.562 270.806,108.454 269.975,107.692 269.385 C 106.931 268.794,105.823 267.961,105.231 267.532 C 104.638 267.104,103.655 266.377,103.046 265.916 C 102.437 265.454,100.914 264.305,99.661 263.361 C 94.155 259.212,90.173 253.964,88.938 249.231 C 88.740 248.469,88.413 247.431,88.212 246.923 C 87.935 246.223,87.846 233.717,87.846 195.217 C 87.846 148.638,87.804 144.372,87.341 143.679 C 87.063 143.263,85.678 141.661,84.264 140.119 C 82.850 138.577,80.169 135.611,78.308 133.528 C 76.446 131.445,73.954 128.681,72.769 127.385 C 71.585 126.089,69.092 123.314,67.231 121.219 C 65.369 119.123,63.173 116.711,62.350 115.858 C 61.527 115.006,60.289 113.615,59.598 112.769 C 58.907 111.923,57.365 110.180,56.171 108.896 C 54.977 107.612,52.546 104.924,50.769 102.923 C 48.992 100.922,46.561 98.234,45.367 96.950 C 44.172 95.666,42.809 94.139,42.337 93.556 C 41.535 92.566,39.800 90.639,34.154 84.467 C 32.885 83.079,30.392 80.303,28.615 78.296 C 26.838 76.290,24.485 73.664,23.385 72.461 C 22.285 71.258,19.792 68.486,17.846 66.301 C 15.900 64.116,13.470 61.424,12.447 60.318 C 9.139 56.744,4.308 50.471,4.308 49.749 C 4.308 49.667,3.778 48.444,3.132 47.031 C 2.485 45.618,1.778 43.838,1.561 43.077 C 1.344 42.315,1.043 41.375,0.891 40.987 C -0.093 38.463,0.686 29.002,2.263 24.319 C 3.404 20.931,8.120 13.990,10.737 11.846 C 11.150 11.508,11.915 10.880,12.437 10.451 C 13.450 9.618,15.890 8.000,16.134 8.000 C 16.215 8.000,16.980 7.588,17.834 7.084 C 19.897 5.868,24.155 4.606,27.370 4.258 C 28.801 4.104,30.047 3.895,30.140 3.795 C 30.320 3.600,82.145 3.958,82.466 4.157 M321.385 4.877 C 321.215 5.043,320.084 5.233,318.871 5.300 C 317.658 5.367,316.447 5.603,316.179 5.825 C 315.911 6.047,315.692 6.126,315.692 6.000 C 315.692 5.874,315.485 5.943,315.231 6.154 C 314.977 6.365,314.769 6.423,314.769 6.284 C 314.769 6.145,314.614 6.186,314.424 6.376 C 314.234 6.566,313.895 6.651,313.671 6.565 C 313.446 6.478,312.952 6.697,312.573 7.050 C 312.194 7.403,311.668 7.693,311.404 7.693 C 311.139 7.693,310.438 8.108,309.846 8.615 C 309.254 9.122,308.620 9.537,308.439 9.538 C 308.062 9.539,303.692 14.033,303.692 14.420 C 303.692 14.560,303.415 14.924,303.077 15.231 C 302.738 15.537,302.462 16.043,302.462 16.355 C 302.462 16.668,302.323 16.923,302.154 16.923 C 301.985 16.923,301.846 17.109,301.846 17.337 C 301.846 17.565,301.569 18.001,301.231 18.308 C 300.892 18.614,300.615 19.112,300.615 19.414 C 300.615 19.716,300.477 20.049,300.308 20.154 C 300.138 20.258,300.000 20.812,300.000 21.385 C 300.000 21.957,299.862 22.511,299.692 22.615 C 299.523 22.720,299.385 23.135,299.385 23.538 C 299.385 23.942,299.246 24.357,299.077 24.462 C 298.890 24.577,298.769 26.818,298.769 30.154 C 298.769 33.490,298.890 35.731,299.077 35.846 C 299.246 35.951,299.385 36.366,299.385 36.769 C 299.385 37.172,299.523 37.588,299.692 37.692 C 299.862 37.797,300.000 38.351,300.000 38.923 C 300.000 39.495,300.138 40.049,300.308 40.154 C 300.477 40.258,300.615 40.591,300.615 40.894 C 300.615 41.196,300.892 41.694,301.231 42.000 C 301.569 42.306,301.846 42.722,301.846 42.923 C 301.846 43.563,302.767 45.164,303.238 45.345 C 303.488 45.441,303.692 45.802,303.692 46.147 C 303.692 46.532,304.165 47.102,304.911 47.618 C 305.582 48.082,306.136 48.592,306.142 48.752 C 306.161 49.222,307.768 50.769,308.237 50.769 C 308.473 50.769,309.133 51.249,309.702 51.835 C 310.652 52.814,312.311 53.737,313.595 54.003 C 313.881 54.063,314.394 54.261,314.737 54.444 C 315.079 54.628,315.469 54.746,315.603 54.708 C 315.737 54.670,316.161 54.813,316.545 55.026 C 316.929 55.239,317.367 55.337,317.519 55.243 C 317.670 55.150,317.844 55.225,317.906 55.411 C 317.968 55.596,318.776 55.770,319.702 55.796 C 320.627 55.823,321.484 55.983,321.605 56.153 C 321.745 56.348,324.601 56.437,329.374 56.394 C 333.526 56.357,336.923 56.426,336.923 56.548 C 336.923 56.670,346.062 56.815,357.231 56.872 C 371.669 56.945,377.538 56.878,377.538 56.641 C 377.538 56.443,378.216 56.308,379.213 56.308 C 380.133 56.308,380.972 56.169,381.077 56.000 C 381.182 55.831,381.597 55.692,382.000 55.692 C 382.403 55.692,382.818 55.554,382.923 55.385 C 383.028 55.215,383.384 55.077,383.715 55.077 C 384.045 55.077,384.556 54.948,384.850 54.789 C 385.144 54.631,385.835 54.321,386.385 54.099 C 386.935 53.877,387.385 53.591,387.385 53.463 C 387.385 53.335,387.660 53.231,387.997 53.231 C 388.334 53.231,388.783 52.954,388.994 52.615 C 389.206 52.277,389.590 52.000,389.847 52.000 C 390.105 52.000,390.959 51.328,391.744 50.506 C 392.529 49.684,393.370 48.935,393.614 48.842 C 393.858 48.748,394.293 48.175,394.581 47.567 C 394.870 46.959,395.228 46.462,395.377 46.462 C 395.527 46.462,395.970 45.804,396.363 45.000 C 396.756 44.196,397.376 43.296,397.742 42.999 C 398.165 42.656,398.377 42.181,398.323 41.694 C 398.277 41.272,398.425 40.774,398.651 40.585 C 398.939 40.347,398.975 40.078,398.772 39.698 C 398.565 39.311,398.656 38.790,399.086 37.899 C 399.784 36.455,400.033 24.923,399.366 24.923 C 399.187 24.923,399.130 24.779,399.239 24.602 C 399.348 24.425,399.208 23.929,398.926 23.500 C 398.645 23.071,398.498 22.503,398.599 22.239 C 398.700 21.975,398.567 21.429,398.302 21.025 C 398.037 20.621,397.894 20.171,397.984 20.026 C 398.074 19.881,397.941 19.591,397.689 19.382 C 397.437 19.173,397.231 18.811,397.231 18.578 C 397.231 18.345,397.092 18.154,396.923 18.154 C 396.754 18.154,396.615 17.946,396.615 17.692 C 396.615 17.438,396.477 17.231,396.308 17.231 C 396.138 17.231,396.000 16.964,396.000 16.638 C 396.000 16.312,395.654 15.772,395.231 15.440 C 394.808 15.107,394.462 14.680,394.462 14.490 C 394.462 14.024,389.876 9.538,389.398 9.538 C 389.189 9.538,388.768 9.262,388.462 8.923 C 388.155 8.585,387.753 8.305,387.568 8.301 C 387.382 8.297,386.885 8.023,386.462 7.692 C 386.038 7.361,385.389 7.088,385.018 7.084 C 384.647 7.080,384.258 6.938,384.154 6.769 C 384.049 6.600,383.624 6.462,383.208 6.462 C 382.793 6.462,382.213 6.339,381.919 6.190 C 380.489 5.462,379.690 5.242,377.846 5.066 C 374.287 4.726,321.718 4.551,321.385 4.877 M359.846 6.158 C 370.016 6.305,378.860 6.562,379.538 6.731 C 380.215 6.899,381.363 7.186,382.089 7.369 C 384.429 7.958,390.324 11.481,391.824 13.187 C 393.971 15.630,394.524 16.412,395.781 18.779 C 402.239 30.946,398.012 46.671,386.769 52.301 C 386.008 52.683,385.177 53.167,384.923 53.377 C 382.940 55.020,380.652 55.160,353.385 55.305 C 321.528 55.475,318.243 55.254,313.538 52.616 C 312.777 52.189,311.795 51.657,311.357 51.433 C 310.918 51.209,310.088 50.614,309.511 50.111 C 308.934 49.607,308.105 49.005,307.670 48.772 C 307.234 48.539,306.503 47.782,306.045 47.090 C 305.587 46.398,304.988 45.569,304.712 45.248 C 302.516 42.683,300.477 36.831,300.204 32.308 C 299.580 22.000,303.759 13.557,311.652 9.174 C 315.922 6.804,316.625 6.580,321.203 6.133 C 322.796 5.977,324.162 5.786,324.240 5.709 C 324.318 5.631,328.207 5.640,332.883 5.729 C 337.559 5.818,349.692 6.011,359.846 6.158 M271.864 128.586 C 271.750 128.771,270.995 128.923,270.187 128.923 C 269.379 128.923,268.622 129.019,268.505 129.136 C 268.388 129.253,267.990 129.395,267.621 129.452 C 267.252 129.508,266.857 129.704,266.744 129.887 C 266.629 130.073,266.249 130.128,265.883 130.012 C 265.424 129.866,265.170 129.955,265.034 130.309 C 264.901 130.654,264.620 130.760,264.147 130.641 C 263.728 130.536,263.306 130.647,263.077 130.923 C 262.869 131.173,262.610 131.322,262.500 131.254 C 261.808 130.827,254.198 137.496,254.395 138.359 C 254.443 138.569,254.127 138.974,253.693 139.259 C 253.259 139.543,252.978 139.850,253.068 139.940 C 253.158 140.030,253.002 140.358,252.721 140.669 C 252.439 140.980,252.294 141.320,252.399 141.425 C 252.504 141.529,252.305 141.845,251.959 142.126 C 251.612 142.406,251.306 143.012,251.279 143.472 C 251.253 143.931,251.127 144.307,251.000 144.307 C 250.873 144.308,250.769 144.725,250.769 145.235 C 250.769 145.745,250.609 146.472,250.413 146.850 C 250.218 147.229,249.941 147.779,249.798 148.073 C 249.421 148.849,249.466 160.308,249.846 160.308 C 250.015 160.308,250.154 160.723,250.154 161.231 C 250.154 161.738,250.292 162.154,250.462 162.154 C 250.631 162.154,250.769 162.571,250.769 163.081 C 250.769 163.591,250.908 164.283,251.077 164.620 C 251.246 164.956,251.546 165.542,251.744 165.923 C 251.942 166.304,252.504 167.396,252.993 168.351 C 253.792 169.910,258.370 175.058,258.986 175.089 C 259.121 175.096,259.710 175.512,260.296 176.013 C 260.882 176.513,261.505 176.926,261.681 176.930 C 261.856 176.934,262.346 177.208,262.769 177.538 C 263.192 177.869,263.850 178.143,264.231 178.147 C 264.612 178.151,264.923 178.292,264.923 178.462 C 264.923 178.631,265.330 178.769,265.828 178.769 C 266.326 178.769,266.818 178.908,266.923 179.077 C 267.028 179.246,267.443 179.385,267.846 179.385 C 268.249 179.385,268.665 179.523,268.769 179.692 C 268.874 179.862,269.701 180.000,270.608 180.000 C 271.515 180.000,272.303 180.133,272.359 180.296 C 272.424 180.483,285.829 180.619,308.692 180.664 C 328.619 180.703,344.923 180.812,344.923 180.906 C 344.923 181.327,377.866 181.082,378.127 180.659 C 378.294 180.389,378.626 180.318,379.071 180.460 C 379.720 180.666,381.786 180.277,383.308 179.664 C 384.984 178.988,385.460 178.817,386.692 178.447 C 387.412 178.232,388.000 177.939,388.000 177.797 C 388.000 177.655,388.182 177.538,388.404 177.538 C 388.625 177.538,389.104 177.262,389.468 176.923 C 389.831 176.585,390.276 176.308,390.457 176.308 C 390.748 176.308,395.385 171.747,395.385 171.461 C 395.385 171.399,395.867 170.716,396.456 169.944 C 397.046 169.172,397.453 168.419,397.361 168.270 C 397.270 168.122,397.341 168.000,397.520 168.000 C 397.700 168.000,397.846 167.842,397.846 167.649 C 397.846 167.456,398.062 167.141,398.325 166.949 C 398.588 166.756,398.838 166.395,398.880 166.145 C 398.922 165.896,399.132 165.176,399.346 164.544 C 399.561 163.913,399.655 163.265,399.555 163.104 C 399.456 162.943,399.505 162.731,399.665 162.632 C 400.175 162.317,400.068 147.824,399.553 147.397 C 399.314 147.199,399.116 146.665,399.113 146.211 C 399.107 145.491,398.945 144.483,398.756 144.000 C 398.723 143.915,398.710 143.750,398.727 143.633 C 398.744 143.516,398.410 143.147,397.985 142.813 C 397.561 142.479,397.240 142.090,397.272 141.949 C 397.390 141.428,396.619 140.007,396.011 139.628 C 395.667 139.413,395.385 139.062,395.385 138.848 C 395.385 138.312,390.341 133.231,389.809 133.231 C 389.572 133.231,389.206 132.954,388.994 132.615 C 388.783 132.277,388.438 131.999,388.228 131.998 C 388.018 131.997,387.447 131.788,386.960 131.534 C 386.472 131.280,385.641 131.001,385.113 130.915 C 384.586 130.829,383.877 130.639,383.538 130.491 C 382.474 130.029,380.506 129.537,379.308 129.434 C 378.674 129.379,378.063 129.242,377.950 129.129 C 377.836 129.016,377.421 128.923,377.026 128.923 C 376.631 128.923,376.308 128.819,376.308 128.692 C 376.308 128.301,272.106 128.195,271.864 128.586 M377.692 130.347 C 382.347 130.967,383.057 131.103,383.252 131.419 C 383.345 131.569,383.666 131.692,383.966 131.692 C 385.640 131.692,391.989 136.322,394.092 139.077 C 398.903 145.380,401.134 157.426,398.436 162.534 C 398.281 162.828,398.150 163.244,398.146 163.457 C 398.081 166.703,391.874 174.066,387.077 176.586 C 386.315 176.986,385.554 177.480,385.385 177.684 C 385.215 177.887,384.869 178.060,384.615 178.068 C 384.362 178.076,383.531 178.248,382.769 178.449 C 382.008 178.650,380.762 178.961,380.000 179.140 C 377.957 179.620,338.761 179.762,302.462 179.421 C 269.550 179.113,268.024 179.033,265.385 177.488 C 265.046 177.290,264.008 176.714,263.077 176.210 C 249.981 169.109,246.292 149.621,255.910 138.353 C 256.637 137.502,257.231 136.705,257.231 136.582 C 257.231 136.459,257.685 136.077,258.241 135.733 C 258.797 135.390,259.624 134.790,260.080 134.401 C 260.535 134.011,261.569 133.353,262.377 132.939 C 263.185 132.525,264.192 131.958,264.615 131.678 C 265.038 131.399,265.731 131.071,266.154 130.949 C 266.577 130.827,267.408 130.590,268.000 130.422 C 270.356 129.753,276.144 129.688,324.308 129.790 C 366.023 129.879,374.869 129.971,377.692 130.347 M272.308 253.538 C 272.308 253.708,271.597 253.846,270.728 253.846 C 268.964 253.846,266.769 254.403,266.769 254.851 C 266.769 255.012,266.438 255.060,266.032 254.959 C 265.533 254.833,265.238 254.922,265.119 255.233 C 265.022 255.486,264.627 255.701,264.240 255.712 C 263.253 255.739,260.138 257.355,260.231 257.792 C 260.273 257.991,260.039 258.154,259.711 258.154 C 259.375 258.154,258.564 258.806,257.857 259.645 C 257.165 260.464,256.286 261.303,255.903 261.508 C 255.521 261.713,254.971 262.427,254.681 263.094 C 254.392 263.762,254.023 264.308,253.862 264.308 C 253.700 264.308,253.323 264.827,253.025 265.462 C 252.726 266.096,252.235 266.884,251.933 267.212 C 251.631 267.540,251.385 268.128,251.385 268.520 C 251.385 268.911,251.246 269.231,251.077 269.231 C 250.908 269.231,250.769 269.776,250.769 270.443 C 250.769 271.110,250.631 271.742,250.462 271.846 C 250.292 271.951,250.154 272.374,250.154 272.787 C 250.154 273.200,250.015 273.538,249.846 273.538 C 249.652 273.538,249.538 275.692,249.538 279.385 C 249.538 283.077,249.652 285.231,249.846 285.231 C 250.015 285.231,250.154 285.646,250.154 286.154 C 250.154 286.662,250.292 287.077,250.462 287.077 C 250.631 287.077,250.769 287.631,250.769 288.308 C 250.769 288.985,250.908 289.538,251.077 289.538 C 251.246 289.538,251.385 289.748,251.385 290.004 C 251.385 290.447,251.961 291.671,252.324 292.000 C 252.417 292.085,252.732 292.667,253.024 293.295 C 253.316 293.922,253.686 294.516,253.846 294.615 C 254.006 294.714,254.365 295.274,254.642 295.859 C 254.920 296.444,255.291 296.923,255.467 296.923 C 255.835 296.923,258.154 299.358,258.154 299.744 C 258.154 299.885,258.366 300.000,258.626 300.000 C 258.885 300.000,259.504 300.415,260.000 300.923 C 260.496 301.431,261.018 301.846,261.160 301.846 C 261.302 301.846,262.056 302.251,262.836 302.745 C 263.615 303.240,264.316 303.582,264.392 303.506 C 264.554 303.344,268.921 304.870,269.405 305.257 C 269.884 305.641,381.147 305.615,381.385 305.230 C 381.489 305.061,381.984 304.923,382.484 304.923 C 382.984 304.923,383.633 304.801,383.927 304.651 C 384.783 304.216,385.904 303.791,387.308 303.370 C 388.027 303.155,388.615 302.862,388.615 302.720 C 388.615 302.578,388.859 302.462,389.157 302.462 C 389.455 302.462,389.871 302.185,390.082 301.846 C 390.294 301.508,390.658 301.231,390.892 301.231 C 391.364 301.231,396.000 296.675,396.000 296.211 C 396.000 296.050,396.261 295.692,396.581 295.415 C 396.900 295.137,397.454 294.394,397.812 293.763 C 398.169 293.132,398.742 292.120,399.085 291.515 C 399.428 290.909,399.683 290.252,399.652 290.053 C 399.621 289.855,399.693 289.471,399.813 289.200 C 399.932 288.930,399.988 287.753,399.936 286.585 C 399.858 284.854,399.795 284.632,399.595 285.385 C 398.810 288.329,398.307 289.707,397.328 291.591 C 395.909 294.322,393.111 298.039,392.058 298.591 C 391.603 298.830,390.941 299.299,390.586 299.633 C 390.232 299.968,389.471 300.485,388.894 300.783 C 388.318 301.080,387.292 301.675,386.615 302.105 C 385.938 302.534,385.177 302.919,384.923 302.960 C 384.669 303.000,383.908 303.192,383.231 303.386 C 382.554 303.580,381.377 303.889,380.615 304.074 C 376.469 305.077,269.679 304.666,269.047 303.645 C 268.959 303.502,268.583 303.383,268.213 303.380 C 266.670 303.369,262.113 300.958,259.027 298.519 C 256.335 296.391,253.002 291.233,252.030 287.692 C 251.822 286.931,251.531 285.892,251.386 285.385 C 249.572 279.063,251.802 268.581,256.056 263.433 C 256.702 262.651,257.231 261.924,257.231 261.817 C 257.231 261.488,261.328 258.556,263.254 257.506 C 264.257 256.959,265.123 256.397,265.179 256.256 C 265.236 256.115,265.594 256.000,265.974 256.000 C 266.355 256.000,266.768 255.898,266.893 255.774 C 268.125 254.542,293.503 254.220,349.231 254.730 L 380.154 255.013 382.801 255.737 C 384.257 256.136,385.641 256.615,385.878 256.802 C 386.114 256.989,387.078 257.558,388.019 258.067 C 391.839 260.133,394.352 262.672,396.818 266.961 C 397.937 268.909,398.368 270.002,399.649 274.154 C 399.933 275.075,399.968 274.841,399.892 272.532 C 399.840 270.990,399.647 269.677,399.439 269.470 C 399.240 269.271,399.077 268.806,399.077 268.438 C 399.077 268.069,398.868 267.594,398.612 267.382 C 398.356 267.169,397.894 266.425,397.585 265.729 C 397.276 265.032,396.793 264.272,396.512 264.039 C 396.230 263.807,395.998 263.461,395.996 263.270 C 395.986 262.421,390.321 257.457,388.382 256.599 C 387.833 256.356,387.385 256.053,387.385 255.925 C 387.385 255.797,386.969 255.692,386.462 255.692 C 385.954 255.692,385.538 255.554,385.538 255.385 C 385.538 255.215,385.123 255.077,384.615 255.077 C 384.108 255.077,383.692 254.938,383.692 254.769 C 383.692 254.600,383.277 254.462,382.769 254.462 C 382.262 254.462,381.846 254.323,381.846 254.154 C 381.846 253.983,381.026 253.846,380.000 253.846 C 378.974 253.846,378.154 253.709,378.154 253.538 C 378.154 253.335,360.308 253.231,325.231 253.231 C 290.154 253.231,272.308 253.335,272.308 253.538 " stroke="none" fill="#64748b" fill-rule="evenodd"></path><path id="path2" d="M105.009 2.996 C 105.818 3.059,107.064 3.059,107.779 2.994 C 108.493 2.930,107.831 2.878,106.308 2.878 C 104.785 2.879,104.200 2.932,105.009 2.996 M194.395 3.612 C 195.289 3.674,196.674 3.674,197.472 3.610 C 198.270 3.547,197.538 3.496,195.846 3.497 C 194.154 3.498,193.501 3.549,194.395 3.612 M34.692 3.922 C 36.935 3.975,40.604 3.975,42.846 3.922 C 45.088 3.870,43.254 3.827,38.769 3.827 C 34.285 3.827,32.450 3.870,34.692 3.922 M61.291 4.229 C 63.100 4.284,66.147 4.284,68.060 4.230 C 69.973 4.176,68.492 4.131,64.769 4.131 C 61.046 4.131,59.481 4.175,61.291 4.229 M116.405 4.538 C 120.098 4.587,126.051 4.587,129.636 4.538 C 133.221 4.489,130.200 4.449,122.923 4.449 C 115.646 4.449,112.713 4.489,116.405 4.538 M150.521 4.845 C 152.331 4.899,155.377 4.899,157.291 4.845 C 159.204 4.791,157.723 4.747,154.000 4.747 C 150.277 4.746,148.712 4.791,150.521 4.845 M372.308 4.788 C 373.373 5.022,376.879 5.086,376.532 4.865 C 376.324 4.733,375.185 4.639,374.000 4.656 C 372.815 4.673,372.054 4.732,372.308 4.788 M205.923 5.154 C 209.604 5.203,215.627 5.203,219.308 5.154 C 222.988 5.104,219.977 5.064,212.615 5.064 C 205.254 5.064,202.242 5.104,205.923 5.154 M319.154 5.135 C 319.450 5.213,319.935 5.213,320.231 5.135 C 320.527 5.058,320.285 4.994,319.692 4.994 C 319.100 4.994,318.858 5.058,319.154 5.135 M238.692 5.459 C 239.750 5.519,241.481 5.519,242.538 5.459 C 243.596 5.399,242.731 5.349,240.615 5.349 C 238.500 5.349,237.635 5.399,238.692 5.459 M245.615 5.751 C 245.912 5.828,246.396 5.828,246.692 5.751 C 246.988 5.673,246.746 5.610,246.154 5.610 C 245.562 5.610,245.319 5.673,245.615 5.751 M329.598 6.076 C 331.408 6.130,334.454 6.130,336.368 6.076 C 338.281 6.022,336.800 5.978,333.077 5.977 C 329.354 5.977,327.788 6.021,329.598 6.076 M319.615 6.371 C 319.996 6.444,320.619 6.444,321.000 6.371 C 321.381 6.298,321.069 6.238,320.308 6.238 C 319.546 6.238,319.235 6.298,319.615 6.371 M9.981 12.692 L 9.077 13.692 10.077 12.789 C 10.627 12.292,11.077 11.842,11.077 11.789 C 11.077 11.551,10.823 11.760,9.981 12.692 M274.231 31.846 C 274.235 32.523,274.298 32.764,274.371 32.381 C 274.445 31.998,274.442 31.444,274.365 31.150 C 274.288 30.856,274.228 31.169,274.231 31.846 M398.545 32.308 C 398.545 33.069,398.605 33.381,398.679 33.000 C 398.752 32.619,398.752 31.996,398.679 31.615 C 398.605 31.235,398.545 31.546,398.545 32.308 M274.554 36.000 C 274.554 36.931,274.611 37.312,274.682 36.846 C 274.752 36.381,274.752 35.619,274.682 35.154 C 274.611 34.688,274.554 35.069,274.554 36.000 M0.620 38.949 C 0.623 39.612,0.746 40.346,0.895 40.580 C 1.060 40.840,1.102 40.422,1.003 39.503 C 0.801 37.629,0.614 37.357,0.620 38.949 M274.231 39.846 C 274.235 40.523,274.298 40.764,274.371 40.381 C 274.445 39.998,274.442 39.444,274.365 39.150 C 274.288 38.856,274.228 39.169,274.231 39.846 M304.280 44.564 C 304.446 44.874,304.824 45.324,305.119 45.564 C 305.451 45.834,305.377 45.619,304.924 45.000 C 304.116 43.896,303.813 43.691,304.280 44.564 M320.389 54.682 C 320.857 54.753,321.549 54.751,321.927 54.678 C 322.306 54.605,321.923 54.547,321.077 54.550 C 320.231 54.552,319.921 54.612,320.389 54.682 M346.252 55.307 C 349.944 55.357,355.898 55.356,359.482 55.307 C 363.067 55.258,360.046 55.218,352.769 55.218 C 345.492 55.218,342.559 55.258,346.252 55.307 M332.549 56.535 C 333.443 56.597,334.828 56.597,335.626 56.533 C 336.424 56.470,335.692 56.419,334.000 56.420 C 332.308 56.421,331.655 56.473,332.549 56.535 M352.231 56.841 C 352.950 56.905,354.127 56.905,354.846 56.841 C 355.565 56.776,354.977 56.723,353.538 56.723 C 352.100 56.723,351.512 56.776,352.231 56.841 M263.216 61.308 L 262.000 62.615 263.308 61.399 C 264.524 60.268,264.757 60.000,264.524 60.000 C 264.474 60.000,263.885 60.588,263.216 61.308 M258.298 66.846 L 256.462 68.769 258.385 66.933 C 259.442 65.923,260.308 65.057,260.308 65.010 C 260.308 64.782,260.004 65.060,258.298 66.846 M251.211 74.538 L 250.308 75.538 251.308 74.635 C 251.858 74.138,252.308 73.688,252.308 73.635 C 252.308 73.397,252.054 73.606,251.211 74.538 M247.519 78.538 L 246.615 79.538 247.615 78.635 C 248.165 78.138,248.615 77.688,248.615 77.635 C 248.615 77.397,248.361 77.606,247.519 78.538 M236.606 90.692 L 234.615 92.769 236.692 90.778 C 237.835 89.683,238.769 88.748,238.769 88.701 C 238.769 88.475,238.456 88.763,236.606 90.692 M230.760 97.154 L 228.769 99.231 230.846 97.240 C 231.988 96.145,232.923 95.210,232.923 95.163 C 232.923 94.936,232.610 95.225,230.760 97.154 M46.154 97.635 C 46.154 97.688,46.604 98.138,47.154 98.635 L 48.154 99.538 47.250 98.538 C 46.408 97.606,46.154 97.397,46.154 97.635 M226.288 102.231 L 225.385 103.231 226.385 102.327 C 226.935 101.830,227.385 101.380,227.385 101.327 C 227.385 101.089,227.131 101.299,226.288 102.231 M223.983 104.538 L 222.923 105.692 224.077 104.632 C 225.151 103.645,225.372 103.385,225.137 103.385 C 225.086 103.385,224.567 103.904,223.983 104.538 M57.231 109.942 C 57.231 109.995,57.681 110.445,58.231 110.942 L 59.231 111.846 58.327 110.846 C 57.485 109.914,57.231 109.705,57.231 109.942 M62.769 116.096 C 62.769 116.149,63.219 116.599,63.769 117.096 L 64.769 118.000 63.866 117.000 C 63.023 116.068,62.769 115.859,62.769 116.096 M68.308 122.250 C 68.308 122.303,68.758 122.753,69.308 123.250 L 70.308 124.154 69.404 123.154 C 68.562 122.222,68.308 122.012,68.308 122.250 M202.137 128.538 L 201.077 129.692 202.231 128.632 C 203.305 127.645,203.526 127.385,203.291 127.385 C 203.240 127.385,202.720 127.904,202.137 128.538 M352.231 128.536 C 353.288 128.596,355.019 128.596,356.077 128.536 C 357.135 128.475,356.269 128.426,354.154 128.426 C 352.038 128.426,351.173 128.475,352.231 128.536 M271.923 130.063 C 272.304 130.137,272.927 130.137,273.308 130.063 C 273.688 129.990,273.377 129.930,272.615 129.930 C 271.854 129.930,271.542 129.990,271.923 130.063 M345.769 130.077 C 350.719 130.124,358.819 130.124,363.769 130.077 C 368.719 130.029,364.669 129.990,354.769 129.990 C 344.869 129.990,340.819 130.029,345.769 130.077 M196.442 134.846 L 195.538 135.846 196.538 134.942 C 197.088 134.445,197.538 133.995,197.538 133.942 C 197.538 133.705,197.285 133.914,196.442 134.846 M191.530 140.385 L 189.385 142.615 191.615 140.470 C 192.842 139.290,193.846 138.286,193.846 138.239 C 193.846 138.013,193.523 138.313,191.530 140.385 M88.126 149.692 C 88.126 152.569,88.172 153.788,88.229 152.400 C 88.286 151.012,88.286 148.658,88.229 147.169 C 88.173 145.680,88.126 146.815,88.126 149.692 M251.269 148.346 C 251.013 149.629,251.261 149.877,251.538 148.615 C 251.655 148.083,251.687 147.584,251.608 147.506 C 251.530 147.427,251.377 147.806,251.269 148.346 M250.847 151.846 C 250.850 152.523,250.913 152.764,250.987 152.381 C 251.060 151.998,251.058 151.444,250.981 151.150 C 250.904 150.856,250.843 151.169,250.847 151.846 M399.188 154.769 C 399.188 156.377,399.240 157.035,399.303 156.231 C 399.366 155.427,399.366 154.112,399.303 153.308 C 399.240 152.504,399.188 153.162,399.188 154.769 M250.853 156.308 C 250.853 157.069,250.913 157.381,250.986 157.000 C 251.060 156.619,251.060 155.996,250.986 155.615 C 250.913 155.235,250.853 155.546,250.853 156.308 M86.903 169.538 C 86.903 173.854,86.946 175.619,86.999 173.462 C 87.052 171.304,87.052 167.773,86.999 165.615 C 86.946 163.458,86.903 165.223,86.903 169.538 M252.308 163.810 C 252.308 164.140,253.223 165.846,253.400 165.846 C 253.485 165.846,253.325 165.396,253.046 164.846 C 252.475 163.723,252.308 163.489,252.308 163.810 M256.615 171.173 C 256.615 171.226,257.065 171.676,257.615 172.173 L 258.615 173.077 257.712 172.077 C 256.869 171.145,256.615 170.935,256.615 171.173 M270.696 178.679 C 271.079 178.753,271.632 178.750,271.927 178.673 C 272.221 178.596,271.908 178.536,271.231 178.539 C 270.554 178.543,270.313 178.606,270.696 178.679 M298.867 179.307 C 302.898 179.356,309.406 179.356,313.329 179.307 C 317.252 179.259,313.954 179.219,306.000 179.219 C 298.046 179.219,294.836 179.259,298.867 179.307 M356.385 179.615 C 359.896 179.664,365.642 179.664,369.154 179.615 C 372.665 179.566,369.792 179.525,362.769 179.525 C 355.746 179.525,352.873 179.566,356.385 179.615 M336.401 180.845 C 338.059 180.900,340.690 180.900,342.247 180.844 C 343.803 180.789,342.446 180.743,339.231 180.744 C 336.015 180.744,334.742 180.790,336.401 180.845 M370.846 181.151 C 371.988 181.210,373.858 181.210,375.000 181.151 C 376.142 181.092,375.208 181.044,372.923 181.044 C 370.638 181.044,369.704 181.092,370.846 181.151 M86.595 215.692 C 86.595 219.838,86.638 221.535,86.691 219.462 C 86.745 217.388,86.745 213.996,86.691 211.923 C 86.638 209.850,86.595 211.546,86.595 215.692 M279.462 254.692 C 281.788 254.744,285.596 254.744,287.923 254.692 C 290.250 254.639,288.346 254.597,283.692 254.597 C 279.038 254.597,277.135 254.639,279.462 254.692 M271.773 254.990 C 272.241 255.061,272.933 255.059,273.312 254.986 C 273.690 254.913,273.308 254.855,272.462 254.857 C 271.615 254.860,271.306 254.919,271.773 254.990 M377.923 255.289 C 378.219 255.366,378.704 255.366,379.000 255.289 C 379.296 255.212,379.054 255.148,378.462 255.148 C 377.869 255.148,377.627 255.212,377.923 255.289 M265.192 256.538 C 264.824 257.007,264.829 257.031,265.231 256.725 C 265.485 256.532,265.969 256.306,266.308 256.223 C 266.892 256.079,266.890 256.070,266.268 256.036 C 265.908 256.016,265.424 256.242,265.192 256.538 M93.538 257.623 C 93.538 257.670,94.612 258.743,95.923 260.008 L 98.308 262.308 96.008 259.923 C 93.872 257.708,93.538 257.398,93.538 257.623 M260.709 259.253 L 259.846 260.045 260.846 259.349 C 261.396 258.967,261.846 258.610,261.846 258.558 C 261.846 258.315,261.506 258.523,260.709 259.253 M399.583 276.000 C 399.827 277.327,400.002 277.577,399.995 276.590 C 399.993 276.181,399.854 275.638,399.688 275.385 C 399.475 275.060,399.444 275.242,399.583 276.000 M179.374 297.462 L 177.692 299.231 179.462 297.549 C 181.105 295.987,181.372 295.692,181.143 295.692 C 181.095 295.692,180.299 296.488,179.374 297.462 M392.750 297.615 L 391.846 298.615 392.846 297.712 C 393.778 296.869,393.988 296.615,393.750 296.615 C 393.697 296.615,393.247 297.065,392.750 297.615 M161.615 304.532 C 162.250 304.598,163.288 304.598,163.923 304.532 C 164.558 304.465,164.038 304.411,162.769 304.411 C 161.500 304.411,160.981 304.465,161.615 304.532 M300.692 304.538 C 314.527 304.583,337.165 304.583,351.000 304.538 C 364.835 304.494,353.515 304.458,325.846 304.458 C 298.177 304.458,286.858 304.494,300.692 304.538 " stroke="none" fill="#3f5570" fill-rule="evenodd"></path><path id="path3" d="M51.324 3.922 C 53.068 3.977,55.837 3.977,57.478 3.921 C 59.119 3.866,57.692 3.821,54.308 3.822 C 50.923 3.822,49.580 3.867,51.324 3.922 M74.077 4.229 C 75.642 4.285,78.204 4.285,79.769 4.229 C 81.335 4.173,80.054 4.128,76.923 4.128 C 73.792 4.128,72.512 4.173,74.077 4.229 M140.863 4.537 C 142.606 4.592,145.375 4.592,147.016 4.537 C 148.657 4.482,147.231 4.437,143.846 4.437 C 140.462 4.437,139.119 4.482,140.863 4.537 M163.478 4.845 C 165.136 4.900,167.767 4.900,169.324 4.844 C 170.880 4.789,169.523 4.743,166.308 4.744 C 163.092 4.744,161.819 4.790,163.478 4.845 M230.401 5.153 C 232.145 5.208,234.914 5.207,236.555 5.152 C 238.196 5.097,236.769 5.052,233.385 5.052 C 230.000 5.053,228.657 5.098,230.401 5.153 M325.470 5.764 C 326.193 5.829,327.301 5.828,327.931 5.762 C 328.561 5.696,327.969 5.643,326.615 5.644 C 325.262 5.645,324.746 5.699,325.470 5.764 M342.385 6.075 C 343.950 6.131,346.512 6.131,348.077 6.075 C 349.642 6.020,348.362 5.974,345.231 5.974 C 342.100 5.974,340.819 6.020,342.385 6.075 M377.308 6.674 C 377.604 6.751,378.088 6.751,378.385 6.674 C 378.681 6.596,378.438 6.533,377.846 6.533 C 377.254 6.533,377.012 6.596,377.308 6.674 M304.617 15.230 C 304.220 15.652,303.953 16.049,304.024 16.112 C 304.096 16.175,304.476 15.829,304.870 15.344 C 305.750 14.258,305.595 14.188,304.617 15.230 M300.078 30.308 C 300.081 30.985,300.144 31.225,300.218 30.843 C 300.291 30.460,300.288 29.906,300.211 29.612 C 300.134 29.318,300.074 29.631,300.078 30.308 M382.000 54.154 C 381.148 54.371,381.137 54.391,381.846 54.420 C 382.269 54.438,382.823 54.318,383.077 54.154 C 383.601 53.815,383.330 53.815,382.000 54.154 M328.864 55.307 C 330.947 55.360,334.270 55.360,336.248 55.307 C 338.227 55.253,336.523 55.209,332.462 55.210 C 328.400 55.210,326.781 55.254,328.864 55.307 M247.837 78.538 L 246.000 80.462 247.923 78.625 C 248.981 77.615,249.846 76.750,249.846 76.702 C 249.846 76.475,249.542 76.752,247.837 78.538 M241.522 85.462 L 240.462 86.615 241.615 85.555 C 242.689 84.568,242.911 84.308,242.676 84.308 C 242.624 84.308,242.105 84.827,241.522 85.462 M219.519 109.615 L 218.615 110.615 219.615 109.712 C 220.165 109.215,220.615 108.765,220.615 108.712 C 220.615 108.474,220.361 108.683,219.519 109.615 M214.606 115.154 L 212.769 117.077 214.692 115.240 C 215.750 114.230,216.615 113.365,216.615 113.317 C 216.615 113.090,216.312 113.367,214.606 115.154 M208.914 121.462 L 206.923 123.538 209.000 121.547 C 210.142 120.452,211.077 119.518,211.077 119.470 C 211.077 119.244,210.764 119.532,208.914 121.462 M278.865 129.769 C 281.541 129.820,285.834 129.820,288.404 129.769 C 290.974 129.717,288.785 129.675,283.538 129.675 C 278.292 129.675,276.189 129.717,278.865 129.769 M373.312 130.067 C 373.780 130.138,374.472 130.136,374.850 130.063 C 375.229 129.990,374.846 129.932,374.000 129.934 C 373.154 129.936,372.844 129.996,373.312 130.067 M195.827 135.769 L 194.923 136.769 195.923 135.866 C 196.473 135.368,196.923 134.918,196.923 134.866 C 196.923 134.628,196.669 134.837,195.827 135.769 M187.843 212.308 C 187.843 249.454,187.879 264.650,187.923 246.077 C 187.967 227.504,187.967 197.112,187.923 178.538 C 187.879 159.965,187.843 175.162,187.843 212.308 M87.809 158.462 C 87.809 160.408,87.859 161.204,87.920 160.231 C 87.981 159.258,87.981 157.665,87.920 156.692 C 87.859 155.719,87.809 156.515,87.809 158.462 M87.841 206.000 C 87.841 225.969,87.878 234.093,87.923 224.053 C 87.968 214.013,87.968 197.675,87.923 187.745 C 87.878 177.816,87.841 186.031,87.841 206.000 M271.619 178.987 C 272.002 179.060,272.556 179.058,272.850 178.981 C 273.144 178.904,272.831 178.843,272.154 178.847 C 271.477 178.850,271.236 178.913,271.619 178.987 M279.154 179.307 C 281.481 179.359,285.288 179.359,287.615 179.307 C 289.942 179.255,288.038 179.212,283.385 179.212 C 278.731 179.212,276.827 179.255,279.154 179.307 M377.615 179.289 C 377.912 179.366,378.396 179.366,378.692 179.289 C 378.988 179.212,378.746 179.148,378.154 179.148 C 377.562 179.148,377.319 179.212,377.615 179.289 M324.231 179.615 C 329.012 179.663,336.835 179.663,341.615 179.615 C 346.396 179.568,342.485 179.528,332.923 179.528 C 323.362 179.528,319.450 179.568,324.231 179.615 M86.902 199.846 C 86.902 203.908,86.946 205.527,86.999 203.444 C 87.053 201.361,87.052 198.038,86.999 196.059 C 86.945 194.081,86.902 195.785,86.902 199.846 M303.023 254.692 C 309.170 254.739,319.139 254.739,325.176 254.692 C 331.214 254.646,326.185 254.607,314.000 254.607 C 301.815 254.607,296.876 254.646,303.023 254.692 M93.846 258.250 C 93.846 258.303,94.296 258.753,94.846 259.250 L 95.846 260.154 94.942 259.154 C 94.100 258.222,93.846 258.012,93.846 258.250 M272.385 304.212 C 272.681 304.289,273.165 304.289,273.462 304.212 C 273.758 304.135,273.515 304.071,272.923 304.071 C 272.331 304.071,272.088 304.135,272.385 304.212 M378.231 304.212 C 378.527 304.289,379.012 304.289,379.308 304.212 C 379.604 304.135,379.362 304.071,378.769 304.071 C 378.177 304.071,377.935 304.135,378.231 304.212 " stroke="none" fill="#4c647c" fill-rule="evenodd"></path><path id="path4" d="M28.462 4.308 L 26.615 4.512 28.308 4.527 C 29.238 4.536,30.415 4.437,30.923 4.308 C 32.106 4.007,31.182 4.007,28.462 4.308 M40.866 4.230 C 44.135 4.280,49.397 4.280,52.559 4.230 C 55.721 4.180,53.046 4.139,46.615 4.140 C 40.185 4.140,37.598 4.181,40.866 4.230 M80.692 4.538 C 86.065 4.585,94.858 4.585,100.231 4.538 C 105.604 4.491,101.208 4.453,90.462 4.453 C 79.715 4.453,75.319 4.491,80.692 4.538 M24.615 4.923 C 23.997 5.121,23.967 5.171,24.462 5.178 C 24.800 5.183,25.354 5.069,25.692 4.923 C 26.476 4.586,25.667 4.586,24.615 4.923 M130.231 4.846 C 133.404 4.896,138.596 4.896,141.769 4.846 C 144.942 4.796,142.346 4.755,136.000 4.755 C 129.654 4.755,127.058 4.796,130.231 4.846 M170.231 5.154 C 175.604 5.201,184.396 5.201,189.769 5.154 C 195.142 5.107,190.746 5.068,180.000 5.068 C 169.254 5.068,164.858 5.107,170.231 5.154 M211.154 5.443 C 211.450 5.520,211.935 5.520,212.231 5.443 C 212.527 5.365,212.285 5.302,211.692 5.302 C 211.100 5.302,210.858 5.365,211.154 5.443 M219.769 5.461 C 222.942 5.511,228.135 5.511,231.308 5.461 C 234.481 5.411,231.885 5.370,225.538 5.370 C 219.192 5.370,216.596 5.411,219.769 5.461 M21.385 5.846 C 20.997 6.013,20.940 6.111,21.231 6.111 C 21.485 6.111,21.969 5.992,22.308 5.846 C 22.696 5.679,22.752 5.582,22.462 5.582 C 22.208 5.582,21.723 5.701,21.385 5.846 M244.615 5.845 C 245.375 6.089,248.223 6.258,247.974 6.043 C 247.904 5.982,246.946 5.857,245.846 5.765 C 244.646 5.664,244.154 5.696,244.615 5.845 M325.000 6.058 C 325.296 6.136,325.781 6.136,326.077 6.058 C 326.373 5.981,326.131 5.918,325.538 5.918 C 324.946 5.918,324.704 5.981,325.000 6.058 M250.769 6.780 C 251.869 7.101,252.908 7.357,253.077 7.350 C 253.720 7.323,250.271 6.201,249.538 6.200 C 249.115 6.199,249.669 6.460,250.769 6.780 M321.077 6.478 C 320.671 6.663,321.089 6.695,322.308 6.572 C 323.323 6.469,324.212 6.333,324.282 6.269 C 324.555 6.024,321.659 6.212,321.077 6.478 M347.923 6.384 C 352.704 6.432,360.527 6.432,365.308 6.384 C 370.088 6.337,366.177 6.298,356.615 6.298 C 347.054 6.298,343.142 6.337,347.923 6.384 M316.923 7.064 C 314.690 7.675,310.295 10.046,309.373 11.137 L 308.774 11.846 309.541 11.190 C 311.269 9.712,315.008 7.884,317.692 7.204 C 319.215 6.818,320.115 6.505,319.692 6.510 C 319.269 6.514,318.023 6.763,316.923 7.064 M18.077 7.253 C 16.927 7.877,16.997 8.137,18.154 7.538 C 18.662 7.276,19.077 6.995,19.077 6.915 C 19.077 6.717,19.044 6.728,18.077 7.253 M376.462 6.924 C 377.166 7.167,380.303 7.264,379.936 7.031 C 379.718 6.892,378.777 6.787,377.846 6.798 C 376.915 6.809,376.292 6.866,376.462 6.924 M254.000 7.692 C 254.105 7.862,254.494 7.990,254.864 7.978 C 255.514 7.958,255.516 7.947,254.923 7.692 C 254.076 7.328,253.775 7.328,254.000 7.692 M380.641 7.495 C 380.712 7.556,381.185 7.699,381.692 7.812 C 382.366 7.963,382.491 7.934,382.154 7.706 C 381.738 7.425,380.332 7.229,380.641 7.495 M383.077 8.220 C 383.331 8.315,383.954 8.589,384.462 8.830 L 385.385 9.268 384.615 8.641 C 384.192 8.296,383.569 8.022,383.231 8.031 C 382.791 8.044,382.747 8.098,383.077 8.220 M13.019 10.431 C 11.697 11.429,10.271 12.641,9.849 13.123 C 9.119 13.959,9.134 13.955,10.157 13.044 C 10.747 12.517,12.200 11.359,13.385 10.469 C 15.876 8.597,15.854 8.615,15.609 8.615 C 15.506 8.615,14.341 9.432,13.019 10.431 M256.923 8.759 C 256.923 8.843,257.615 9.264,258.462 9.692 C 259.308 10.121,260.000 10.403,260.000 10.318 C 260.000 10.233,259.308 9.813,258.462 9.385 C 257.615 8.956,256.923 8.674,256.923 8.759 M386.923 10.069 C 387.092 10.234,388.164 11.023,389.304 11.824 C 391.164 13.130,393.467 15.680,394.456 17.528 C 394.656 17.901,394.894 18.132,394.986 18.040 C 395.333 17.692,391.611 13.213,389.881 11.897 C 388.189 10.610,386.239 9.405,386.923 10.069 M260.308 10.549 C 260.308 10.638,260.965 11.192,261.769 11.778 C 262.573 12.365,263.819 13.279,264.538 13.809 C 265.258 14.339,265.846 14.711,265.846 14.635 C 265.846 14.558,264.773 13.701,263.462 12.730 C 262.150 11.758,260.904 10.834,260.692 10.675 C 260.481 10.516,260.308 10.459,260.308 10.549 M306.619 13.308 C 305.323 14.821,303.380 17.678,303.394 18.052 C 303.399 18.193,303.711 17.818,304.087 17.219 C 304.983 15.789,306.392 13.900,307.348 12.846 C 307.770 12.381,308.031 12.000,307.928 12.000 C 307.825 12.000,307.236 12.588,306.619 13.308 M8.119 15.154 C 6.975 16.392,5.538 18.340,5.538 18.655 C 5.538 18.785,5.978 18.275,6.514 17.522 C 7.051 16.770,7.909 15.704,8.421 15.154 C 8.933 14.604,9.282 14.154,9.198 14.154 C 9.113 14.154,8.628 14.604,8.119 15.154 M267.272 17.000 C 267.784 17.550,268.641 18.616,269.178 19.368 C 269.715 20.121,270.154 20.639,270.154 20.519 C 270.154 20.020,266.970 16.000,266.575 16.000 C 266.446 16.000,266.760 16.450,267.272 17.000 M395.873 20.053 C 396.316 20.928,397.004 22.901,397.401 24.437 C 397.799 25.974,398.130 26.951,398.139 26.609 C 398.177 25.035,395.822 18.462,395.220 18.462 C 395.136 18.462,395.429 19.178,395.873 20.053 M4.405 20.385 C 3.404 21.956,2.285 24.673,2.029 26.154 C 1.927 26.746,2.232 26.106,2.706 24.732 C 3.181 23.358,3.805 21.869,4.092 21.424 C 4.380 20.979,4.839 20.269,5.112 19.846 C 5.386 19.423,5.526 19.077,5.424 19.077 C 5.322 19.077,4.863 19.665,4.405 20.385 M301.730 21.397 C 301.625 21.671,301.550 22.127,301.565 22.410 C 301.579 22.692,301.713 22.515,301.862 22.015 C 302.152 21.044,302.050 20.564,301.730 21.397 M271.046 22.308 C 271.565 23.311,271.991 23.868,271.988 23.538 C 271.987 23.369,271.703 22.885,271.357 22.462 C 270.939 21.951,270.835 21.899,271.046 22.308 M272.659 25.846 C 272.659 26.100,272.778 26.585,272.923 26.923 C 273.090 27.311,273.188 27.368,273.188 27.077 C 273.188 26.823,273.069 26.338,272.923 26.000 C 272.756 25.612,272.659 25.555,272.659 25.846 M300.424 30.462 C 300.424 32.408,300.474 33.204,300.535 32.231 C 300.596 31.258,300.596 29.665,300.535 28.692 C 300.474 27.719,300.424 28.515,300.424 30.462 M1.284 29.154 C 1.100 30.127,0.882 31.962,0.799 33.231 C 0.652 35.483,0.658 35.468,1.056 32.615 C 1.280 31.008,1.565 29.173,1.689 28.538 C 1.813 27.904,1.848 27.385,1.767 27.385 C 1.685 27.385,1.468 28.181,1.284 29.154 M273.274 28.000 C 273.274 28.254,273.393 28.738,273.538 29.077 C 273.705 29.465,273.803 29.522,273.803 29.231 C 273.803 28.977,273.684 28.492,273.538 28.154 C 273.372 27.766,273.274 27.709,273.274 28.000 M398.244 31.077 C 398.247 33.897,398.286 34.213,398.435 32.637 C 398.538 31.548,398.536 29.956,398.431 29.098 C 398.304 28.054,398.242 28.708,398.244 31.077 M273.883 31.410 C 273.903 32.158,274.028 33.185,274.162 33.692 C 274.309 34.252,274.339 33.768,274.237 32.462 C 274.047 30.016,273.828 29.366,273.883 31.410 M300.810 35.385 C 300.910 36.146,301.113 36.977,301.260 37.231 C 301.557 37.743,301.294 36.042,300.879 34.769 C 300.714 34.265,300.691 34.477,300.810 35.385 M397.692 36.308 C 397.574 37.007,397.547 37.649,397.631 37.734 C 397.716 37.818,397.882 37.315,398.000 36.615 C 398.118 35.916,398.146 35.274,398.061 35.189 C 397.976 35.105,397.811 35.608,397.692 36.308 M0.821 36.513 C 0.543 36.791,0.560 37.776,0.846 37.952 C 0.973 38.030,1.092 37.692,1.110 37.201 C 1.145 36.238,1.130 36.203,0.821 36.513 M301.563 38.193 C 301.536 38.740,302.379 40.923,302.617 40.923 C 302.698 40.923,302.569 40.404,302.330 39.769 C 302.091 39.135,301.826 38.408,301.742 38.154 C 301.614 37.772,301.583 37.778,301.563 38.193 M396.839 39.747 C 396.561 40.617,396.449 41.203,396.591 41.049 C 396.926 40.685,397.638 38.459,397.472 38.293 C 397.402 38.223,397.117 38.877,396.839 39.747 M0.994 39.385 C 0.994 39.977,1.058 40.219,1.135 39.923 C 1.213 39.627,1.213 39.142,1.135 38.846 C 1.058 38.550,0.994 38.792,0.994 39.385 M273.930 40.308 C 273.930 41.069,273.990 41.381,274.063 41.000 C 274.137 40.619,274.137 39.996,274.063 39.615 C 273.990 39.235,273.930 39.546,273.930 40.308 M1.259 40.769 C 1.249 40.938,1.436 41.700,1.676 42.462 C 1.916 43.223,2.111 43.569,2.110 43.231 C 2.107 42.589,1.292 40.231,1.259 40.769 M395.119 43.302 C 394.584 44.278,393.786 45.562,393.346 46.154 L 392.546 47.231 393.519 46.154 C 394.479 45.090,396.405 41.841,396.198 41.634 C 396.140 41.576,395.654 42.326,395.119 43.302 M273.385 43.077 C 273.268 43.609,273.236 44.108,273.315 44.187 C 273.393 44.265,273.546 43.887,273.654 43.346 C 273.910 42.064,273.662 41.815,273.385 43.077 M272.758 45.615 C 272.062 48.876,267.555 56.354,263.937 60.249 C 262.533 61.761,259.792 64.770,257.846 66.937 C 255.900 69.103,253.396 71.856,252.283 73.053 C 249.405 76.147,246.870 78.931,242.462 83.837 C 240.346 86.192,237.646 89.174,236.462 90.464 C 235.277 91.755,232.646 94.655,230.615 96.909 C 228.585 99.163,225.642 102.393,224.077 104.086 C 222.512 105.780,221.231 107.289,221.231 107.439 C 221.231 107.590,221.674 107.190,222.216 106.549 C 222.757 105.909,224.246 104.266,225.523 102.898 C 226.801 101.530,229.369 98.704,231.231 96.618 C 235.231 92.135,238.402 88.656,241.191 85.692 C 242.305 84.508,244.039 82.569,245.044 81.385 C 246.049 80.200,247.589 78.469,248.467 77.538 C 251.862 73.937,255.366 70.113,258.615 66.463 C 260.477 64.372,263.056 61.536,264.347 60.161 C 268.231 56.025,274.674 44.615,273.126 44.615 C 273.041 44.615,272.876 45.065,272.758 45.615 M305.365 45.640 C 305.839 46.261,306.289 46.769,306.365 46.769 C 306.579 46.769,305.247 44.969,304.853 44.726 C 304.661 44.607,304.891 45.018,305.365 45.640 M2.483 45.077 C 2.483 45.246,2.681 45.731,2.923 46.154 C 3.165 46.577,3.363 46.785,3.363 46.615 C 3.363 46.446,3.165 45.962,2.923 45.538 C 2.681 45.115,2.483 44.908,2.483 45.077 M391.828 48.020 C 391.044 48.886,387.828 51.152,386.231 51.964 C 385.512 52.329,384.923 52.697,384.923 52.782 C 384.923 53.388,391.635 48.962,392.279 47.931 C 392.736 47.200,392.534 47.240,391.828 48.020 M312.923 51.833 C 312.923 52.384,318.566 54.460,318.969 54.057 C 319.041 53.984,318.437 53.761,317.627 53.559 C 316.817 53.358,315.427 52.863,314.538 52.460 C 313.650 52.056,312.923 51.774,312.923 51.833 M7.633 54.154 C 8.134 54.915,8.864 55.815,9.255 56.154 C 9.731 56.566,9.643 56.362,8.987 55.538 C 7.069 53.129,6.735 52.788,7.633 54.154 M381.538 53.846 L 380.769 54.093 381.597 54.123 C 382.053 54.140,382.511 54.015,382.615 53.846 C 382.832 53.496,382.631 53.496,381.538 53.846 M319.410 54.266 C 319.481 54.328,320.646 54.455,322.000 54.548 C 323.768 54.670,324.115 54.644,323.231 54.454 C 322.007 54.191,319.165 54.051,319.410 54.266 M378.462 54.462 L 376.769 54.669 378.308 54.714 C 379.154 54.739,380.054 54.626,380.308 54.462 C 380.562 54.297,380.631 54.184,380.462 54.209 C 380.292 54.234,379.392 54.347,378.462 54.462 M330.672 55.000 C 333.918 55.049,339.318 55.049,342.672 55.000 C 346.025 54.950,343.369 54.909,336.769 54.909 C 330.169 54.909,327.425 54.950,330.672 55.000 M350.846 54.981 C 351.142 55.059,351.627 55.059,351.923 54.981 C 352.219 54.904,351.977 54.841,351.385 54.841 C 350.792 54.841,350.550 54.904,350.846 54.981 M367.923 55.305 C 369.150 55.364,371.158 55.364,372.385 55.305 C 373.612 55.247,372.608 55.199,370.154 55.199 C 367.700 55.199,366.696 55.247,367.923 55.305 M10.592 57.846 C 11.718 59.250,15.130 62.822,15.234 62.705 C 15.279 62.656,14.059 61.300,12.522 59.692 C 10.986 58.085,10.118 57.254,10.592 57.846 M15.873 63.712 C 16.197 64.145,17.638 65.792,19.077 67.371 C 20.515 68.950,22.662 71.306,23.846 72.606 C 25.031 73.907,27.523 76.681,29.385 78.769 C 31.246 80.858,33.738 83.627,34.923 84.923 C 36.108 86.219,38.531 88.917,40.308 90.917 C 42.085 92.918,44.577 95.687,45.846 97.070 C 47.115 98.453,49.608 101.222,51.385 103.224 C 53.162 105.225,55.654 107.999,56.923 109.388 C 58.192 110.777,60.685 113.544,62.462 115.538 C 64.238 117.532,66.731 120.299,68.000 121.687 C 69.269 123.075,71.762 125.854,73.538 127.864 C 75.315 129.874,77.606 132.423,78.629 133.528 C 79.652 134.634,80.953 136.092,81.520 136.769 C 82.086 137.446,83.552 139.053,84.777 140.339 C 86.001 141.626,87.253 143.060,87.559 143.527 C 88.089 144.336,88.115 146.672,88.107 194.418 L 88.099 244.462 88.288 194.462 C 88.475 144.949,88.471 144.453,87.866 143.538 C 87.531 143.031,86.143 141.425,84.782 139.971 C 83.421 138.517,80.854 135.690,79.077 133.690 C 77.300 131.689,74.946 129.058,73.846 127.843 C 72.746 126.628,70.323 123.931,68.462 121.850 C 66.600 119.769,64.038 116.930,62.769 115.541 C 61.500 114.153,59.008 111.380,57.231 109.379 C 55.454 107.378,53.031 104.681,51.846 103.385 C 50.662 102.089,48.169 99.320,46.308 97.232 C 44.446 95.145,42.023 92.448,40.923 91.239 C 39.823 90.031,37.331 87.257,35.385 85.075 C 33.438 82.893,30.877 80.048,29.692 78.753 C 28.508 77.457,26.015 74.690,24.154 72.603 C 20.261 68.239,16.792 64.429,15.901 63.538 L 15.285 62.923 15.873 63.712 M216.116 112.858 C 214.275 114.852,211.108 118.342,209.077 120.613 C 207.046 122.883,204.346 125.860,203.077 127.228 C 201.808 128.596,199.108 131.568,197.077 133.834 C 195.046 136.099,192.341 139.071,191.065 140.438 C 189.790 141.805,188.439 143.360,188.065 143.895 L 187.383 144.866 187.462 212.972 L 187.540 281.077 187.616 212.952 L 187.692 144.827 188.526 143.721 C 188.984 143.113,190.403 141.500,191.680 140.137 C 192.956 138.774,195.592 135.876,197.538 133.697 C 199.485 131.517,201.998 128.755,203.124 127.559 C 204.249 126.363,205.748 124.692,206.454 123.846 C 207.160 123.000,208.178 121.890,208.715 121.379 C 209.253 120.868,210.592 119.419,211.692 118.160 C 212.792 116.901,214.246 115.297,214.923 114.595 C 216.608 112.850,219.761 109.231,219.597 109.231 C 219.523 109.231,217.957 110.863,216.116 112.858 M272.000 130.130 C 270.064 130.302,329.187 130.236,334.462 130.060 C 335.900 130.012,322.885 129.968,305.538 129.963 C 288.192 129.957,273.100 130.032,272.000 130.130 M363.769 130.384 C 365.927 130.437,369.458 130.437,371.615 130.384 C 373.773 130.331,372.008 130.288,367.692 130.288 C 363.377 130.288,361.612 130.331,363.769 130.384 M268.308 130.769 C 267.689 130.967,267.659 131.017,268.154 131.025 C 268.492 131.030,269.046 130.915,269.385 130.769 C 270.169 130.432,269.360 130.432,268.308 130.769 M375.718 130.573 C 375.788 130.634,376.885 130.758,378.154 130.848 C 379.506 130.945,380.079 130.914,379.538 130.774 C 378.605 130.532,375.481 130.367,375.718 130.573 M265.615 131.536 C 265.065 131.775,264.615 132.030,264.615 132.103 C 264.615 132.246,267.145 131.419,267.358 131.206 C 267.643 130.921,266.556 131.127,265.615 131.536 M383.346 131.991 C 384.256 132.328,385.194 132.765,385.431 132.961 C 385.667 133.158,385.934 133.245,386.023 133.156 C 386.243 132.937,383.767 131.772,382.615 131.553 C 382.108 131.456,382.437 131.653,383.346 131.991 M262.700 133.046 C 261.090 134.004,260.834 134.356,262.308 133.588 C 263.850 132.784,264.553 132.310,264.154 132.341 C 263.985 132.355,263.331 132.672,262.700 133.046 M386.884 133.605 C 388.786 134.909,389.538 135.337,389.538 135.117 C 389.538 134.979,388.812 134.494,387.923 134.038 C 387.035 133.582,386.567 133.387,386.884 133.605 M259.945 134.856 C 259.492 135.231,258.777 135.778,258.356 136.072 C 257.069 136.968,253.278 142.304,253.658 142.684 C 253.738 142.764,254.096 142.255,254.454 141.554 C 255.485 139.532,257.818 136.641,259.041 135.869 C 259.658 135.479,260.351 134.934,260.581 134.657 C 261.150 133.971,260.930 134.040,259.945 134.856 M391.000 136.499 C 391.719 137.155,392.802 138.246,393.407 138.923 L 394.506 140.154 393.484 138.777 C 392.168 137.004,392.052 136.887,390.769 136.027 C 389.788 135.369,389.808 135.411,391.000 136.499 M395.846 142.769 C 396.275 143.615,396.695 144.308,396.780 144.308 C 396.864 144.308,396.583 143.615,396.154 142.769 C 395.725 141.923,395.305 141.231,395.220 141.231 C 395.136 141.231,395.417 141.923,395.846 142.769 M252.736 144.187 C 252.480 144.798,252.327 145.353,252.396 145.421 C 252.464 145.489,252.738 144.990,253.004 144.311 C 253.607 142.776,253.371 142.667,252.736 144.187 M251.846 146.769 C 251.729 147.301,251.703 147.806,251.788 147.890 C 251.872 147.975,252.037 147.609,252.154 147.077 C 252.271 146.545,252.297 146.041,252.212 145.956 C 252.128 145.871,251.963 146.237,251.846 146.769 M397.582 146.462 C 397.582 146.715,397.701 147.200,397.846 147.538 C 398.013 147.926,398.111 147.983,398.111 147.692 C 398.111 147.438,397.992 146.954,397.846 146.615 C 397.679 146.227,397.582 146.171,397.582 146.462 M398.221 148.769 C 398.224 149.108,398.332 149.800,398.462 150.308 C 398.673 151.137,398.697 151.152,398.702 150.462 C 398.705 150.038,398.597 149.346,398.462 148.923 C 398.268 148.320,398.216 148.287,398.221 148.769 M251.274 149.295 C 251.170 149.683,251.097 150.277,251.112 150.615 C 251.127 150.954,251.265 150.691,251.420 150.030 C 251.720 148.752,251.592 148.108,251.274 149.295 M398.888 155.077 C 398.888 157.192,398.937 158.058,398.997 157.000 C 399.057 155.942,399.057 154.212,398.997 153.154 C 398.937 152.096,398.888 152.962,398.888 155.077 M250.847 154.000 C 250.850 154.677,250.913 154.918,250.987 154.535 C 251.060 154.152,251.058 153.598,250.981 153.304 C 250.904 153.010,250.843 153.323,250.847 154.000 M251.148 158.154 C 251.148 158.746,251.212 158.988,251.289 158.692 C 251.366 158.396,251.366 157.912,251.289 157.615 C 251.212 157.319,251.148 157.562,251.148 158.154 M398.308 160.308 C 398.189 161.007,398.162 161.649,398.247 161.734 C 398.331 161.818,398.497 161.315,398.615 160.615 C 398.734 159.916,398.761 159.274,398.676 159.189 C 398.592 159.105,398.426 159.608,398.308 160.308 M251.719 161.077 C 251.709 161.415,251.836 161.900,252.000 162.154 C 252.395 162.766,252.395 161.997,252.000 161.077 L 251.736 160.462 251.719 161.077 M397.553 163.460 C 397.338 164.180,396.829 165.427,396.422 166.231 C 396.015 167.035,395.751 167.692,395.836 167.692 C 396.265 167.692,398.383 162.588,398.080 162.285 C 398.006 162.211,397.769 162.739,397.553 163.460 M253.453 165.769 C 253.968 167.134,255.779 169.835,257.129 171.251 C 257.947 172.108,258.259 172.384,257.823 171.866 C 256.172 169.902,255.129 168.409,254.315 166.846 C 253.486 165.254,253.056 164.717,253.453 165.769 M394.348 169.616 C 393.437 170.850,393.354 171.050,393.992 170.462 C 394.694 169.815,395.898 167.999,395.623 168.000 C 395.577 168.001,395.003 168.727,394.348 169.616 M391.460 172.886 C 390.571 173.696,389.009 174.832,387.991 175.411 C 385.535 176.804,384.735 177.423,386.462 176.593 C 388.278 175.720,392.586 172.630,392.959 171.932 C 393.367 171.171,393.286 171.222,391.460 172.886 M259.942 173.775 C 260.503 174.280,261.680 175.061,262.558 175.511 C 264.395 176.453,264.200 176.307,259.692 173.361 C 259.210 173.046,259.303 173.200,259.942 173.775 M266.615 177.538 C 266.954 177.684,267.438 177.803,267.692 177.803 C 267.983 177.803,267.926 177.705,267.538 177.538 C 267.200 177.393,266.715 177.274,266.462 177.274 C 266.171 177.274,266.227 177.372,266.615 177.538 M268.923 178.140 C 269.177 178.312,269.650 178.454,269.974 178.457 C 270.762 178.463,270.516 178.287,269.385 178.034 C 268.710 177.883,268.586 177.912,268.923 178.140 M272.692 178.674 C 272.988 178.751,273.473 178.751,273.769 178.674 C 274.065 178.596,273.823 178.533,273.231 178.533 C 272.638 178.533,272.396 178.596,272.692 178.674 M378.308 178.769 L 376.154 178.968 378.154 179.018 C 379.254 179.045,380.362 178.933,380.615 178.769 C 380.869 178.605,380.938 178.493,380.769 178.521 C 380.600 178.548,379.492 178.660,378.308 178.769 M278.865 178.999 C 281.371 179.051,285.387 179.051,287.788 178.999 C 290.189 178.947,288.138 178.905,283.231 178.905 C 278.323 178.905,276.358 178.948,278.865 178.999 M331.923 179.308 C 338.396 179.354,348.988 179.354,355.462 179.308 C 361.935 179.261,356.638 179.223,343.692 179.223 C 330.746 179.223,325.450 179.261,331.923 179.308 M88.620 246.949 C 88.623 247.442,88.757 248.054,88.919 248.308 C 89.119 248.622,89.153 248.377,89.025 247.538 C 88.791 246.017,88.614 245.759,88.620 246.949 M89.255 249.385 C 89.254 249.723,89.450 250.346,89.692 250.769 C 90.254 251.752,90.257 251.542,89.701 250.000 C 89.457 249.323,89.257 249.046,89.255 249.385 M90.769 252.923 C 91.115 253.600,91.466 254.154,91.551 254.154 C 91.636 254.154,91.422 253.600,91.077 252.923 C 90.732 252.246,90.380 251.692,90.295 251.692 C 90.211 251.692,90.424 252.246,90.769 252.923 M272.154 255.077 L 270.308 255.281 271.846 255.315 C 272.692 255.334,273.938 255.235,274.615 255.095 C 276.155 254.776,274.951 254.768,272.154 255.077 M312.514 255.000 C 324.051 255.045,343.020 255.045,354.668 255.000 C 366.316 254.955,356.877 254.919,333.692 254.919 C 310.508 254.919,300.978 254.955,312.514 255.000 M267.385 255.952 C 265.477 256.535,263.551 257.500,263.800 257.749 C 263.890 257.839,264.375 257.621,264.876 257.264 C 265.377 256.907,265.964 256.615,266.179 256.615 C 266.581 256.615,268.284 256.115,269.385 255.673 C 270.496 255.227,269.135 255.417,267.385 255.952 M379.462 255.597 C 379.758 255.674,380.242 255.674,380.538 255.597 C 380.835 255.519,380.592 255.456,380.000 255.456 C 379.408 255.456,379.165 255.519,379.462 255.597 M381.872 256.110 C 381.942 256.170,382.485 256.308,383.077 256.417 C 383.835 256.556,384.017 256.525,383.692 256.312 C 383.275 256.039,381.567 255.849,381.872 256.110 M93.455 257.077 C 94.397 258.408,98.005 261.816,100.154 263.404 C 101.169 264.155,102.183 264.942,102.407 265.154 C 102.824 265.548,103.077 265.643,103.077 265.403 C 103.077 265.329,101.759 264.273,100.148 263.057 C 98.537 261.841,96.225 259.790,95.010 258.500 C 93.795 257.209,93.095 256.569,93.455 257.077 M385.077 257.107 C 387.629 258.454,388.923 259.074,388.923 258.949 C 388.923 258.749,384.849 256.615,384.472 256.617 C 384.297 256.618,384.569 256.839,385.077 257.107 M262.154 258.489 C 261.643 258.907,261.591 259.011,262.000 258.800 C 263.004 258.282,263.560 257.855,263.231 257.858 C 263.062 257.859,262.577 258.143,262.154 258.489 M260.000 260.038 C 258.928 260.978,258.927 260.979,259.914 260.323 C 260.459 259.960,260.986 259.532,261.086 259.370 C 261.383 258.890,261.136 259.041,260.000 260.038 M389.231 259.173 C 389.231 259.249,389.739 259.699,390.360 260.173 C 390.982 260.647,391.393 260.878,391.274 260.686 C 391.031 260.292,389.231 258.960,389.231 259.173 M257.804 261.769 C 256.068 263.671,253.814 267.077,254.292 267.077 C 254.377 267.077,254.678 266.627,254.963 266.077 C 255.508 265.022,256.857 263.185,258.126 261.769 C 258.543 261.304,258.815 260.923,258.731 260.923 C 258.646 260.923,258.229 261.304,257.804 261.769 M392.495 261.886 C 394.309 263.854,395.982 266.342,397.234 268.936 C 397.926 270.367,398.401 271.192,398.291 270.769 C 397.671 268.388,393.698 262.217,392.154 261.239 C 391.803 261.017,391.950 261.295,392.495 261.886 M104.000 266.176 C 104.752 266.906,106.534 268.309,107.881 269.231 C 108.252 269.485,113.789 273.638,120.186 278.462 C 133.673 288.631,132.923 288.076,132.923 287.891 C 132.923 287.760,129.160 284.800,127.584 283.692 C 126.836 283.166,111.108 271.356,106.923 268.178 C 103.363 265.474,103.071 265.274,104.000 266.176 M252.500 270.320 C 252.394 270.595,252.320 271.051,252.334 271.333 C 252.349 271.615,252.483 271.438,252.632 270.939 C 252.922 269.967,252.819 269.487,252.500 270.320 M398.811 273.231 C 398.796 273.485,398.917 274.246,399.080 274.923 C 399.243 275.600,399.387 277.885,399.399 280.000 C 399.416 282.883,399.503 283.701,399.749 283.267 C 400.181 282.502,399.876 276.685,399.286 274.462 C 399.039 273.531,398.825 272.977,398.811 273.231 M251.196 279.538 C 251.197 281.738,251.246 282.598,251.305 281.449 C 251.365 280.299,251.364 278.499,251.304 277.449 C 251.245 276.398,251.196 277.338,251.196 279.538 M186.966 282.219 C 186.863 282.606,186.793 283.408,186.812 284.000 C 186.838 284.822,186.904 284.677,187.091 283.386 C 187.348 281.609,187.286 281.025,186.966 282.219 M398.694 286.333 C 398.399 287.643,397.587 289.835,396.889 291.204 C 396.192 292.572,395.759 293.554,395.929 293.385 C 397.115 292.200,399.584 285.670,399.324 284.405 C 399.273 284.155,398.989 285.022,398.694 286.333 M186.224 286.061 C 186.054 286.535,185.613 287.685,185.243 288.615 C 184.874 289.546,184.699 290.169,184.855 290.000 C 185.246 289.576,186.828 285.495,186.665 285.331 C 186.592 285.259,186.394 285.587,186.224 286.061 M133.235 288.210 C 133.237 288.348,133.736 288.784,134.345 289.179 C 134.954 289.573,135.363 289.753,135.255 289.578 C 134.954 289.091,133.230 287.924,133.235 288.210 M135.712 290.071 C 135.769 290.771,151.981 302.175,152.880 302.148 C 153.091 302.142,150.994 300.801,149.245 299.824 C 148.661 299.498,145.372 297.117,141.937 294.533 C 138.503 291.949,135.701 289.941,135.712 290.071 M253.846 291.385 C 254.191 292.062,254.543 292.615,254.628 292.615 C 254.713 292.615,254.499 292.062,254.154 291.385 C 253.809 290.708,253.457 290.154,253.372 290.154 C 253.287 290.154,253.501 290.708,253.846 291.385 M183.364 292.220 C 181.582 295.167,177.940 298.729,174.361 301.026 C 173.122 301.821,169.702 303.101,167.538 303.581 L 165.692 303.989 167.243 303.839 C 171.446 303.431,176.438 300.537,180.615 296.089 C 182.424 294.163,184.784 290.835,184.524 290.576 C 184.468 290.519,183.946 291.259,183.364 292.220 M255.133 293.692 C 255.326 294.115,255.603 294.462,255.749 294.462 C 255.895 294.462,255.787 294.115,255.510 293.692 C 255.233 293.269,254.956 292.923,254.894 292.923 C 254.833 292.923,254.940 293.269,255.133 293.692 M395.034 294.385 C 393.850 295.813,393.641 296.206,394.418 295.542 C 395.081 294.975,395.866 293.846,395.597 293.846 C 395.533 293.846,395.279 294.088,395.034 294.385 M256.819 295.891 C 257.682 297.126,259.796 298.976,261.692 300.155 C 262.979 300.954,262.342 300.358,260.106 298.670 C 259.065 297.883,257.699 296.649,257.070 295.928 L 255.928 294.615 256.819 295.891 M391.845 297.944 C 390.828 298.821,389.652 299.787,389.229 300.090 C 388.483 300.627,388.489 300.628,389.448 300.109 C 390.356 299.618,394.198 296.328,393.846 296.342 C 393.762 296.346,392.861 297.067,391.845 297.944 M386.692 301.407 C 385.542 302.031,385.612 302.291,386.769 301.692 C 387.277 301.430,387.692 301.149,387.692 301.069 C 387.692 300.871,387.659 300.882,386.692 301.407 M265.063 301.988 C 265.694 302.491,267.718 303.153,267.942 302.930 C 268.014 302.858,267.676 302.704,267.190 302.587 C 266.705 302.471,265.892 302.180,265.385 301.942 C 264.537 301.544,264.511 301.548,265.063 301.988 M153.231 302.282 C 153.231 302.588,158.203 304.032,158.838 303.911 C 159.489 303.786,159.482 303.773,158.746 303.734 C 158.310 303.711,156.936 303.346,155.692 302.923 C 153.263 302.097,153.231 302.088,153.231 302.282 M382.154 303.142 C 381.562 303.313,380.108 303.553,378.923 303.677 L 376.769 303.900 378.594 303.950 C 380.247 303.995,381.490 303.756,383.231 303.058 C 384.078 302.718,383.459 302.767,382.154 303.142 M268.923 303.385 C 269.975 303.722,270.784 303.722,270.000 303.385 C 269.662 303.239,269.108 303.124,268.769 303.129 C 268.275 303.136,268.305 303.187,268.923 303.385 M271.615 303.915 C 272.165 303.983,273.065 303.983,273.615 303.915 C 274.165 303.847,273.715 303.791,272.615 303.791 C 271.515 303.791,271.065 303.847,271.615 303.915 M161.164 304.227 C 162.058 304.290,163.443 304.289,164.241 304.226 C 165.039 304.163,164.308 304.112,162.615 304.112 C 160.923 304.113,160.270 304.165,161.164 304.227 M286.254 304.231 C 292.654 304.277,303.039 304.277,309.330 304.231 C 315.622 304.184,310.385 304.146,297.692 304.146 C 285.000 304.146,279.853 304.184,286.254 304.231 " stroke="none" fill="#2d4262" fill-rule="evenodd"></path></g></svg>