<svg width="101" height="100" viewBox="0 0 101 100" fill="none" xmlns="http://www.w3.org/2000/svg">
<mask id="mask0" mask-type="alpha" maskUnits="userSpaceOnUse" x="0" y="0" width="101" height="100">
<circle cx="50.6602" cy="50" r="50" fill="#F4F6F8"/>
</mask>
<g mask="url(#mask0)">
<path d="M101.569 50.4542C101.569 78.3193 78.9794 100.908 51.1143 100.908C23.2493 100.908 0.660156 78.3193 0.660156 50.4542C0.660156 22.5891 23.2493 0 51.1143 0C78.9794 0 101.569 22.5891 101.569 50.4542Z" fill="#F4F6F8"/>
<path d="M38.9193 49.8606C38.9193 50.7182 39.6146 51.4134 40.4722 51.4134C41.3298 51.4134 42.025 50.7182 42.025 49.8606H38.9193ZM69.5895 62.5077C68.7319 62.5077 68.0367 63.2029 68.0367 64.0605C68.0367 64.9181 68.7319 65.6133 69.5895 65.6133V62.5077ZM78.4633 40.6936V59.402H81.569V40.6936H78.4633ZM42.025 49.8606V40.6936H38.9193V49.8606H42.025ZM75.3576 62.5077H69.5895V65.6133H75.3576V62.5077ZM78.4633 59.402C78.4633 61.1172 77.0729 62.5077 75.3576 62.5077V65.6133C78.7881 65.6133 81.569 62.8324 81.569 59.402H78.4633Z" fill="#173559"/>
<path d="M43.1646 47.392C43.1646 45.6768 44.555 44.2864 46.2702 44.2864H49.9449C51.6601 44.2864 53.0505 45.6768 53.0505 47.392V54.1887C53.0505 54.819 52.3275 55.1753 51.8277 54.7915C49.9069 53.3163 47.7005 52.2565 45.3484 51.6791L43.7755 51.293C43.4168 51.2049 43.1646 50.8833 43.1646 50.5139V47.392Z" fill="#FDCF33"/>
<path d="M55.2104 40.8733C55.2104 40.377 55.6128 39.9746 56.1092 39.9746C56.6055 39.9746 57.0079 40.377 57.0079 40.8733V57.0504C57.0079 57.5468 56.6055 57.9491 56.1092 57.9491C55.6128 57.9491 55.2104 57.5468 55.2104 57.0504V40.8733Z" fill="#173559"/>
<path d="M49.8149 49.8616C49.8149 49.3653 50.2173 48.9629 50.7137 48.9629C51.21 48.9629 51.6124 49.3653 51.6124 49.8616V51.6591C51.6124 52.1554 51.21 52.5578 50.7137 52.5578C50.2173 52.5578 49.8149 52.1554 49.8149 51.6591V49.8616Z" fill="#173559"/>
<path d="M44.7608 23.5528H74.4949C76.7229 23.5528 78.639 25.1304 79.0667 27.3168L81.4533 39.515C81.6999 40.7752 80.735 41.9471 79.451 41.9471C79.194 41.9471 78.9394 41.8986 78.7004 41.804L76.6804 41.0049C73.2833 39.661 69.5378 39.4407 66.0067 40.3699C62.4293 41.3113 58.6561 41.2881 55.0933 40.2984C51.923 39.4178 48.5658 39.4714 45.4252 40.4528L40.9154 41.8622C39.0654 41.769 37.6974 40.0513 38.0591 38.2029L40.189 27.3168C40.6168 25.1303 42.5328 23.5528 44.7608 23.5528Z" fill="#173559" stroke="#173559" stroke-width="3.10566"/>
<path d="M45.2054 35.0873C44.6136 35.3019 44.2872 35.3705 43.9177 35.3705C43.0954 35.3884 42.2994 35.0797 41.7043 34.512C41.1544 33.9566 40.8432 33.2084 40.8369 32.4268C40.8435 31.6375 41.1541 30.8811 41.7043 30.315C41.9877 30.0317 42.3243 29.8074 42.6949 29.6548C43.0654 29.5023 43.4624 29.4245 43.8631 29.426C44.325 29.4338 44.781 29.5317 45.2054 29.7143V31.4922C45.0537 31.2935 44.8575 31.1333 44.6325 31.0245C44.4074 30.9158 44.16 30.8615 43.9101 30.8661C43.5301 30.8531 43.1602 30.9899 42.8802 31.2471C42.7207 31.3983 42.5942 31.5808 42.5086 31.7831C42.4229 31.9854 42.38 32.2033 42.3824 32.423C42.3825 32.6304 42.4235 32.8357 42.5031 33.0273C42.5826 33.2188 42.6991 33.3928 42.8459 33.5393C43.1404 33.7965 43.519 33.937 43.9101 33.9342C44.1568 33.9352 44.4007 33.8819 44.6246 33.7781C44.8484 33.6743 45.0467 33.5225 45.2054 33.3335V35.0873Z" fill="#FDCF33"/>
<path d="M54.5891 29.5178C55.0183 29.5178 55.5669 29.5864 55.9859 30.0258C56.3051 30.3777 56.4798 30.8371 56.4749 31.3122C56.4822 31.5314 56.4457 31.7498 56.3677 31.9548C56.2896 32.1598 56.1715 32.3471 56.0202 32.5059C55.7988 32.7085 55.5253 32.8452 55.2304 32.9008L57.0235 35.2438H55.177L53.7522 33.0469V35.2438H52.2715V29.5178H54.5891ZM53.756 32.0843H54.0341C54.2576 32.0843 54.5751 32.0233 54.7554 31.8519C54.8763 31.7212 54.9439 31.5499 54.9446 31.3719C54.9451 31.2825 54.9278 31.194 54.8938 31.1114C54.8598 31.0288 54.8097 30.9537 54.7465 30.8906C54.6094 30.7534 54.3655 30.6671 54.0341 30.6671H53.7509L53.756 32.0843Z" fill="#FDCF33"/>
<path d="M60.4424 30.6503C60.3606 30.4862 60.2466 30.3403 60.1072 30.2211C59.9208 30.0851 59.694 30.0157 59.4633 30.0243C58.897 30.0243 58.502 30.3761 58.502 30.9132C58.4966 31.0072 58.5131 31.1011 58.5504 31.1875C58.5877 31.2739 58.6446 31.3505 58.7166 31.411C58.8926 31.5677 59.0963 31.69 59.3173 31.7717L59.8672 32.0117C60.1951 32.1339 60.4968 32.3175 60.7561 32.5527C60.8937 32.6871 61.0015 32.8489 61.0726 33.0276C61.1437 33.2063 61.1765 33.398 61.1688 33.5902C61.1688 34.6467 60.3878 35.3503 59.3567 35.3503C59.1288 35.3599 58.9013 35.3239 58.6876 35.2443C58.4738 35.1647 58.2782 35.0431 58.1122 34.8867C57.8428 34.6048 57.6584 34.2527 57.5801 33.8708L58.1985 33.6994C58.2361 33.9719 58.3557 34.2266 58.5414 34.4296C58.6492 34.5368 58.7781 34.6205 58.92 34.6751C59.0619 34.7298 59.2137 34.7543 59.3656 34.747C60.1465 34.747 60.5161 34.1896 60.5161 33.6143C60.521 33.4888 60.4982 33.3637 60.4493 33.248C60.4003 33.1323 60.3264 33.0289 60.2329 32.9451C60.0265 32.7776 59.7945 32.6442 59.5459 32.5501L59.0316 32.3088C58.7516 32.1984 58.4935 32.0389 58.2696 31.8377C58.1389 31.7205 58.0357 31.5758 57.9674 31.414C57.8991 31.2522 57.8675 31.0773 57.8747 30.9018C57.8747 30.0129 58.5528 29.4249 59.4799 29.4249C59.8049 29.4115 60.126 29.5004 60.398 29.6789C60.6337 29.8413 60.8256 30.0594 60.9567 30.3138L60.4424 30.6503Z" fill="#FDCF33"/>
<path d="M61.8774 32.3838C61.8774 30.6758 63.207 29.4224 64.8554 29.4224C66.5037 29.4224 67.8333 30.6758 67.8333 32.3838C67.8333 33.1736 67.5195 33.931 66.9611 34.4895C66.4026 35.0479 65.6452 35.3617 64.8554 35.3617C64.0656 35.3617 63.3081 35.0479 62.7497 34.4895C62.1912 33.931 61.8774 33.1736 61.8774 32.3838ZM62.5289 32.3838C62.5289 33.0008 62.774 33.5925 63.2103 34.0288C63.6466 34.4651 64.2383 34.7102 64.8554 34.7102C65.4724 34.7102 66.0641 34.4651 66.5004 34.0288C66.9367 33.5925 67.1818 33.0008 67.1818 32.3838C67.1818 31.7668 66.9367 31.175 66.5004 30.7387C66.0641 30.3024 65.4724 30.0573 64.8554 30.0573C64.2383 30.0573 63.6466 30.3024 63.2103 30.7387C62.774 31.175 62.5289 31.7668 62.5289 32.3838Z" fill="#FDCF33"/>
<path d="M68.6143 35.2425L69.5667 29.2003L71.7636 34.0323L74.0037 29.1914L74.8926 35.2425H74.2412L73.7015 31.2601L71.7547 35.4825L69.8321 31.2601L69.2657 35.2425H68.6143Z" fill="#FDCF33"/>
<path d="M79.0624 30.1185H76.727V31.8176H78.9925V32.4183H76.727V34.6419H79.0624V35.2425H76.0908V29.5178H79.0624V30.1185Z" fill="#FDCF33"/>
<path d="M49.5071 29.5178H47.8854L45.6885 35.2425H47.2593L48.6842 31.2944L50.0747 35.2425H51.6621L49.5071 29.5178Z" fill="#FDCF33"/>
<rect x="69.1079" y="44.7046" width="2.27047" height="9.08187" rx="1.13523" transform="rotate(45 69.1079 44.7046)" fill="#173559"/>
<rect x="71.249" y="51.1262" width="2.27047" height="9.08187" rx="1.13523" transform="rotate(45 71.249 51.1262)" fill="#173559"/>
<path fill-rule="evenodd" clip-rule="evenodd" d="M22.0803 54.3449C20.6059 55.5339 17.5716 58.4541 17.2292 60.6228C16.8868 62.7916 17.0865 64.0947 17.2292 64.4752L15.6602 65.6166L16.3736 71.0384H19.5195C19.8546 68.1831 22.2825 65.9678 25.2278 65.9678C28.1731 65.9678 30.6009 68.1831 30.936 71.0384H33.6377H48.258C48.5932 68.1832 51.021 65.968 53.9663 65.968C56.9115 65.968 59.3394 68.1832 59.6745 71.0384H60.3192H67.1678L67.3104 66.758C67.4056 65.902 66.8824 63.9045 64.0288 62.763C61.1752 61.6216 57.4451 60.385 54.0208 59.9094C51.6903 58.007 45.7454 53.974 40.6089 53.0608C36.0952 52.2584 30.1278 52.5725 23.551 52.9186C22.6438 52.9663 21.7249 53.0147 20.7966 53.0608L22.0803 54.3449Z" fill="#D7E7FF"/>
<path d="M22.0803 54.3449L23.0551 55.5537L24.4 54.4691L23.1785 53.2471L22.0803 54.3449ZM17.2292 64.4752L18.1427 65.7309L19.0979 65.036L18.6832 63.9299L17.2292 64.4752ZM15.6602 65.6166L14.7467 64.3609L14.0002 64.9039L14.1206 65.8192L15.6602 65.6166ZM16.3736 71.0384L14.834 71.241L15.0117 72.5912H16.3736V71.0384ZM19.5195 71.0384V72.5912H20.9007L21.0617 71.2194L19.5195 71.0384ZM30.936 71.0384L29.3938 71.2194L29.5548 72.5912H30.936V71.0384ZM48.258 71.0384V72.5912H49.6392L49.8003 71.2195L48.258 71.0384ZM59.6745 71.0384L58.1323 71.2195L58.2933 72.5912H59.6745V71.0384ZM67.1678 71.0384V72.5912H68.6697L68.7197 71.0901L67.1678 71.0384ZM67.3104 66.758L65.7671 66.5866L65.7605 66.6463L65.7585 66.7063L67.3104 66.758ZM64.0288 62.763L63.4521 64.2048H63.4521L64.0288 62.763ZM54.0208 59.9094L53.0388 61.1124L53.376 61.3876L53.8072 61.4475L54.0208 59.9094ZM40.6089 53.0608L40.8807 51.532L40.6089 53.0608ZM23.551 52.9186L23.4694 51.3679L23.551 52.9186ZM20.7966 53.0608L20.7195 51.5099L17.2241 51.6836L19.6984 54.1587L20.7966 53.0608ZM18.763 60.865C18.8609 60.2454 19.4379 59.2602 20.4092 58.1272C21.3228 57.0615 22.3785 56.0993 23.0551 55.5537L21.1055 53.1362C20.3077 53.7796 19.1091 54.872 18.0514 56.1058C17.0514 57.2723 15.94 58.8316 15.6954 60.3806L18.763 60.865ZM18.6832 63.9299C18.6962 63.9647 18.6212 63.7335 18.599 63.1595C18.5782 62.6239 18.6064 61.8573 18.763 60.865L15.6954 60.3806C15.3344 62.6669 15.4971 64.2786 15.7752 65.0204L18.6832 63.9299ZM16.5736 66.8723L18.1427 65.7309L16.3157 63.2195L14.7467 64.3609L16.5736 66.8723ZM17.9131 70.8358L17.1997 65.414L14.1206 65.8192L14.834 71.241L17.9131 70.8358ZM19.5195 69.4856H16.3736V72.5912H19.5195V69.4856ZM25.2278 64.415C21.4857 64.415 18.4031 67.2291 17.9772 70.8574L21.0617 71.2194C21.3061 69.1372 23.0793 67.5207 25.2278 67.5207V64.415ZM32.4783 70.8574C32.0525 67.2291 28.9699 64.415 25.2278 64.415V67.5207C27.3762 67.5207 29.1494 69.1372 29.3938 71.2194L32.4783 70.8574ZM33.6377 69.4856H30.936V72.5912H33.6377V69.4856ZM48.258 69.4856H33.6377V72.5912H48.258V69.4856ZM53.9663 64.4152C50.2242 64.4152 47.1417 67.2292 46.7158 70.8574L49.8003 71.2195C50.0447 69.1373 51.8178 67.5208 53.9663 67.5208V64.4152ZM61.2168 70.8574C60.7908 67.2292 57.7083 64.4152 53.9663 64.4152V67.5208C56.1147 67.5208 57.8879 69.1373 58.1323 71.2195L61.2168 70.8574ZM60.3192 69.4856H59.6745V72.5912H60.3192V69.4856ZM67.1678 69.4856H60.3192V72.5912H67.1678V69.4856ZM65.7585 66.7063L65.6158 70.9867L68.7197 71.0901L68.8624 66.8098L65.7585 66.7063ZM63.4521 64.2048C64.6078 64.6671 65.1809 65.2533 65.4645 65.6999C65.6108 65.9304 65.6908 66.1401 65.7314 66.3049C65.7518 66.3875 65.7616 66.4561 65.7656 66.5076C65.7697 66.5606 65.767 66.5871 65.7671 66.5866L68.8538 66.9295C69.0333 65.3137 68.0438 62.6965 64.6055 61.3212L63.4521 64.2048ZM53.8072 61.4475C57.0525 61.8982 60.6497 63.0838 63.4521 64.2048L64.6055 61.3212C61.7008 60.1593 57.8377 58.8718 54.2344 58.3714L53.8072 61.4475ZM40.3371 54.5897C42.6562 55.002 45.2502 56.1434 47.6062 57.4678C49.9456 58.7829 51.9407 60.216 53.0388 61.1124L55.0027 58.7065C53.7704 57.7005 51.6278 56.1658 49.1281 54.7606C46.6448 53.3646 43.6981 52.0328 40.8807 51.532L40.3371 54.5897ZM23.6327 54.4693C30.2783 54.1195 36.039 53.8256 40.3371 54.5897L40.8807 51.532C36.1513 50.6912 29.9773 51.0254 23.4694 51.3679L23.6327 54.4693ZM20.8737 54.6118C21.8046 54.5655 22.7257 54.517 23.6327 54.4693L23.4694 51.3679C22.5618 51.4157 21.6452 51.4639 20.7195 51.5099L20.8737 54.6118ZM23.1785 53.2471L21.8948 51.963L19.6984 54.1587L20.9821 55.4428L23.1785 53.2471Z" fill="#173559"/>
<circle cx="25.2454" cy="71.7156" r="2.279" fill="#D7E7FF" stroke="#173559" stroke-width="3.10566"/>
<circle cx="53.9793" cy="71.7178" r="2.279" fill="#D7E7FF" stroke="#173559" stroke-width="3.10566"/>
</g>
</svg>
