<svg width="102" height="101" viewBox="0 0 102 101" fill="none" xmlns="http://www.w3.org/2000/svg">
<mask id="mask0" mask-type="alpha" maskUnits="userSpaceOnUse" x="0" y="0" width="102" height="101">
<circle cx="51.2496" cy="50.4542" r="50.4542" fill="#F4F6F8"/>
</mask>
<g mask="url(#mask0)">
<circle cx="51.2496" cy="50.4542" r="50.4542" fill="#F4F6F8"/>
<mask id="mask1" mask-type="alpha" maskUnits="userSpaceOnUse" x="-1" y="-3" width="97" height="97">
<circle cx="47.2955" cy="45.5" r="48.1294" fill="white"/>
</mask>
<g mask="url(#mask1)">
<path d="M39.67 26.7208L36.6857 24.0681C34.5343 22.1557 35.887 18.5979 38.7655 18.5979H45.8143C47.8509 18.5979 49.3452 20.5118 48.8513 22.4876L47.793 26.7208H39.67Z" fill="#FDCF33" fill-opacity="0.67"/>
<path d="M52.8605 26.7209L53.4703 26.2635C55.877 24.4584 54.6004 20.6287 51.592 20.6287H49.6224C47.2509 20.6287 45.083 21.9685 44.0224 24.0896L42.7068 26.7209H52.8605Z" fill="#FDCF33" fill-opacity="0.44"/>
<path fill-rule="evenodd" clip-rule="evenodd" d="M30.7979 29.0587C28.8703 30.6132 24.9033 34.4309 24.4556 37.2663C24.008 40.1016 24.2691 41.8053 24.4556 42.3028L22.4043 43.7951L23.1828 45.2627C23.2778 45.4417 23.5174 45.4884 23.6787 45.3659C24.1034 45.0435 24.9651 44.4444 26.2637 43.7951C28.1934 42.8302 30.7979 41.7545 34.9475 41.7545C39.097 41.7545 42.1013 42.3928 45.5609 44.649C49.0205 46.9053 52.3149 52.8131 52.3149 52.8131H61.0084C61.2783 47.7259 65.4887 43.684 70.6432 43.684C75.7977 43.684 80.0082 47.7259 80.2781 52.8131H85.885L86.0715 45.2873C86.1959 44.1681 85.5119 41.5566 81.7812 40.0643C80.9686 39.7393 80.1932 39.4084 79.4311 39.0831C76.6941 37.915 74.1283 36.82 70.6265 36.3336C67.5798 33.8465 59.8074 28.5737 53.0922 27.3799C47.4445 26.3758 41.4211 26.7088 33.6936 27.1359C32.2328 27.2167 30.7111 27.3008 29.1196 27.3799L30.7979 29.0587Z" fill="#173559"/>
<path d="M24.4556 37.2663L22.9096 37.0222L24.4556 37.2663ZM30.7979 29.0587L31.7804 30.2771L33.1361 29.1838L31.9048 27.9521L30.7979 29.0587ZM24.4556 42.3028L25.3764 43.5685L26.3393 42.8681L25.9212 41.7532L24.4556 42.3028ZM22.4043 43.7951L21.4835 42.5293L20.385 43.3285L21.0216 44.5286L22.4043 43.7951ZM23.1828 45.2627L24.5656 44.5292L24.5656 44.5292L23.1828 45.2627ZM23.6787 45.3659L24.6252 46.6126L24.6252 46.6126L23.6787 45.3659ZM26.2637 43.7951L26.9637 45.195H26.9637L26.2637 43.7951ZM45.5609 44.649L44.7059 45.9601L45.5609 44.649ZM52.3149 52.8131L50.9479 53.5754L51.3956 54.3784H52.3149V52.8131ZM61.0084 52.8131V54.3784H62.4928L62.5714 52.8961L61.0084 52.8131ZM80.2781 52.8131L78.715 52.8961L78.7937 54.3784H80.2781V52.8131ZM85.885 52.8131V54.3784H87.4119L87.4497 52.8519L85.885 52.8131ZM86.0715 45.2873L84.5159 45.1145L84.5084 45.1813L84.5068 45.2486L86.0715 45.2873ZM81.7812 40.0643L82.3625 38.6111V38.6111L81.7812 40.0643ZM79.4311 39.0831L80.0455 37.6435L79.4311 39.0831ZM70.6265 36.3336L69.6367 37.5461L69.9766 37.8236L70.4112 37.884L70.6265 36.3336ZM53.0922 27.3799L53.3661 25.8388L53.0922 27.3799ZM33.6936 27.1359L33.6072 25.5731L33.6936 27.1359ZM29.1196 27.3799L29.0419 25.8166L25.5186 25.9916L28.0126 28.4865L29.1196 27.3799ZM26.0017 37.5104C26.1516 36.5612 26.9859 35.1872 28.2601 33.7009C29.4761 32.2825 30.8778 31.0051 31.7804 30.2771L29.8153 27.8403C28.7904 28.6668 27.2448 30.0755 25.8835 31.6634C24.5804 33.1835 23.2074 35.1361 22.9096 37.0222L26.0017 37.5104ZM25.9212 41.7532C25.9253 41.7641 25.8946 41.6772 25.8597 41.458C25.827 41.253 25.7961 40.9675 25.7819 40.6006C25.7535 39.8678 25.7925 38.8353 26.0017 37.5104L22.9096 37.0222C22.4432 39.976 22.667 41.9907 22.9901 42.8524L25.9212 41.7532ZM23.3251 45.0608L25.3764 43.5685L23.5349 41.037L21.4835 42.5293L23.3251 45.0608ZM24.5656 44.5292L23.787 43.0615L21.0216 44.5286L21.8001 45.9962L24.5656 44.5292ZM22.7323 44.1192C23.2988 43.6892 24.1846 43.8111 24.5656 44.5292L21.8001 45.9962C22.3709 47.0722 23.736 47.2876 24.6252 46.6126L22.7323 44.1192ZM25.5637 42.3951C24.1686 43.0926 23.225 43.7452 22.7323 44.1192L24.6252 46.6126C24.9819 46.3417 25.7616 45.7961 26.9637 45.195L25.5637 42.3951ZM34.9475 40.1892C30.4808 40.1892 27.6331 41.3604 25.5637 42.3951L26.9637 45.195C28.7538 44.3 31.1149 43.3197 34.9475 43.3197V40.1892ZM46.4159 43.338C42.6417 40.8766 39.3197 40.1892 34.9475 40.1892V43.3197C38.8744 43.3197 41.5608 43.909 44.7059 45.9601L46.4159 43.338ZM52.3149 52.8131C53.682 52.0508 53.6819 52.0506 53.6817 52.0504C53.6817 52.0503 53.6815 52.05 53.6814 52.0498C53.6812 52.0494 53.6809 52.0489 53.6805 52.0482C53.6798 52.047 53.6789 52.0454 53.6779 52.0435C53.6757 52.0396 53.6727 52.0343 53.6689 52.0276C53.6614 52.0143 53.6507 51.9954 53.637 51.9713C53.6095 51.923 53.5697 51.8538 53.5185 51.766C53.4161 51.5905 53.2674 51.3401 53.0788 51.0338C52.7021 50.4224 52.1625 49.5826 51.5091 48.6676C50.2362 46.8851 48.4066 44.6362 46.4159 43.338L44.7059 45.9601C46.1749 46.9181 47.7222 48.7513 48.9615 50.4868C49.5641 51.3307 50.0643 52.1089 50.4134 52.6757C50.5877 52.9586 50.7235 53.1874 50.8147 53.3438C50.8603 53.4219 50.8947 53.4818 50.9172 53.5212C50.9284 53.5409 50.9366 53.5555 50.9418 53.5646C50.9444 53.5692 50.9462 53.5724 50.9472 53.5742C50.9477 53.5751 50.948 53.5757 50.9481 53.5759C50.9482 53.576 50.9482 53.576 50.9481 53.5759C50.9481 53.5759 50.948 53.5758 50.948 53.5758C50.948 53.5756 50.9479 53.5754 52.3149 52.8131ZM61.0084 51.2479H52.3149V54.3784H61.0084V51.2479ZM62.5714 52.8961C62.7975 48.6355 66.3254 45.2493 70.6432 45.2493V42.1188C64.6521 42.1188 59.7591 46.8164 59.4454 52.7302L62.5714 52.8961ZM70.6432 45.2493C74.961 45.2493 78.489 48.6355 78.715 52.8961L81.8411 52.7302C81.5274 46.8164 76.6344 42.1188 70.6432 42.1188V45.2493ZM85.885 51.2479H80.2781V54.3784H85.885V51.2479ZM84.5068 45.2486L84.3202 52.7744L87.4497 52.8519L87.6363 45.3261L84.5068 45.2486ZM81.1999 41.5176C84.3413 42.7742 84.5551 44.761 84.5159 45.1145L87.6272 45.4602C87.8366 43.5752 86.6825 40.3391 82.3625 38.6111L81.1999 41.5176ZM78.8167 40.5227C79.5766 40.847 80.3681 41.1849 81.1999 41.5176L82.3625 38.6111C81.5691 38.2937 80.8098 37.9697 80.0455 37.6435L78.8167 40.5227ZM70.4112 37.884C73.6842 38.3385 76.0779 39.3538 78.8167 40.5227L80.0455 37.6435C77.3104 36.4762 74.5725 35.3014 70.8419 34.7833L70.4112 37.884ZM52.8182 28.9209C55.9247 29.4732 59.3689 30.9939 62.468 32.7362C65.5506 34.4691 68.1811 36.3578 69.6367 37.5461L71.6164 35.1211C70.0253 33.8223 67.2462 31.8311 64.0021 30.0073C60.7746 28.193 56.9749 26.4804 53.3661 25.8388L52.8182 28.9209ZM33.78 28.6988C41.5576 28.2689 47.3851 27.9551 52.8182 28.9209L53.3661 25.8388C47.5039 24.7966 41.2845 25.1487 33.6072 25.5731L33.78 28.6988ZM29.1973 28.9432C30.7938 28.8638 32.3197 28.7795 33.78 28.6988L33.6072 25.5731C32.1459 25.6539 30.6284 25.7377 29.0419 25.8166L29.1973 28.9432ZM31.9048 27.9521L30.2266 26.2733L28.0126 28.4865L29.6909 30.1653L31.9048 27.9521Z" fill="#173559"/>
<path d="M31.54 36.8739L35.6015 30.7818C40.0014 30.4433 48.09 29.9695 52.9637 30.7818C57.8375 31.594 62.7789 36.1971 65.1481 37.8893L31.54 36.8739Z" fill="white"/>
<path d="M35.6015 30.7818L35.4815 29.2212C35.0019 29.258 34.5659 29.5134 34.2992 29.9135L35.6015 30.7818ZM31.54 36.8739L30.2377 36.0056C29.9222 36.4789 29.8882 37.086 30.149 37.5915C30.4098 38.097 30.9242 38.4212 31.4928 38.4384L31.54 36.8739ZM65.1481 37.8893L65.1008 39.4539C65.7897 39.4747 66.4111 39.0425 66.6313 38.3895C66.8515 37.7364 66.6187 37.0162 66.0579 36.6157L65.1481 37.8893ZM52.9637 30.7818L52.7064 32.3257L52.9637 30.7818ZM34.2992 29.9135L30.2377 36.0056L32.8424 37.7421L36.9038 31.65L34.2992 29.9135ZM31.4928 38.4384L65.1008 39.4539L65.1954 36.3248L31.5873 35.3094L31.4928 38.4384ZM66.0579 36.6157C65.5023 36.2188 64.7973 35.652 63.8942 34.946C63.0141 34.2578 61.9908 33.474 60.8786 32.7135C58.6864 31.2145 56.0025 29.7014 53.2211 29.2378L52.7064 32.3257C54.7987 32.6744 57.0224 33.869 59.1116 35.2976C60.1402 36.0009 61.1011 36.7359 61.9661 37.4122C62.8082 38.0705 63.6094 38.7137 64.2383 39.163L66.0579 36.6157ZM53.2211 29.2378C48.1261 28.3887 39.8418 28.8857 35.4815 29.2212L35.7215 32.3424C40.161 32.0009 48.0538 31.5503 52.7064 32.3257L53.2211 29.2378Z" fill="white"/>
<circle cx="70.65" cy="53.3331" r="5.18878" fill="#E6EBF2" stroke="#173559" stroke-width="3.13046"/>
<path d="M61.2903 54.3225H52.4842L39.647 25.3L44.1415 25.0835L48.75 25.2703L61.2903 54.3225Z" fill="#FDCF33"/>
<circle cx="34.9451" cy="62.0161" r="14.8374" fill="#D7E7FF" stroke="#173559" stroke-width="3.13046"/>
<path d="M26.7432 61.701L32.8941 66.8268L43.1458 57.6003" stroke="#173559" stroke-width="3.12736" stroke-linecap="round"/>
</g>
</g>
</svg>
