<svg width="100" height="100" viewBox="0 0 100 100" fill="none" xmlns="http://www.w3.org/2000/svg">
<circle cx="50" cy="50" r="50" fill="#F4F6F8"/>
<path d="M24.2051 24.3396C24.2051 22.0668 26.0475 20.2244 28.3203 20.2244H51.2795C53.5522 20.2244 55.3947 22.0668 55.3947 24.3396V28.3994H24.2051V24.3396Z" fill="#173559"/>
<path d="M24.2051 27.0547C24.2051 23.2824 27.2631 20.2244 31.0354 20.2244H48.5595C52.3318 20.2244 55.3898 23.2824 55.3898 27.0547V64.4455C55.3898 66.7183 53.5474 68.5607 51.2746 68.5607H28.3203C26.0475 68.5607 24.2051 66.7183 24.2051 64.4455V27.0547Z" fill="#173559"/>
<path d="M27.292 25.2214C27.292 24.085 28.2132 23.1638 29.3496 23.1638H50.3291C51.4655 23.1638 52.3867 24.085 52.3867 25.2214V63.0563C52.3867 64.1927 51.4655 65.1139 50.3291 65.1139H29.3496C28.2132 65.1139 27.292 64.1927 27.292 63.0563V25.2214Z" fill="white"/>
<path d="M28.5562 46.4502C28.5562 47.5866 29.4774 48.5078 30.6138 48.5078H48.9806C50.117 48.5078 51.0382 47.5866 51.0382 46.4502V26.6329C51.0382 25.4965 50.117 24.5753 48.9806 24.5753H30.6138C29.4774 24.5753 28.5562 25.4966 28.5562 26.6329V46.4502Z" fill="#FDCF33"/>
<path d="M26.1631 62.032H55.2819V67.1928H26.1631V62.032Z" fill="#173559"/>
<rect width="21.7568" height="2.17568" rx="1.08784" transform="matrix(1 0 0 -1 28.5562 53.585)" fill="#D7E7FF"/>
<rect width="10.1532" height="2.17568" rx="1.08784" transform="matrix(1 0 0 -1 28.5562 57.9363)" fill="#D7E7FF"/>
<rect x="38.0122" y="65.1143" width="5.17951" height="1.7265" rx="0.863252" fill="#F6F6F6"/>
<path d="M38.5648 35.5726C38.0961 35.1039 38.0961 34.3439 38.5648 33.8752C39.0336 33.4065 39.7935 33.4065 40.2622 33.8752L41.9596 35.5726C42.4284 36.0413 42.4284 36.8013 41.9596 37.27C41.4909 37.7387 40.731 37.7387 40.2622 37.27L38.5648 35.5726Z" fill="#173559"/>
<path d="M37.0078 43.8905C36.3421 43.878 35.8094 43.3341 35.8108 42.6683C35.8123 41.9866 36.372 41.4384 37.0535 41.4512L39.0625 41.4888C39.7282 41.5013 40.2609 42.0452 40.2595 42.7111C40.2581 43.3927 39.6983 43.9409 39.0168 43.9281L37.0078 43.8905Z" fill="#173559"/>
<path d="M48.0478 36.1596C47.7413 36.7223 47.0314 36.922 46.4765 36.6016C45.9408 36.2923 45.7495 35.6123 46.0453 35.069L47.2514 32.8545C47.5578 32.2918 48.2677 32.0921 48.8226 32.4124C49.3583 32.7217 49.5496 33.4018 49.2538 33.945L48.0478 36.1596Z" fill="#173559"/>
<path d="M53.7984 70.3767L56.8406 72.4829C59.0166 73.9893 61.7642 74.4123 64.2926 73.6301L68.3741 76.887C69.8942 78.0999 72.0558 78.0832 73.5569 76.847L79.1118 72.2724C81.2185 70.5375 81.0837 67.2699 78.8413 65.7144L76.7041 64.2319L76.2354 60.881C75.9949 59.1613 75.4287 57.5033 74.5672 55.9957L73.1686 53.548C70.6329 49.1105 65.2146 47.2205 60.469 49.118L55.3118 51.1802L49.922 41.8447C48.9948 40.2388 46.9413 39.6885 45.3353 40.6157C43.7507 41.5306 43.1903 43.5459 44.0753 45.1475L51.8232 59.1685C48.4457 61.2017 48.16 65.9913 51.2718 68.4116L53.7984 70.3767Z" fill="#D7E7FF"/>
<path d="M56.8406 72.4829L57.8126 71.0789L56.8406 72.4829ZM53.7984 70.3767L52.75 71.7246L52.7874 71.7537L52.8264 71.7806L53.7984 70.3767ZM51.2718 68.4116L50.2234 69.7595L50.2234 69.7595L51.2718 68.4116ZM51.8232 59.1685L52.7039 60.6315L54.1136 59.7828L53.3178 58.3426L51.8232 59.1685ZM44.0753 45.1475L42.5808 45.9734L42.5808 45.9734L44.0753 45.1475ZM55.3118 51.1802L53.833 52.034C54.2575 52.7692 55.1576 53.0809 55.9458 52.7657L55.3118 51.1802ZM60.469 49.118L61.103 50.7036L60.469 49.118ZM73.1686 53.548L71.686 54.3952L71.686 54.3952L73.1686 53.548ZM74.5672 55.9957L73.0846 56.8429L74.5672 55.9957ZM76.2354 60.881L74.5443 61.1175L74.5443 61.1175L76.2354 60.881ZM76.7041 64.2319L75.013 64.4685L75.1166 65.2089L75.7309 65.635L76.7041 64.2319ZM68.3741 76.887L69.4392 75.5523L69.4392 75.5523L68.3741 76.887ZM64.2926 73.6301L65.3576 72.2954L64.6513 71.7317L63.7879 71.9988L64.2926 73.6301ZM78.8413 65.7144L77.868 67.1174L77.868 67.1174L78.8413 65.7144ZM79.1118 72.2724L80.1973 73.5905L80.1973 73.5905L79.1118 72.2724ZM73.5569 76.847L74.6425 78.1651L74.6425 78.1651L73.5569 76.847ZM57.8126 71.0789L54.7703 68.9727L52.8264 71.7806L55.8687 73.8868L57.8126 71.0789ZM54.8467 69.0288L52.3202 67.0637L50.2234 69.7595L52.75 71.7246L54.8467 69.0288ZM53.3178 58.3426L45.5699 44.3216L42.5808 45.9734L50.3286 59.9944L53.3178 58.3426ZM48.4431 42.6985L53.833 52.034L56.7906 50.3264L51.4008 40.9909L48.4431 42.6985ZM55.9458 52.7657L61.103 50.7036L59.835 47.5325L54.6778 49.5947L55.9458 52.7657ZM71.686 54.3952L73.0846 56.8429L76.0498 55.1485L74.6512 52.7008L71.686 54.3952ZM74.5443 61.1175L75.013 64.4685L78.3953 63.9954L77.9266 60.6444L74.5443 61.1175ZM69.4392 75.5523L65.3576 72.2954L63.2275 74.9649L67.3091 78.2217L69.4392 75.5523ZM75.7309 65.635L77.868 67.1174L79.8145 64.3113L77.6774 62.8289L75.7309 65.635ZM78.0263 70.9542L72.4714 75.5289L74.6425 78.1651L80.1973 73.5905L78.0263 70.9542ZM77.868 67.1174C79.1799 68.0275 79.2588 69.9392 78.0263 70.9542L80.1973 73.5905C83.1782 71.1357 82.9874 66.5122 79.8145 64.3113L77.868 67.1174ZM73.0846 56.8429C73.8384 58.162 74.3338 59.6128 74.5443 61.1175L77.9266 60.6444C77.656 58.7098 77.019 56.8445 76.0498 55.1485L73.0846 56.8429ZM45.5699 44.3216C45.135 43.5346 45.4104 42.5442 46.1891 42.0946L44.4815 39.1369C42.091 40.5171 41.2457 43.5573 42.5808 45.9734L45.5699 44.3216ZM61.103 50.7036C65.0577 49.1223 69.5729 50.6973 71.686 54.3952L74.6512 52.7008C71.6929 47.5237 65.3715 45.3187 59.835 47.5325L61.103 50.7036ZM52.3202 67.0637C50.1546 65.3794 50.3535 62.0464 52.7039 60.6315L50.9425 57.7055C46.5379 60.3571 46.1653 66.6031 50.2234 69.7595L52.3202 67.0637ZM46.1891 42.0946C46.9783 41.6389 47.9875 41.9093 48.4431 42.6985L51.4008 40.9909C50.002 38.5683 46.9042 37.7382 44.4815 39.1369L46.1891 42.0946ZM67.3091 78.2217C69.4598 79.9379 72.5184 79.9143 74.6425 78.1651L72.4714 75.5289C71.5931 76.2521 70.3285 76.2619 69.4392 75.5523L67.3091 78.2217ZM55.8687 73.8868C58.4759 75.6918 61.7679 76.1986 64.7973 75.2614L63.7879 71.9988C61.7606 72.626 59.5574 72.2869 57.8126 71.0789L55.8687 73.8868Z" fill="#173559"/>
</svg>
