<svg viewBox="0 0 656 214" xmlns="http://www.w3.org/2000/svg" xmlns:xlink="http://www.w3.org/1999/xlink"><clipPath id="a"><path d="m522.09 162.72s16.32-1.13 30.51.41l3.16-7.78s-17.16-1-24.29.28a50.72 50.72 0 0 0 -9.38 7.09z"/></clipPath><clipPath id="b"><ellipse cx="79.29" cy="191.5" rx="1.57" ry="6.63"/></clipPath><clipPath id="c"><ellipse cx="115.18" cy="199.3" rx="4.99" ry="7"/></clipPath><clipPath id="d"><path d="m105 161.59a.13.13 0 0 0 -.11.2l5.2 8.42s1.07 1.72 5.36 1.57c4-.15 29.71-.4 32.45-.41a.07.07 0 0 0 0-.13l-14.85-9.24a1.08 1.08 0 0 0 -.53-.15c-1.84-.02-12.9-.3-27.52-.26z"/></clipPath><g fill="#365fa1"><path d="m27.52 91.13a.33.33 0 0 0 .17 0c.88-.35 26.43-12.58 34.23-16.32a4.54 4.54 0 0 1 3.26-.26l13.31 3.92c-8.07 5.17-23.3 13.53-23.49 13.62a.47.47 0 0 0 -.19.64.47.47 0 0 0 .41.24.46.46 0 0 0 .23-.06c1-.54 24.57-13.45 28.18-17.06a7.62 7.62 0 0 1 4.11-2 28.81 28.81 0 0 1 -2.36 5.86 3.68 3.68 0 0 0 -.29 3.47 6.15 6.15 0 0 0 2.29 2.82c1.24.83-.19 4.44-.79 5.64l-1.41 7h.62c2.7-.2 5.79 0 6.1.61 0 .08-.05.27-.24.49-4.59 5.19-12.14 5.6-14.64 5.54.69-1.08 1.75-3 1.38-4.16a1.28 1.28 0 0 0 -.84-.84c-1-.32-1.08-2-1.21-3.73a16.6 16.6 0 0 0 -.36-2.8l-.11-.47c-.49-2-1-4-2.17-4.45a1.7 1.7 0 0 0 -1.56.27c-1.91 1.28-4.58 5.18-4.58 7.26 0 1.65-1.8 3.4-4.69 4.56-3.37 1.34-8.46 11.07-9 12-3.91 3.81-14.38 13.68-16.85 14.45a.48.48 0 0 0 -.31.59.47.47 0 0 0 .45.33.32.32 0 0 0 .14 0c3.2-1 16.71-14.17 17.28-14.73l.09-.13c1-2 5.75-10.53 8.5-11.63 3.31-1.32 5.29-3.35 5.29-5.43 0-1.62 2.33-5.26 4.15-6.47.43-.29.63-.21.7-.18.73.28 1.23 2.31 1.59 3.8l.12.47a17.46 17.46 0 0 1 .33 2.64c.15 2 .3 4 1.85 4.56a.33.33 0 0 1 .24.23c.25.77-.86 2.83-1.72 4l-.49.68.83.06c.42 0 10.4.78 16.24-5.83.61-.69.54-1.21.38-1.53-.65-1.32-4.51-1.27-6.39-1.17l1.16-5.63c.38-.77 2.54-5.39.44-6.79a5.21 5.21 0 0 1 -1.9-2.39 2.79 2.79 0 0 1 .19-2.62 30.73 30.73 0 0 0 2.56-6.37.76.76 0 0 0 0-.15 13.33 13.33 0 0 1 4.05.32l17.44 4.21c.28.07 6.93 1.62 9.79 1.21s9.8 1.25 14.4 3c2.54.95 4.29 1.77 5.83 2.5a42.92 42.92 0 0 0 4 1.71 33.18 33.18 0 0 0 13 1.55l25.74-3.12a38.3 38.3 0 0 0 5.38-1c3.12-.94 12.6-3.78 20.86 0h.11a40.18 40.18 0 0 0 11.31.37c5-.71 13.41 2.91 13.52 3l1.06.39c.09 0 8.57 2 19.09 4.34v19.38a.47.47 0 0 0 .94 0v-28.16h3.73v-2.5a.11.11 0 0 1 .11-.12h.38l1.24-5.52 1.27 5.52h.37a.1.1 0 0 1 .09.1v2.45h3.54a.18.18 0 0 1 .18.18v22a.47.47 0 1 0 .94 0v-10.69c13.95 2.84 23.16 4.28 27.41 4.28h1.14a.47.47 0 1 0 -.08-.93c-3.42.3-13.28-1.16-28.47-4.26v-10.4a1.12 1.12 0 0 0 -1.12-1.12h-2.57v-1.51a1 1 0 0 0 -.65-1l-2.15-8.77-2 8.77a1 1 0 0 0 -.66 1v1.49h-2.77a.92.92 0 0 0 -.92.92v7.84c-10.42-2.28-18.78-4.28-18.82-4.28l-1-.36c-.35-.15-8.73-3.77-14-3a39.32 39.32 0 0 1 -10.94-.36c-8.57-3.87-18.28-1-21.47 0a36.85 36.85 0 0 1 -5.22 1l-25.74 3.07a32.75 32.75 0 0 1 -12.57-1.5 41.74 41.74 0 0 1 -3.86-1.68c-1.56-.74-3.32-1.56-5.9-2.53-4.8-1.8-11.92-3.45-14.86-3-2.69.37-9.38-1.18-9.44-1.2l-17.46-4.21c-.22-.06-6.28-1.63-10 2.12a25.52 25.52 0 0 1 -3.53 2.63.46.46 0 0 0 -.21-.14l-13.81-4.06a5.44 5.44 0 0 0 -3.93.31c-16.08 7.7-33.52 16.08-34.18 16.3a.48.48 0 0 0 -.26.61.49.49 0 0 0 .44.3z"/><path d="m156.69 127.11a.49.49 0 0 0 .48-.48v-33.11h-25.17a.53.53 0 0 0 -.12 0l-4.37 1.92v2.73h-2.81a.43.43 0 0 0 -.4-.06l-5.51 1.91v29.48a.47.47 0 0 0 .94 0v-28.77l4.27-1.47v34.58a.47.47 0 0 0 .94 0v-34.69h7.66v-4.69h23.65v7.94h-20.6a.47.47 0 1 0 0 .94h20.6v5.08h-20.6a.47.47 0 1 0 0 .94h20.6v5.08h-20.6a.47.47 0 1 0 0 .94h20.6v5.08h-20.6a.48.48 0 0 0 -.48.47.49.49 0 0 0 .48.48h20.6v5.22a.48.48 0 0 0 .44.48zm-28.21-28.9v-2.11l3.15-1.39v3.5z"/><path d="m184.18 90.15v17.52a.48.48 0 0 0 .48.47.47.47 0 0 0 .47-.47v-16.58h6.56v6.23h14v9a.47.47 0 1 0 .94 0v-9.95h-14v-6.22z"/><path d="m279.16 103.28a.46.46 0 0 0 -.21.14l-3.75 2.38v20.3a.47.47 0 1 0 .94 0v-19.78l2.68-1.71v17.18a.47.47 0 1 0 .94 0v-17.79h21.61a.47.47 0 0 0 0-.94h-21.86z"/><path d="m243.81 122.27a.48.48 0 0 0 .47-.48v-26.33h-24.83v17.37h-50.75v25.31a.47.47 0 0 0 .94 0v-24.37h50a.41.41 0 0 0 .25.08.41.41 0 0 0 .24-.08h12.32v14a.47.47 0 0 0 .94 0v-15h-13v-16.37h23v25.39a.48.48 0 0 0 .42.48z"/><path d="m497.3 25.1 3.77.11c10.75.34 17.74.49 22.24.49 5.75 0 7.46-.24 7.79-.63a1.31 1.31 0 0 0 .35-1.41c-.38-.89-2-1.14-2.64-1.2a2.3 2.3 0 0 0 -.69-1.31 3.47 3.47 0 0 0 -2.11-.82 6.42 6.42 0 0 0 -10.92-2.62 4.74 4.74 0 0 0 -3.6.84.47.47 0 0 0 -.07.66.47.47 0 0 0 .66.08 4 4 0 0 1 3.07-.62l.29.07.18-.22a5.49 5.49 0 0 1 9.51 2.16.69.69 0 0 0 0 .13.44.44 0 0 0 .11.27 6.25 6.25 0 0 1 .09 1 .47.47 0 1 0 .94 0 6.3 6.3 0 0 0 0-.75 2.37 2.37 0 0 1 1.27.54 1.47 1.47 0 0 1 .44 1.15.47.47 0 0 0 .47.47.45.45 0 0 0 .23-.07c.85.07 1.85.34 2 .64 0 .08-.05.25-.14.38-1.41.75-21.71.1-29.35-.14l-3.78-.11a.36.36 0 0 1 -.33-.26.53.53 0 0 1 .07-.44 1.88 1.88 0 0 1 1.2-.48l1.21-.36.09-.18a3.09 3.09 0 0 1 2.33-1.71h.28l.13-.25a3.15 3.15 0 0 1 3-1.53c2.51.14 2.89 2 2.9 2l.1.54.52-.17c2-.69 4.43 2.13 4.45 2.16a.48.48 0 0 0 .36.17.41.41 0 0 0 .3-.11.46.46 0 0 0 .06-.66c-.1-.13-2.49-3-5-2.57a3.81 3.81 0 0 0 -3.23-2.3h-.1-.4a4.16 4.16 0 0 0 -3.7 1.82 3.94 3.94 0 0 0 -2.77 2l-.76.24a2.43 2.43 0 0 0 -1.76.84 1.44 1.44 0 0 0 -.23 1.17 1.28 1.28 0 0 0 1.17.99z"/><path d="m64 53.82c4.51 0 11.49-.15 22.25-.49l3.75-.12a1.25 1.25 0 0 0 1.22-1 1.47 1.47 0 0 0 -.22-1.21 2.36 2.36 0 0 0 -1.69-.83l-.84-.17a4 4 0 0 0 -2.78-2 4.16 4.16 0 0 0 -3.69-1.89h-.14-.28a6.53 6.53 0 0 0 -3.47 1.14.51.51 0 0 1 -.42.1 4.59 4.59 0 0 0 -2.4.16 3.34 3.34 0 0 0 -3.06-1.7 6.41 6.41 0 0 0 -10.93 2.61 3.45 3.45 0 0 0 -2.11.82 2.3 2.3 0 0 0 -.69 1.31c-.67.06-2.27.31-2.65 1.2a1.3 1.3 0 0 0 .36 1.41c.31.42 2.01.66 7.79.66zm-5.3-2.31a.46.46 0 0 0 .23.06.47.47 0 0 0 .47-.47 1.52 1.52 0 0 1 .41-1.1 2.28 2.28 0 0 1 1.27-.53 6.16 6.16 0 0 0 0 .75.48.48 0 0 0 .95 0 5.15 5.15 0 0 1 .09-1 .54.54 0 0 0 .11-.27.51.51 0 0 0 0-.13 5.47 5.47 0 0 1 9.5-2.16l.17.2h.27a2.39 2.39 0 0 1 2.26 1.07 11.21 11.21 0 0 0 -2 1.08.46.46 0 0 0 -.12.65.45.45 0 0 0 .65.12s2.76-1.88 4.55-1.43a1.42 1.42 0 0 0 1.15-.35 5.85 5.85 0 0 1 3.21-1 3.18 3.18 0 0 1 3.13 1.58l.12.26h.29c1.48 0 2.31 1.69 2.32 1.7l.09.19 1.29.37a1.7 1.7 0 0 1 1.12.46.54.54 0 0 1 .07.44.33.33 0 0 1 -.33.26l-3.77.12c-7.64.24-27.94.88-29.29.19-.16-.19-.24-.35-.2-.43.12-.3 1.11-.57 1.96-.63z"/><path d="m233.9 37.55h6l20.73-.13h2.76a.69.69 0 0 0 .5-.23l.17-.25v-.2a2 2 0 0 0 -1.67-1.6h-.39a4.05 4.05 0 0 0 -3-1.64 4.44 4.44 0 0 0 -2.37.38 3.89 3.89 0 0 0 -3.18-1.88h-.24a4.67 4.67 0 0 0 -1.51.17 7.07 7.07 0 0 0 -4.88-2.47 6.74 6.74 0 0 0 -5.73 1.86c-4.12-.12-7.6 1.91-8.31 4.93a.8.8 0 0 0 .17.69 1.21 1.21 0 0 0 .95.37zm8-5a11 11 0 0 1 1.75.32.46.46 0 0 0 .57-.33.47.47 0 0 0 -.33-.58 12.87 12.87 0 0 0 -1.55-.3 6.33 6.33 0 0 1 4.38-1c2.88.3 5.05 2.13 4.85 4.07a.47.47 0 0 0 .42.52h.05a.48.48 0 0 0 .47-.42 3.46 3.46 0 0 0 -.31-1.79 3.7 3.7 0 0 1 .95-.07h.18c1.49.16 2.66 1.11 2.56 2.07a.47.47 0 0 0 .41.52h.05a.47.47 0 0 0 .47-.42 1.41 1.41 0 0 0 0-.29 3.5 3.5 0 0 1 2-.37 3.28 3.28 0 0 1 2.14 1l-.25.19a.47.47 0 0 0 .68.66 1 1 0 0 1 .82-.22 1 1 0 0 1 .67.41h-2.32l-20.72.13h-6a.4.4 0 0 1 -.19 0c.77-2.82 4.27-4.57 8.26-4.15z"/><path d="m509.82 104.33a.24.24 0 0 1 .24.24v12.13a.48.48 0 0 0 .95 0v-12.13a1.2 1.2 0 0 0 -1.19-1.19h-5.31v-1.72a1.09 1.09 0 0 0 -1.1-1.09h-3.7a1.11 1.11 0 0 0 -1.11 1.11v1.7h-.7a1 1 0 0 0 -1 1v9.53a.47.47 0 0 0 .94 0v-9.55h1.64v-2.65a.18.18 0 0 1 .17-.17h3.7a.16.16 0 0 1 .16.15v2.67z"/><path d="m426.17 137.7a.47.47 0 1 0 .94 0v-29h31.33a.47.47 0 0 0 0-.94h-32.27z"/><path d="m563.29 94.67a.14.14 0 0 0 0-.07.47.47 0 0 0 -.27-.37.57.57 0 0 0 -.18 0h-23.61l-5.92 5.61a.47.47 0 0 0 .33.82.5.5 0 0 0 .32-.13l5.64-5.36h1v27h-35.5v13.64a.47.47 0 1 0 .94 0v-12.68h34.55v11.71a.47.47 0 1 0 .94 0v-12.16s0 0 0 0v-27.54h20.82v12h19v5.88h8.1v24.68a.47.47 0 0 0 .94 0v-24.79a.8.8 0 0 0 -.8-.8h-7.3v-5.11a.79.79 0 0 0 -.79-.8h-18.18z"/><path d="m484.61 104.2a.47.47 0 0 0 .47-.47v-24.48h17a.47.47 0 1 0 0-.94h-17v-5.51h17a.48.48 0 1 0 0-1h-17v-5.46h17a.47.47 0 1 0 0-.94h-17v-5.51h17a.47.47 0 1 0 0-.94h-17v-5.51h17a.47.47 0 1 0 0-.94h-17v-4.22h25.09v40a.47.47 0 1 0 .94 0v-40.95h-27v56.4a.47.47 0 0 0 .5.47z"/><path d="m427.44 82.48h-3.27v4.3h3.27zm-.94 3.35h-1.38v-2.41h1.38z"/><path d="m421.7 71.73h-3.26v4.27h3.26zm-.94 3.35h-1.38v-2.41h1.38z"/><path d="m429.91 71.73v4.27h3.26v-4.27zm2.32 3.35h-1.38v-2.41h1.38z"/><path d="m418.44 98h3.26v-4.33h-3.26zm.94-3.35h1.38v2.35h-1.38z"/><path d="m411.24 64.23v3.85l1.76 2.42v58.18a.47.47 0 1 0 .94 0v-58.48l-1.72-2.42v-2.61h30.32v36a.47.47 0 0 0 .47.47.48.48 0 0 0 .48-.47v-36h7.43v32.54a.48.48 0 0 0 .95 0v-33.48h-5v-4.42h-13v4.42zm23.57-3.48h11.13v3.48h-11.13z"/><path d="m449.22 127.63v4.37h-7.14v7a.47.47 0 0 0 .94 0v-6.08h7.14v-4.35h11.34v7.85a.47.47 0 0 0 .94 0v-46.23h14.08v38.5a.47.47 0 0 0 .94 0v-39a.47.47 0 0 0 -.47-.47h-14.55a.94.94 0 0 0 -.94.94v37.44z"/><path d="m558.19 88.64a.47.47 0 0 0 .47-.47v-9.53h17v21.86a.47.47 0 0 0 .94 0v-22.8h-6.19v-10.11a.47.47 0 0 0 -.94 0v10.11h-11.75v10.47a.47.47 0 0 0 .47.47z"/><path d="m385.84 81.24a.47.47 0 0 0 .47-.47v-60.88l15-.25v74.78a.47.47 0 0 0 .47.47.48.48 0 0 0 .48-.47v-74.73l8.95 1.84v33.37a.47.47 0 1 0 .94 0v-34.13l-10.08-2.07h-.07l-16.6.28v61.8a.47.47 0 0 0 .44.46z"/><path d="m392.63 17.87a.47.47 0 0 0 .47-.47v-3.13h12.63v3.13a.47.47 0 0 0 .94 0v-4.07h-14.51v4.07a.47.47 0 0 0 .47.47z"/><path d="m394.22 12.55a.47.47 0 0 0 .47-.47v-1.6h9.44v1.6a.47.47 0 0 0 .47.47.48.48 0 0 0 .48-.47v-2.55h-11.33v2.55a.47.47 0 0 0 .47.47z"/><path d="m396.57 8.7a.47.47 0 0 0 .47-.47v-.67h4.74v.67a.47.47 0 0 0 .94 0v-1.61h-2.84v-5.12a.47.47 0 1 0 -.94 0v5.12h-2.84v1.61a.47.47 0 0 0 .47.47z"/><path d="m533.38 54.29-14.52 8.19v38.67a.47.47 0 0 0 .94 0v-38.15l13.49-7.62v35.28a.47.47 0 0 0 .94 0v-35.49h7.29a10.09 10.09 0 0 1 10.08 10.07v24.76a.47.47 0 1 0 .94 0v-24.76a11 11 0 0 0 -11-11h-7.94-.09a.32.32 0 0 0 -.09 0z"/><path d="m654.78 143.82h-38.21v-12.4c8.19-.2 14.78-5.6 14.78-12.21v-.43c0-4-1.93-7.46-4.94-9-1.12-5.63-5.4-9.7-10.24-9.7s-9.08 4-10.24 9.62c-3 1.51-5.08 5.13-5.08 9.1v.43c0 6.61 6.59 12 14.78 12.21v12.4h-123c2.81-1.1 4.76-3.42 4.76-6.11v-.22a5.62 5.62 0 0 0 -2.68-5c-.65-3.07-3-5.27-5.69-5.27s-5 2.14-5.69 5.23a5.72 5.72 0 0 0 -2.76 5.13v.13c0 2.69 1.95 5 4.76 6.11h-196.52c2.75-1.12 4.65-3.42 4.65-6.07v-.22a5.61 5.61 0 0 0 -2.68-5c-.66-3.08-3-5.28-5.7-5.28s-5 2.14-5.68 5.23a5.64 5.64 0 0 0 -2.76 5.13v.13c0 2.65 1.9 4.95 4.65 6.07h-21.44c4.54-1.34 7.8-4.84 7.8-8.94v-.33a7.82 7.82 0 0 0 -3.82-7c-.89-4.36-4.22-7.5-8-7.5s-7.06 3-8 7.44a7.89 7.89 0 0 0 -3.92 7.08v.33c0 4.1 3.25 7.6 7.8 8.94h-91.4c2.81-1.1 4.76-3.42 4.76-6.11v-.22a5.64 5.64 0 0 0 -2.68-5c-.66-3.07-3-5.27-5.7-5.27s-5 2.14-5.68 5.23a5.72 5.72 0 0 0 -2.76 5.13v.13c0 2.69 1.95 5 4.76 6.11h-55.9v-7.66a10.64 10.64 0 1 0 -9.62-5.2 6.39 6.39 0 0 0 .26 12.71v.15h-13.75v-9.43a8.27 8.27 0 1 0 -.94 0v9.43h-71.84a.47.47 0 1 0 0 .94h71.78v4.81a.48.48 0 0 0 .48.47.47.47 0 0 0 .47-.47v-4.81h13.8v4.21a.48.48 0 0 0 .48.47.47.47 0 0 0 .47-.47v-4.19h7.47v4.19a.47.47 0 0 0 .47.47.48.48 0 0 0 .48-.47v-4.19h518.51v6.55a.47.47 0 0 0 .94 0v-6.55h38.21a.47.47 0 0 0 0-.94zm-53-24.61v-.43c0-3.7 1.91-7.06 4.75-8.35l.22-.1v-.24c1-5.35 4.85-9.08 9.36-9.08s8.39 3.84 9.36 9.15l.05.23.21.11c2.81 1.35 4.62 4.6 4.62 8.28v.43c0 6.1-6.17 11.07-13.84 11.27v-4.6l6.12-6.12a.46.46 0 0 0 0-.67.47.47 0 0 0 -.66 0l-5.46 5.46v-12a.47.47 0 1 0 -.94 0v12l-5.46-5.46a.47.47 0 0 0 -.66 0 .46.46 0 0 0 0 .67l6.12 6.12v4.6c-7.57-.2-13.78-5.17-13.78-11.27zm-535.64 6.92a7.35 7.35 0 1 1 7.8 7.32v-2.57l2.82-2.82a.47.47 0 0 0 0-.66.46.46 0 0 0 -.67 0l-2.15 2.15v-5.24a.47.47 0 0 0 -.94 0v5.22l-2.12-2.14a.47.47 0 0 0 -.67 0 .48.48 0 0 0 0 .67l2.79 2.81v2.58a7.35 7.35 0 0 1 -6.86-7.32zm16.64 11.18a5.46 5.46 0 0 1 5.45-5.46v-.39l.07.41h.94l-.54-.77a9.71 9.71 0 1 1 8.39 4.1v-3.56l3.71-3.71a.47.47 0 0 0 0-.67.47.47 0 0 0 -.66 0l-3 3.05v-1.9l3.12-3.12a.47.47 0 1 0 -.67-.67l-2.45 2.45v-3.93a.47.47 0 0 0 -.94 0v3.91l-2.42-2.44a.46.46 0 0 0 -.66 0 .47.47 0 0 0 0 .67l3.09 3.12v1.9l-3-3a.47.47 0 0 0 -.67 0 .48.48 0 0 0 0 .67l3.68 3.72v3.56a10.16 10.16 0 0 1 -2.24-.36l-.89-.27.31.88a5.35 5.35 0 0 1 .33 1.85 5.44 5.44 0 0 1 -5 5.42v-1.77l2.1-2.1a.47.47 0 1 0 -.66-.66l-1.44 1.43v-3.69a.47.47 0 1 0 -.94 0v3.68l-1.41-1.43a.46.46 0 0 0 -.67 0 .47.47 0 0 0 0 .66l2.04 2.11v1.78a5.45 5.45 0 0 1 -4.97-5.47zm5.92 6.51v-.15a6.39 6.39 0 0 0 5.92-6.36 6.9 6.9 0 0 0 -.14-1.36 10.69 10.69 0 0 0 1.69.21v7.66zm392.79-6.11v-.22a4.65 4.65 0 0 1 2.42-4.29l.22-.1.05-.24c.52-2.77 2.5-4.7 4.81-4.7s4.31 2 4.81 4.73l.05.24.21.1a4.7 4.7 0 0 1 2.36 4.26v.22c0 3.1-3.1 5.64-7 5.83v-2.15l3.23-3.23a.47.47 0 0 0 0-.66.47.47 0 0 0 -.67 0l-2.56 2.56v-5.93a.47.47 0 1 0 -.94 0v5.93l-2.56-2.56a.47.47 0 0 0 -.66.66l3.22 3.23v2.15c-3.9-.19-6.99-2.73-6.99-5.83zm-203.91 0v-.22a4.66 4.66 0 0 1 2.43-4.29l.22-.1v-.24c.52-2.72 2.54-4.7 4.81-4.7s4.32 2 4.82 4.73v.24l.22.1a4.69 4.69 0 0 1 2.35 4.26v.22c0 3.1-3.09 5.64-7 5.83v-2.15l3.22-3.23a.47.47 0 0 0 -.66-.66l-2.56 2.56v-5.93a.47.47 0 1 0 -.94 0v5.93l-2.49-2.52a.46.46 0 0 0 -.67 0 .47.47 0 0 0 0 .66l3.23 3.23v2.15c-3.88-.19-6.98-2.73-6.98-5.83zm-32.69-2.87v-.33a6.87 6.87 0 0 1 3.59-6.33l.23-.1v-.24c.77-4.07 3.68-6.9 7.1-6.9s6.36 2.92 7.1 7v.24l.22.1a6.84 6.84 0 0 1 3.49 6.28v.33c0 4.6-4.64 8.37-10.43 8.56v-3.38l4.68-4.68a.47.47 0 1 0 -.67-.67l-4 4v-9a.47.47 0 1 0 -.94 0v9l-4-4a.47.47 0 0 0 -.67.67l4.69 4.68v3.38c-5.75-.2-10.39-3.97-10.39-8.57zm-95.7 2.83v-.22a4.66 4.66 0 0 1 2.43-4.29l.22-.1v-.24c.52-2.73 2.54-4.7 4.81-4.7s4.32 2 4.82 4.73v.24l.22.1a4.69 4.69 0 0 1 2.35 4.26v.22c0 3.1-3.09 5.64-7 5.83v-2.15l3.22-3.23a.47.47 0 0 0 -.66-.66l-2.56 2.56v-5.93a.47.47 0 1 0 -.94 0v5.93l-2.56-2.56a.46.46 0 0 0 -.67 0 .47.47 0 0 0 0 .66l3.23 3.23v2.15c-3.81-.15-6.91-2.69-6.91-5.79z"/></g><path d="m379.59 157.68 11.77 1.37h.17l43.94-1.85a.1.1 0 0 0 0-.19 68.59 68.59 0 0 0 -14-1.45s-35.42 1-41.91 2a0 0 0 0 0 .03.12z" fill="#333" opacity=".25"/><path d="m433.53 146.67c-1.23.26-2.1 1-2.79 3.12a4.12 4.12 0 0 1 2.59-.91 4.17 4.17 0 0 1 2 .54 4.14 4.14 0 0 0 -1.8-2.75z"/><path d="m436.21 148c-.83-2.26-3.47-1.56-3.47-1.56a2.7 2.7 0 0 1 .79.24 4.14 4.14 0 0 1 1.84 2.75c.05.24.07.39.07.39l.77.27a7.29 7.29 0 0 0 0-2.09z" fill="#424242"/><path d="m429.1 153a4.58 4.58 0 0 1 0-.53h-1.08v.35c0 2.19 1.7 4.18 4.58 4.31a4.2 4.2 0 0 1 -3.5-4.13z" fill="#424242"/><path d="m431 149.09c-.07.18-.15.38-.22.6a4.19 4.19 0 0 1 2.27-.84 4.79 4.79 0 0 0 -2.05.24z" fill="#424242"/><path d="m435.75 149.64a4.15 4.15 0 0 0 -2.45-.8h-.3a4.19 4.19 0 0 0 -2.27.84.27.27 0 0 0 -.08.07 4.17 4.17 0 0 0 -1.56 2.75 4.58 4.58 0 0 0 0 .53 4.2 4.2 0 0 0 3.52 4.15 3.82 3.82 0 0 0 .68.05 4.19 4.19 0 0 0 2.45-7.6z"/><path d="m416.77 152.46-.58-.07a3.79 3.79 0 0 0 3.78 3.79h.3a3.79 3.79 0 0 1 -3.5-3.72z" fill="#424242"/><path d="m416.69 152.48v.06a3.68 3.68 0 0 0 3.4 3.61h.28a3.69 3.69 0 0 0 3.69-3.68z"/><path d="m381.48 149.65.01.04 1.36.09.32-.33z" fill="#424242"/><path d="m435.91 145a1.74 1.74 0 0 0 -1.19-1l-1.06-.28c-1.76-.44-5.12-1-5.12-1a22.67 22.67 0 0 0 -5.72-4.74 3.75 3.75 0 0 0 -.91-.36c-12.56-2.62-21-.26-21-.26-1.09.25-2.1 4.86-2.1 4.86l-4.79-.06c-6.06-.09-10.85.29-10.85.29s-1.14 2.31-.32 7.23l10.67.32c.12-.16.34 0 .34 0l7.14-.12.22-.1c1-3.2 3.14-4.52 5.86-4 4 .77 3.7 7 3.7 7.09l17.22-.31h1.91s0-.22.4-1.45c.08-.26.17-.56.27-.92s.24-.73.36-1c.72-1.74 1.62-2.31 2.88-2.47a2 2 0 0 1 1.89.84 3 3 0 0 1 .31.47l.22-.26a6.17 6.17 0 0 0 -.33-2.77z" fill="#dfdfdf"/><path d="m393.91 150-11.22-.27c-.91-5.26.48-7.22.48-7.22s4.79-.37 10.85-.29c0 0-.2 4.14-.12 7.85" fill="#dfdfdf"/><path d="m403.15 137.64.22-.4a.25.25 0 0 1 .21-.15 10.84 10.84 0 0 1 2.46-.2.21.21 0 0 1 .18.19v.4z" fill="#d1d1d1"/><path d="m399.12 142a18.3 18.3 0 0 1 1.21-3.79.44.44 0 0 1 .23-.17 31.11 31.11 0 0 1 8.65-.48.31.31 0 0 1 .3.23l.77 4.59z"/><path d="m422.87 138.65s-1.19-.81-10.51-1.09a.25.25 0 0 0 -.25.3l.88 4.78a.28.28 0 0 0 .26.23l15.06.69s-.51-1.69-5.44-4.91z"/><path d="m393.46 157.19a11.87 11.87 0 0 1 -1.71.09c-2.58 0-4.14-2.27-4.14-5h2.69s.14 3.4 1.88 4l1.28 1" fill="#424242"/><path d="m417.47 137.82 1.19 5.29 2 .1-1.42-5.24z" fill="#333"/><path d="m396.68 152.3c0 2.71-1.63 4.92-3.64 4.92s-3.63-2.21-3.63-4.92"/><path d="m401.23 149.73h-.22.21z" fill="#231f20"/><path d="m429.92 152.51s0 0 0 0z" fill="#838080"/><path d="m407.81 149.32a4.37 4.37 0 0 0 -2.73-1 4.43 4.43 0 0 0 -3 1.26c.86-2.16 2.28-3.36 4.16-3.25.7.38 2 .32 2 2.74l-.11.59-.24-.23v-.11"/><path d="m407.05 146.36c-.25-.05-.68-.14-.83 0 .7.38 1.68 1.34 1.68 3.76l.06.1 1.45 3.14.68.41s.05-6.72-3.04-7.41z" fill="#424242"/><path d="m390.64 152.14c0 1.62 1 3 2.22 3s2.14-1.14 2.14-2.73" fill="#dfdfdf"/><path d="m394.19 154a4.37 4.37 0 0 1 -.6-.7l-.11.07a2.39 2.39 0 0 0 -.25 1.3 1.66 1.66 0 0 0 .96-.67z"/><path d="m394 152.6a1.75 1.75 0 0 1 -.12.32 1.62 1.62 0 0 0 .54.6 3.14 3.14 0 0 0 .15-.49 2.74 2.74 0 0 1 -.57-.43z"/><path d="m392.92 153.5a.78.78 0 0 1 -.22 0 2.75 2.75 0 0 0 -.28 1.18 1.49 1.49 0 0 0 .43.07 5.1 5.1 0 0 1 .07-1.25z"/><path d="m392.32 153.26a1.39 1.39 0 0 1 -.27-.32c-.19 0-.65.21-.65.21a2.93 2.93 0 0 0 .56.94c.04-.09.26-.61.36-.83z"/><path d="m402.12 153.55c0-2.71 1.69-4.92 3.77-4.92a3.09 3.09 0 0 1 1.92.69 4.37 4.37 0 0 0 -2.73-1 4.43 4.43 0 0 0 -3 1.26l-.07.19-.59 2.64a.54.54 0 0 1 -.53.4h-.49a5 5 0 0 0 -.06.76c0 2.72 1.56 5 4.14 5a13.91 13.91 0 0 0 1.85-.09h-.42c-2.1 0-3.79-2.21-3.79-4.93z" fill="#424242"/><path d="m409.66 153.55a5.32 5.32 0 0 0 -1.85-4.23 3.09 3.09 0 0 0 -1.92-.69c-2.08 0-3.77 2.21-3.77 4.92s1.69 4.93 3.77 4.93h.42c1.88-.31 3.35-2.39 3.35-4.93z"/><path d="m386.56 151.75 3.22.14.05-2.11-3.26-.06z" fill="#333"/><path d="m411 142.64s0 0 0 0l-16.41-.49-11.37.29.22-.32s4.42-.33 10.92-.27l4.56.11 11.82.37a.08.08 0 0 1 .07 0z" fill="#333"/><path d="m426.12 141 .46 2.44c.06 0 1.73.06 1.73.06a12.18 12.18 0 0 0 -.82-1.13 8.45 8.45 0 0 0 -1.37-1.37z" fill="#333"/><path d="m427.29 141.73-.11 2a.25.25 0 0 0 .05.15l.08.09a.31.31 0 0 0 .4.06l.83-.51a.29.29 0 0 0 .14-.24v-.92a.81.81 0 0 0 -.69-.79l-.59.06a.13.13 0 0 0 -.11.1z" fill="#333"/><path d="m427.59 141.76h.21a.1.1 0 0 1 .08.05l.15.28a.06.06 0 0 1 0 0v1.24a.12.12 0 0 1 0 .08l-.43.23a.08.08 0 0 1 -.12-.07l.06-1.76a.09.09 0 0 1 .05-.05z" fill="#dfdfdf"/><rect fill="#333" height=".33" rx=".12" transform="matrix(.99994145 .01082083 -.01082083 .99994145 1.58 -4.44)" width="1.89" x="413.04" y="144.69"/><rect fill="#333" height=".33" rx=".12" transform="matrix(.99994145 .01082083 -.01082083 .99994145 1.58 -4.52)" width="1.67" x="420.81" y="144.97"/><path d="m422.11 153.23a1.82 1.82 0 0 1 -3.58 0" fill="#dfdfdf"/><path d="m420 154.1a2.3 2.3 0 0 0 -.33-1.42 5.06 5.06 0 0 1 -.67.68 1.7 1.7 0 0 0 1 .74z"/><path d="m420.21 152.69a3.5 3.5 0 0 1 .16 1.46 1.26 1.26 0 0 0 .43-.08c-.12-1.49-.59-1.38-.59-1.38z"/><path d="m421.67 152.9a2 2 0 0 0 -.47-.2.37.37 0 0 0 -.25 0l.32.94a2.09 2.09 0 0 0 .4-.74z"/><path d="m393.56 148.61a.15.15 0 0 0 .15.13h2a.53.53 0 0 0 .49-.55v-4.31a.52.52 0 0 0 -.49-.54h-2a.18.18 0 0 0 -.18.17 31.29 31.29 0 0 0 .03 5.1z" fill="#d1d1d1"/><path d="m393.76 148.17a.24.24 0 0 0 .23.22h1.59a.27.27 0 0 0 .26-.29v-4.1a.27.27 0 0 0 -.26-.28h-1.58a.22.22 0 0 0 -.23.22c-.06.54-.07 2.16-.01 4.23z" fill="#d1d1d1"/><path d="m382.83 143.34a.46.46 0 0 0 -.46.48v4.18a.46.46 0 0 0 .46.48.15.15 0 0 0 .14-.16v-4.84a.16.16 0 0 0 -.14-.14z" fill="#d1d1d1"/><path d="m382.88 143.67h-.19a.24.24 0 0 0 -.21.27v4a.24.24 0 0 0 .21.27h.18z" fill="#d1d1d1"/><path d="m386.57 142.85h1.43a.12.12 0 0 1 .15.09 1.48 1.48 0 0 1 .06.47.16.16 0 0 1 -.17.12h-1a.33.33 0 0 1 -.25-.11l-.28-.44c-.07-.06-.02-.13.06-.13z" fill="#424242"/><rect height=".18" rx=".09" width="1.34" x="386.69" y="142.99"/><path d="m435.91 145h-.14a.18.18 0 0 0 -.19.19v1.13a.19.19 0 0 0 .19.19h.5a7 7 0 0 0 -.36-1.51z" fill="#fff"/><path d="m436.39 150.2a7.38 7.38 0 0 0 -.14-2.56 2.84 2.84 0 0 0 -2.41-1.67c-1.49.06-2.68.93-3.45 3.5-.61 2.05-.8 2.76-.85 3l-18.71.41c0-.17.23-6.37-3.7-7.14-2.72-.53-4.91.82-5.9 4h-.23l-7.21.06-12.29-.19a.05.05 0 0 0 -.05 0l.05 1.84a.76.76 0 0 0 .7.72l11.25.79h7.08.47c.25 0 .33-.46.39-.7l.59-2.64.07-.19c.86-2.16 2.28-3.36 4.16-3.25a5.1 5.1 0 0 1 .74.11c3.08.69 3 6.42 3 6.42v.65a.27.27 0 0 0 .27.27l19.48-.53a.24.24 0 0 0 .22-.19l.08-.64c0-.12.16-.59.68-2.3.76-2.57 1.68-3.29 3.16-3.48a2.24 2.24 0 0 1 2.16 1.51 3 3 0 0 1 .18.51 8 8 0 0 1 .07.81v.77z" fill="#333"/><path d="m403.56 153.85c0-1.74 1.16-3.24 2.5-3.24s2.16 1.21 2.16 2.95-1.05 3.25-2.38 3.25-2.28-1.22-2.28-2.96z" fill="#dfdfdf"/><path d="m405.18 154.88a.57.57 0 0 1 -.13-.08 4.54 4.54 0 0 1 -.62.73 1.76 1.76 0 0 0 1 .72 2.48 2.48 0 0 0 -.25-1.37z"/><path d="m404.71 154.39a1.51 1.51 0 0 1 -.13-.34 3.14 3.14 0 0 1 -.58.46 2.76 2.76 0 0 0 .16.51 1.6 1.6 0 0 0 .55-.63z"/><path d="m405.77 155a5.08 5.08 0 0 1 .08 1.28 1.44 1.44 0 0 0 .46-.08 2.79 2.79 0 0 0 -.31-1.2.85.85 0 0 1 -.23 0z"/><path d="m406.41 154.76c.11.23.34.74.39.89a3.09 3.09 0 0 0 .6-1s-.49-.18-.69-.23a1.29 1.29 0 0 1 -.3.34z"/><path d="m407.48 153.46h-.48a1.91 1.91 0 0 1 -.08.54l.64.13v-.58a.08.08 0 0 0 -.08-.09z"/><path d="m407.55 153a4.53 4.53 0 0 0 -.25-1l-.53.61a1.79 1.79 0 0 1 .15.37z"/><path d="m404.62 153a1.32 1.32 0 0 0 -.45-.59 3.55 3.55 0 0 0 -.25 1.31v.22a2.45 2.45 0 0 0 .6-.44z"/><path d="m405.08 152.33c-.07-.2-.22-.65-.33-.9a2.47 2.47 0 0 0 -.35.48 3.1 3.1 0 0 1 .43.7 1.72 1.72 0 0 1 .25-.28z"/><path d="m405.84 152a5 5 0 0 0 .58-1.16 1.6 1.6 0 0 0 -.39-.05 1.56 1.56 0 0 0 -.85.27l.48 1z"/><path d="m406.45 152.21a4.55 4.55 0 0 0 .74-.9 1.49 1.49 0 0 0 -.4-.31 5.29 5.29 0 0 1 -.55 1.1 1 1 0 0 1 .21.11z"/><circle cx="433.3" cy="153.04" fill="#dfdfdf" r="2.55"/><path d="m433.11 151.89a8 8 0 0 0 .5-1.13h-.31a2.33 2.33 0 0 0 -.92.19c.27.49.48.83.57 1z"/><path d="m432.64 152-.69-.85a2.14 2.14 0 0 0 -.48.47l.81.71a1.13 1.13 0 0 1 .36-.33z"/><path d="m434.2 152.57h1.36a2.28 2.28 0 0 0 -.71-1.25l-.78 1a1 1 0 0 1 .13.25z"/><path d="m434.29 153a1 1 0 0 1 -.06.34l1.29.31a2.26 2.26 0 0 0 .08-.53l-1.32-.18a.13.13 0 0 1 .01.06z"/><path d="m433.8 153.91.45 1.23a2.3 2.3 0 0 0 1.08-1l-1.24-.5a1.28 1.28 0 0 1 -.29.27z"/><path d="m433.18 154.1h-.11l.12 1.25h.11a2.35 2.35 0 0 0 .54-.07l-.38-1.22a1.26 1.26 0 0 1 -.28.04z"/><path d="m432.54 153.88-.76.9a2.48 2.48 0 0 0 1 .51v-1.28a.8.8 0 0 1 -.24-.13z"/><path d="m432.11 152.74-.86-.66a2.35 2.35 0 0 0 -.22 1 2.12 2.12 0 0 0 0 .44l1-.52a.78.78 0 0 1 .08-.26z"/><path d="m432.15 153.38-1 .53a2.13 2.13 0 0 0 .3.53l.88-.72a1.45 1.45 0 0 1 -.18-.34z"/><path d="m433.85 152.12.71-1a2.07 2.07 0 0 0 -.54-.26l-.6 1a1.08 1.08 0 0 1 .43.26z"/><path d="m389.46 151.68-2.46-.08c-.08 0-.14 0-.13-.11v-1.4a.13.13 0 0 1 .14-.11h2.43a.13.13 0 0 1 .14.11v1.44a.13.13 0 0 1 -.12.15z" fill="#dfdfdf"/><path d="m385.23 149.7-.03 2.28 1.36-.23.01-2.03z" fill="#424242"/><path d="m385.2 151.98 3.65.25.93-.34-3.22-.14z"/><ellipse cx="334.41" cy="194.04" fill="#f6c19b" opacity=".5" rx="142.5" ry="18.46"/><path d="m334.45 195.16c-2 0-3.87-1.34-5.33-3.76-18.77-31.22-33.67-57.88-45.37-86.5-2.75-6.9-6.26-15.9-8.12-25.47-3.13-16 1-31.34 12.26-45.48a59.1 59.1 0 0 1 46.53-22.33 59.78 59.78 0 0 1 59.58 54.08c.68 6.83-.17 13.82-2.67 22-4.61 15.06-11.35 30.83-20.61 48.19-7.5 14.06-15.49 28.14-23.23 41.75q-3.89 6.85-7.77 13.71c-1.39 2.46-3.25 3.82-5.25 3.82z" fill="#ff803c"/><path d="m334.42 13h.08a58.42 58.42 0 0 1 58.07 52.81c.73 7.33-.47 14.44-2.61 21.44-5.12 16.72-12.32 32.58-20.51 47.94-10 18.67-20.58 37-31 55.43-1.17 2.07-2.59 3.1-4 3.1s-2.89-1-4.12-3.08c-16.77-27.89-32.93-56.11-45.28-86.31a136.54 136.54 0 0 1 -8-25.2c-3.22-16.49 1.61-31.32 12-44.33a57.35 57.35 0 0 1 45.37-21.8m0-2.82a60.53 60.53 0 0 0 -47.64 22.86c-11.53 14.51-15.78 30.2-12.53 46.66 1.88 9.65 5.37 18.82 8.19 25.73 11.74 28.71 26.67 55.42 45.47 86.7 2.33 3.86 5.1 4.44 6.54 4.44s4.25-.59 6.48-4.53q3.87-6.87 7.78-13.73c7.73-13.62 15.73-27.7 23.23-41.76 9.3-17.45 16.08-33.29 20.72-48.45 2.52-8.24 3.41-15.61 2.72-22.54a61.16 61.16 0 0 0 -60.88-55.35z" fill="#fff"/><path d="m334.45 100.64a31 31 0 1 1 31-31.19 30.9 30.9 0 0 1 -31 31.19z" fill="#fff"/><path d="m579 179.2a12.2 12.2 0 0 0 -.62-8.64s-1.94-2.67-3.44.66a5.16 5.16 0 0 1 3.59 4.68z"/><path d="m555.84 177.81-3.52-5.05-3.84-1.39-.84-2.89 6.95 1.61z"/><path d="m508.55 188.29 29.93 1.91h.23l34.13-4.14a.13.13 0 0 0 0-.25l-29.57-2-34.7 4.21a.12.12 0 0 0 -.02.27z" opacity=".25"/><path d="m576.54 185.94s-4.14.55-5.27-.34-2.25-4.14-2.27-5c0 0 2.43-9.27 5.1-9.3 0 0 2.36-.33 3.13.65z" fill="#333"/><path d="m548.19 171.13a9.41 9.41 0 0 1 3.18.56 4.54 4.54 0 0 1 1.15.75l-1.47 16.17a10 10 0 0 1 -2.85.42 7.66 7.66 0 0 1 -7.36-5s1.88-12.9 7.35-12.9z" fill="#333"/><ellipse cx="550.04" cy="180.13" rx="5.56" ry="8.59"/><path d="m520.83 163.28s-1.06-2.88 3.15-2.45l-2.45 2.42z" fill="#d1d1d1"/><path d="m531.43 155.49a39.07 39.07 0 0 0 -9.66 7.23 19.15 19.15 0 0 1 -4.76 1.54s-11.5.12-11.1 8.24a33.25 33.25 0 0 0 -.17 7.47.3.3 0 0 0 .2.25c1 .32 6.83 1.55 37.88.95a1.42 1.42 0 0 0 1.33-1.18c.37-2.73 1.55-9.36 4.32-10.78a3.11 3.11 0 0 1 4.39 1.5s1.74 1.46 1.55 7.57l.19 2.05 17-1.17s1.24-8.74 3.44-9.25c0 0 2.13-1.16 3 2.35a16.63 16.63 0 0 1 .24 3.7s.79.11.11-4.68c0 0-.25-5.28-1.26-7.27a1.26 1.26 0 0 0 -.58-.56 10.22 10.22 0 0 1 -2.46-1.48l-3.7-3.56-.24-.21c-.69-.56-4-3.16-5.81-3.52a48.41 48.41 0 0 0 -9.34-.9s-13.68-.52-21.8.76a9.87 9.87 0 0 0 -2.77.95z" fill="#dfdfdf"/><path d="m572.57 160.94a13.62 13.62 0 0 0 -8.66-5.52 31.61 31.61 0 0 0 -8.2-.07l-3.22 8c1.46.18 1.69.41 1.69.41l16.95-.68h.36a1.39 1.39 0 0 0 1.08-2.14z" fill="#333"/><path d="m506.58 182.52c.63 3 3.65 5.2 7.27 5.2a7.44 7.44 0 0 0 6.89-4.06z" fill="#333"/><path d="m508.28 182.08a6.69 6.69 0 0 0 12.72 1.14z"/><ellipse cx="515.08" cy="183.43" fill="#d1d1d1" rx="3" ry="1.95"/><ellipse cx="576.35" cy="178.74" rx="2.66" ry="7.19"/><path d="m554.57 163.07 2.7-7.25a37.67 37.67 0 0 1 4-.17 44.05 44.05 0 0 1 2 7.12z"/><path d="m557.2 163.09-.68 1.47s.33 1.3.92 1.37a.62.62 0 0 0 .71-.52l.3-1.86z" fill="#d1d1d1"/><path d="m557.08 162.94s-.39-2.42 1.65-2.26 3.21.22 3.3 1.09c0 0 .37 1.67-.56 1.83l-3.28.43a.47.47 0 0 1 -.33-.08c-.26-.19-.75-.59-.78-1.01z" fill="#d1d1d1"/><path d="m571.22 162.6-6.14.05a16.83 16.83 0 0 0 -3-7.05 13.26 13.26 0 0 1 10 5.22 1.11 1.11 0 0 1 -.84 1.78z"/><path d="m563.17 165.1 1.94-.11a.19.19 0 0 1 .15.07l.27.36a.18.18 0 0 1 -.13.28l-2 .14a.19.19 0 0 1 -.17-.1l-.18-.39a.17.17 0 0 1 .12-.25z" fill="#d1d1d1"/><path d="m571.59 164.78 1.73-.08a.17.17 0 0 1 .14.07l.24.37a.18.18 0 0 1 -.13.28l-1.81.1a.15.15 0 0 1 -.15-.11l-.16-.39a.17.17 0 0 1 .14-.24z" fill="#d1d1d1"/><path d="m555 183.62 17.56-2.14s.9-11.9 4.48-11.54c0 0 2.94.08 1.92 9.29l.33-.13a26.67 26.67 0 0 0 -.09-6.41c-.52-2.33-2-5.25-4.34-2.22 0 0-1.57 2.45-2.33 8.62l-17 1.24z"/><path d="m555.41 177.93s.72-8.62-4-9.18c-5.36-.64-6.28 11-6.28 11l-.13.88s0 .37-1.09.42h-.19c-31 .6-36.84-.52-37.82-.84l-.13-.06v1.6s-.14.44.92 1c0 0 1.94 1.23 13.76 1.2l23.4.44a1.76 1.76 0 0 0 1.8-1.47l.11-3.75s1.18-9.46 5.37-9.56c0 0 3.22-.59 3.83 5l.2 2.12z"/><path d="m577.63 164.57h.74a.46.46 0 0 1 .47.34 7.71 7.71 0 0 1 .32 3.26.08.08 0 0 1 -.15 0l-1.45-3.48a.08.08 0 0 1 .07-.12z" fill="#d1d1d1"/><path d="m505.65 178.8a.75.75 0 0 0 .22.07h.44l.71-.2h.08l.24-.24c.1-.1.3-.38.22-.52l-.22-.68a14.74 14.74 0 0 0 -1.12-1.22l-.56-.09c-.07.86-.07 1.85-.01 2.88z" fill="#333"/><path d="m509.18 177.47c7.17.94 19 .68 25.83.41a.18.18 0 0 1 .18.21l-.19 1a.16.16 0 0 1 -.16.15c-15 .65-22.24 0-25.56-.52a.17.17 0 0 1 -.15-.15l-.15-.93a.17.17 0 0 1 .2-.17z" fill="#333"/><path d="m522.2 162.48c-.54.26-1 .48-1.48.67-2.54.24-10.43 1.23-13.21 4.58l-.14.18.16.45a6 6 0 0 0 3.9 1.12l17.9.14a47.2 47.2 0 0 0 13-1.7c2.41-2.88 12-4.2 12-4.2-8.52-3.5-32.13-1.24-32.13-1.24z" fill="#d1d1d1"/><path d="m510.8 169.06-1.4 1a.77.77 0 0 0 -.27.91l1.14 2.89a.72.72 0 0 0 .52.45c1.39.31 6.62 1.22 17.83.41a1 1 0 0 0 .67-.35 26.84 26.84 0 0 0 2.45-3.31.47.47 0 0 0 -.06-.52 9.13 9.13 0 0 0 -1.4-1.27 1.68 1.68 0 0 0 -.94-.29l-17.87-.1a1.16 1.16 0 0 0 -.67.18z" fill="#d1d1d1"/><path d="m511.07 169.36-1.4.84a.67.67 0 0 0 -.26.83l1 2.47a.72.72 0 0 0 .51.42c1.34.28 6.85.8 17.35.41a.91.91 0 0 0 .65-.32 22.82 22.82 0 0 0 2.26-2.9.38.38 0 0 0 -.06-.47 7 7 0 0 0 -1.29-1 1.67 1.67 0 0 0 -.91-.26l-17.22-.1a1.11 1.11 0 0 0 -.63.08z" fill="#333"/><path d="m546.74 167.87-2.8 3.6a.65.65 0 0 1 -.5.26l-11.28.63a0 0 0 0 1 0-.09l4.52-3.55a3.12 3.12 0 0 1 1.58-.66l8.12-.92a.45.45 0 0 1 .36.73z" fill="#d1d1d1"/><path d="m546 168.16-2.48 3.08a.6.6 0 0 1 -.45.23l-10 .54s-.06-.06 0-.08l4-3.05a2.86 2.86 0 0 1 1.41-.56l7.21-.79a.39.39 0 0 1 .31.63z" fill="#fff"/><path d="m540.22 179.58 1.23.23h.62a.55.55 0 0 0 .55-.54 8.92 8.92 0 0 0 -.22-2.52.54.54 0 0 0 -.53-.42h-.2a.39.39 0 0 0 -.21.06c-.38.26-1.61 1.19-1.82 1.38a.13.13 0 0 0 0 .06l-.38.77c-.14.17.21.51.39.63l.4.26a.54.54 0 0 0 .17.09z" fill="#333"/><ellipse cx="541.12" cy="178.28" fill="#fff" rx=".76" ry=".78"/><path d="m531.48 155.63h.19c-2.12.93-9.51 7.07-9.51 7.07h-.39a38.19 38.19 0 0 1 9.26-7z" fill="#494748"/><path d="m522.09 162.72s16.32-1.13 30.51.41l3.16-7.78s-17.16-1-24.29.28a50.72 50.72 0 0 0 -9.38 7.09z"/><g clip-path="url(#a)"><path d="m539.12 162.92-10.31.43 10.88-8.84 11.92-1.69z" fill="#333"/></g><ellipse cx="550.13" cy="180.42" fill="#d1d1d1" rx="4.65" ry="6.36"/><path d="m549.58 179.24.56-3.29-.56-1.58a3 3 0 0 0 -1.61.79l-.1.85.46 2.4z"/><path d="m549.12 180.78-1.91-1.48-1.45.13a17.86 17.86 0 0 0 0 2.24l2.43.46z"/><path d="m549.94 182-1.45 1.94-.29 1.67a2.29 2.29 0 0 0 1.64.59l1-2.66z"/><path d="m551.16 180.88 1 2.83a4.9 4.9 0 0 0 .75.59c.1 0 .76-.36 1.09-2.1l-1.45-1.75z"/><path d="m553.16 175.92a6.3 6.3 0 0 1 .86 1.74l-1 1.08-2.27.2.4-1.68 1.45-1.34z"/><ellipse cx="550.08" cy="180.41" fill="#dfdfdf" rx=".55" ry=".72"/><ellipse cx="576.45" cy="178.74" fill="#d1d1d1" rx="2.15" ry="5.58"/><path d="m576 177.88-.06-2.51-.46-1.31a2.37 2.37 0 0 0 -.54 1.12l.54 2.45z"/><path d="m577.17 174a2.35 2.35 0 0 1 .61 1.07l-.28 1.28-1.18 1.33.1-1.47z"/><path d="m577.41 177.97-.69.59 1 2.12.53.33.1-2.22z"/><path d="m576.59 179.52.51 1.58-.06 2.3a1 1 0 0 1 -.79.42l-.12-1.81z"/><path d="m576.17 179.54-1.07-.67-.56.65a5.69 5.69 0 0 0 .24 1.83l1.06-.77z"/><ellipse cx="576.31" cy="178.54" fill="#dfdfdf" rx=".23" ry=".5"/><path d="m506 171 2.57 1.55s.11-.07.09-.12l-.69-4.71a1 1 0 0 0 -.15-.23 6.11 6.11 0 0 0 -1.82 3.51z" fill="#d1d1d1"/><path d="m508.32 172.1s.07 0 .06-.06l-.54-4a1.12 1.12 0 0 0 -.33-.33 5.58 5.58 0 0 0 -1.49 3z" fill="#fff"/><ellipse cx="506.43" cy="177.62" fill="#fff" rx=".47" ry=".48"/><path d="m75.63 184 .47 3.69 6.29-4.69s-2.4-3.13-4.48-3a2.24 2.24 0 0 0 -2.22 2.25z"/><path d="m118.9 186.57-13 8.74s-1.48-11.52 4.44-13.56c.01 0 6.92-1.75 8.56 4.82z"/><path d="m115.06 210.68-36.84-9.68a.31.31 0 0 1 0-.6c3.38-.88 14.27-3.35 30.19-3.51l20 4.3 37.72 5.08a.13.13 0 0 1 0 .25c-5.05.91-33.82 6.05-51.07 4.16z" fill="#333" opacity=".25"/><path d="m156.09 205.86c5.46 0 9.89-3.54 9.89-7.91a7 7 0 0 0 -2.26-5l-3.39 4.05-4.24 8.87" fill="#333"/><ellipse cx="155.09" cy="198.72" rx="8.37" ry="7.16"/><path d="m154.31 201.75a4 4 0 0 0 3.91-4.16 4.45 4.45 0 0 0 -.56-2.16 4.18 4.18 0 1 1 -7.21 2.89v-.12a4 4 0 0 0 3.86 3.55z" fill="#dfdfdf"/><path d="m77.77 199.65c.38.78 3.09.73 3.09.73 4.92.2 5.64-.71 6.43-7.14.58-4.72-2.69-10.22-6-10.22a4.59 4.59 0 0 0 -3.23 0l.87.83 1.76 2.82.62 3.62s.78 7.62-3.54 9.36z" fill="#333"/><ellipse cx="78.66" cy="191.5" rx="2.96" ry="8.6"/><ellipse cx="78.74" cy="191.5" fill="#dfdfdf" rx="2.23" ry="6.63"/><g clip-path="url(#b)"><path d="m77.72 192.13.8-.01.09.47-.85.9z"/><path d="m78.19 186.49s.93 3.15.93 3.15l-.16.15-1.27-1.28a11.51 11.51 0 0 1 .5-2.02z"/><path d="m77.62 189.44 1.16.99-.08.35-1.25-.58z"/><path d="m79.02 190.01-.85-3.35.29-.98.88 4.53z" fill="#231f20"/><path d="m79.65 190-.4-4.5a5.7 5.7 0 0 1 1.1 2.23l-.59 2.42z"/><path d="m77.46 189.98 1.25.72-.02.57-1.28-.24z"/><path d="m79.97 190.68-.09-.19.88-2.17.31 1.29z"/><path d="m79.38 193.88v4a1.26 1.26 0 0 1 -1.25.2l1.14-4.17z"/><path d="m77.82 194.07.86-1.19.11.33-1 1.69z" fill="#231f20"/><path d="m78.69 193.29.33.57-1.05 2.18-.54-.97z"/><path d="m80.15 196.94-.57-3.78.26-.18.83 2.61a9.59 9.59 0 0 1 -.52 1.35z"/><path d="m80.15 192.13a6 6 0 0 1 0 .85l.74.88.13-1.74z"/><path d="m80.06 191.55v-.64l.96-.54.04.96z"/></g><ellipse cx="79.25" cy="191.8" fill="#dfdfdf" rx=".94" ry="2.29"/><ellipse cx="79.26" cy="191.77" rx=".29" ry=".82"/><path d="m112.82 210.35a31.34 31.34 0 0 0 3.17.59c8 1 12.44-5 12.31-11.77s-5.55-12.92-12-12.8a12.67 12.67 0 0 0 -5.15 1.39" fill="#333"/><path d="m143.66 168.23s4.31-.1 4 2.49c.01 0-3.66-1.41-4-2.49z" fill="#d1d1d1"/><path d="m76.19 180.71 1.85-.29 2.95.05 3.74 11.68 21.48 5.06c-.03-12.35 1.79-14.21 1.79-14.21 1.28-1.05 7.38-.26 7.38-.26 3.28.57 5.18 7.44 5.18 7.44 2.53 11.35 6.16 8.17 6.16 8.17l35.74-1.89c5.16-.62 5.39-3.67 5.39-3.67l2.37-2.7a12.14 12.14 0 0 0 -.13-5.36s-.11 0-.12-.08a24.9 24.9 0 0 0 -1.52-3.23l-.62-3.67.13-.14a3.68 3.68 0 0 0 -1.15-1.6 2.7 2.7 0 0 0 -.5-.36 8 8 0 0 0 -1.89-.86 22.73 22.73 0 0 0 -2.63-.74l-4.16-.93-1.55-.34-.56-.13c-2.3-.48-4.34-.83-4.8-.91h-.19a11.82 11.82 0 0 1 -4.14-1.85 125.1 125.1 0 0 0 -12.63-8.07 6.63 6.63 0 0 0 -1.92-.71c-13.15-2.61-28.87-1.41-28.87-1.41-10.53.1-16.23 2.05-16.23 2.05-4.25 1-7.74 7.63-7.74 7.63-2.12 3.08-2.91 9.14-2.91 9.14l-.23 2.33z" fill="#dfdfdf"/><path d="m77 178.8a.85.85 0 0 1 .47-.13 19.06 19.06 0 0 1 2.82.23c1.6.26 2.19 2.8 2.19 2.8l2.24 7.79 21.16 3.85a52.54 52.54 0 0 1 1.32-10c.52-3.39 5.51-2.74 5.51-2.74a8.4 8.4 0 0 1 8 6.26l1.79 5.14v.14h.12.16l10.94.11a1.51 1.51 0 0 0 .84-.28l2.72-1.91a1.34 1.34 0 0 1 .64-.23l29.08-1.53a.63.63 0 0 1 .51.19l1.25 1.39c.06.06.15 0 .24 0l1.26-.29-.07.47v.16l-.41 2.32s-1 5.34-6.19 6l-38.26 3.2s-3.15.36-5.69-11c0 0-1.37-6.25-4.65-6.82 0 0-5.39-1.24-6.67-.19 0 0-2 .73-1.8 13.15v2.18c-13.09-3.32-20.48-3.77-20.48-3.77-1.16-.22-1.87-2.27-1.87-2.27-2.07-9.76-4.36-11.79-4.36-11.79-.4-.62-2.79-.52-2.79-.52-1.48 0-1.43 3.43-1.43 3.43-.49-3.94.88-5.01 1.41-5.34z"/><path d="m120.77 159.7 1.36.13 4.98-.12-1.6-.48z"/><path d="m85.52 164.22c-.84 1.37-2.58 4.2-4 6.47a.48.48 0 0 0 .38.74l24.37 1.83a.91.91 0 0 0 1-.95v-1a2.54 2.54 0 0 0 -.16-1.06l-3.11-6.25s-1.22-2.93-6.77-2.5a51.92 51.92 0 0 0 -10.18 1.5 2.74 2.74 0 0 0 -1.53 1.22z" fill="#333"/><path d="m86.39 164.08c-.66 1-2.6 4.13-4.09 6.44a.29.29 0 0 0 .22.43l23.55 1.61a.27.27 0 0 0 .3-.28v-1.43a3 3 0 0 0 -.3-1.18l-2.72-5.67s-1.17-2.3-6.27-2c0 0-6.53.3-10 1.53a1.34 1.34 0 0 0 -.69.55z"/><path d="m105 161.59a.13.13 0 0 0 -.11.2l5.2 8.42s1.07 1.72 5.36 1.57c4-.15 29.71-.4 32.45-.41a.07.07 0 0 0 0-.13l-14.85-9.24a1.08 1.08 0 0 0 -.53-.15c-1.84-.02-12.9-.3-27.52-.26z"/><path d="m103.36 172h3.32a.61.61 0 0 1 .61.61v.69a0 0 0 0 1 0 0h-3.93a.33.33 0 0 1 -.33-.33v-.63a.33.33 0 0 1 .33-.34z" fill="#d1d1d1" transform="matrix(-1 0 0 -1 210.32 345.25)"/><path d="m123.49 178.72a.35.35 0 0 0 -.34.51l3.62 7a2 2 0 0 0 1.73 1l15.7.2a.54.54 0 0 0 .45-.84l-5.06-7.36s-9.89-.23-16.1-.51z"/><path d="m124.5 180.31a.12.12 0 0 0 -.12.17l2.83 5.57a2.19 2.19 0 0 0 1.83.8l13.66.18a.05.05 0 0 0 .05-.08l-3.23-6a.34.34 0 0 0 -.29-.17c-1.38-.04-9.61-.1-14.73-.47z" fill="#fff"/><path d="m169.36 183.07a5 5 0 0 1 .77 1.74 14.81 14.81 0 0 1 -4.62 1.21l.41-7.55 2-.91z"/><path d="m166.35 178.33s-6.64 1.47-26.83.89l4.61 8.2s20.8-.13 21.53-1.39z" fill="#333"/><path d="m170.22 190.18s-3.22 1.82-37.37 2.76a.63.63 0 0 0 -.48.23l-.82 1a.62.62 0 0 0 0 .82c.83.93 3.61 3 11.84 2.24l20.38-1.57s5.16-.82 6-3.1z" fill="#333"/><path d="m94.7 172 2.59-10.25-1.42.1-3.14 10.07z" fill="#333"/><path d="m86.68 171.09 2.95-8.25-1.04.22-3.51 8.2 1.51.13z" fill="#333"/><path d="m105.36 172.22v-.63a2.42 2.42 0 0 0 -.78-2.2 1.73 1.73 0 0 0 -.93-.34c-1.56-.11-5.92-.16-5.51 2.74 0 0 .08 1.32 2.61 1.42l3.89.08a.57.57 0 0 0 .58-.52z" fill="#d1d1d1"/><path d="m77.88 171.79-.29.05a.56.56 0 0 0 -.42.26 5.43 5.43 0 0 0 -.82 2.06c0 .24 0 1.17.27 1.14h.41a.1.1 0 0 0 .08-.07l.87-3.28a.1.1 0 0 0 -.1-.16z" fill="#d1d1d1"/><path d="m130.6 161s-2.89-2-4.47-2.09-12 .55-12 .55 5.5.19 6.5.26l5.12-.11a3.8 3.8 0 0 1 2.58 1.13z" fill="#333"/><path d="m164.75 198.44-.41-.67a2.59 2.59 0 0 0 -2.45-1.25l-22.09 1.85a2.75 2.75 0 0 0 -1.15.38l-3.51 2.17z" fill="#d1d1d1"/><path d="m95.35 176.39c-.6 0-2.3-.15-2.93-.2a.22.22 0 0 1 -.2-.24v-.48a.23.23 0 0 1 .24-.19l2.92.17a.23.23 0 0 1 .21.25l-.06.49a.21.21 0 0 1 -.18.2z"/><path d="m84.3 175.12-2.19-.19a.23.23 0 0 1 -.2-.24v-.48a.22.22 0 0 1 .24-.2l2.18.17a.22.22 0 0 1 .2.24v.49a.22.22 0 0 1 -.23.21z"/><path d="m126.23 196.72a.92.92 0 0 0 .29 0 1.55 1.55 0 0 0 0-3 1.09 1.09 0 0 0 -.26 0" fill="#d1d1d1"/><path d="m126.23 196.72s0-3 0-3"/><ellipse cx="126.4" cy="195.23" fill="#fff" rx=".84" ry="1.52"/><path d="m84.41 163.55a.2.2 0 0 0 -.19-.31h-.31a22.54 22.54 0 0 0 -4.91 6.14 10.78 10.78 0 0 0 -.94 1.72l1.26.06a.36.36 0 0 0 .34-.18z" fill="#333"/><path d="m83.46 163.64h.36a.07.07 0 0 1 .06.1l-4.37 6.86a.4.4 0 0 1 -.34.18l-.9-.05a10.35 10.35 0 0 1 .75-1.32 23.25 23.25 0 0 1 4.44-5.77z"/><path d="m123.46 198.69c-.12-6.56-4.28-11.8-9.28-11.71s-8.55 5.52-8.43 12.08 4.31 11.71 9.31 11.62 8.52-5.43 8.4-11.99z"/><ellipse cx="114.65" cy="199.3" fill="#dfdfdf" rx="5.93" ry="8"/><g clip-path="url(#c)"><path d="m112.67 193.18 1.54 3.72-.48.44-3.17-2.21a3.65 3.65 0 0 1 2.11-1.95z"/><path d="m116.41 197.23-.34-.48.33-4.47a5.07 5.07 0 0 1 2.45 2z"/><path d="m119.22 203.7-2.28-3.1.17-.75 3.12-.09a6.8 6.8 0 0 1 -1.01 3.94z"/><path d="m115.73 206.35-.4-4.29h-.52l-1.4 4a2.18 2.18 0 0 0 2.32.29z"/><path d="m113.25 199.48v.88l-2.87 2.29a11.57 11.57 0 0 1 -.47-3.08z"/><path d="m113.59 197.82-3.14-1.68a9 9 0 0 0 -.32 2.46l3.4.3z"/><path d="m111 203.46 2.63-2.64.78.9-2 3.7s-1.41-1.55-1.41-1.96z"/><path d="m116.78 206-1.08-4.27.82-.63 2.1 3.52s-1.05 1.32-1.84 1.38z"/><path d="m116.16 198.21 3.31-2.8a7.14 7.14 0 0 1 .76 3.24l-3.91.51z"/><path d="m115.6 196.73-.21-4.69a5.57 5.57 0 0 0 -2 .53l1.19 4.27z"/></g><ellipse cx="115.18" cy="199.28" fill="#dfdfdf" rx="2.04" ry="2.81"/><ellipse cx="115.11" cy="199.26" rx=".67" ry=".93"/><path d="m170.05 184.51a12.49 12.49 0 0 1 -4 1.09l.5-6.35 1.64-.84 1.18 4.66a4.71 4.71 0 0 1 .68 1.44z" fill="#fff"/><path d="m91.14 160.73a37.72 37.72 0 0 0 -4.17 1c.15-.45.8-1.4 3.62-2h1.56a2.81 2.81 0 0 0 -1.01 1z"/><path d="m101.94 158.35a3.8 3.8 0 0 1 2.8 1.13 2.28 2.28 0 0 1 .71 1h-2.07a3.59 3.59 0 0 0 -1-.81c-2.79-1.11-11.54 0-13.15.5s-2 1.26-2 1.41l-.35.11-.21.06c1.69-3.52 12.66-3.38 15.27-3.4z" fill="#333"/><g clip-path="url(#d)"><path d="m131.46 173.68 8.78-.75-18.97-13.14-9.1.65z" fill="#333"/></g></svg>