<svg id="svg" version="1.1" xmlns="http://www.w3.org/2000/svg" xmlns:xlink="http://www.w3.org/1999/xlink" width="400" height="333.83458646616543" viewBox="0, 0, 400,333.83458646616543"><g id="svgg"><path id="path0" d="M13.523 9.336 C 13.155 9.488,12.179 9.806,11.352 10.043 C 9.951 10.446,6.423 12.531,4.797 13.917 C 4.406 14.251,3.683 15.260,3.191 16.159 C 2.354 17.687,2.090 18.384,1.011 21.910 C -0.839 27.952,3.051 33.288,17.170 44.073 C 18.011 44.716,20.704 46.820,23.154 48.748 C 25.604 50.676,29.525 53.756,31.866 55.593 C 34.208 57.429,37.800 60.262,39.848 61.888 C 41.897 63.513,44.023 65.159,44.574 65.544 C 45.125 65.930,45.651 66.335,45.743 66.446 C 45.835 66.556,46.511 67.084,47.245 67.619 C 47.980 68.154,49.110 69.048,49.757 69.605 C 50.404 70.162,51.519 71.068,52.236 71.619 C 52.952 72.170,54.001 73.006,54.565 73.477 C 55.130 73.948,56.119 74.697,56.761 75.142 C 57.404 75.587,59.412 77.155,61.223 78.627 C 64.325 81.148,68.486 84.423,71.125 86.422 C 71.772 86.912,74.100 88.745,76.300 90.497 C 78.500 92.249,81.271 94.428,82.457 95.339 C 83.644 96.250,84.921 97.247,85.295 97.556 C 86.143 98.254,90.487 101.674,96.828 106.636 C 97.838 107.426,100.843 109.793,103.506 111.895 C 106.169 113.997,109.023 116.235,109.850 116.869 C 110.676 117.502,111.523 118.173,111.732 118.359 C 111.941 118.545,112.892 119.299,113.845 120.033 C 115.849 121.578,120.789 125.464,122.635 126.948 C 123.331 127.507,124.343 128.284,124.882 128.674 C 125.950 129.445,137.733 138.710,142.118 142.227 C 143.614 143.426,145.621 145.008,146.578 145.743 C 147.535 146.477,150.668 148.943,153.541 151.222 C 158.366 155.048,160.402 156.642,165.243 160.377 C 166.236 161.143,167.617 162.220,168.312 162.771 C 169.008 163.322,171.399 165.200,173.627 166.945 C 175.854 168.689,180.133 172.070,183.136 174.457 C 186.139 176.845,189.371 179.399,190.317 180.134 C 191.264 180.868,193.342 182.494,194.934 183.747 C 196.527 185.000,198.551 186.578,199.433 187.253 C 200.314 187.928,201.685 189.007,202.479 189.649 C 203.272 190.292,205.078 191.720,206.490 192.821 C 207.903 193.923,210.271 195.801,211.752 196.995 C 214.487 199.198,214.931 199.541,218.873 202.504 C 220.095 203.422,221.738 204.699,222.524 205.342 C 224.069 206.606,224.177 206.692,227.335 209.182 C 228.499 210.100,230.775 211.903,232.392 213.189 C 234.008 214.474,236.114 216.127,237.070 216.861 C 238.027 217.596,239.375 218.648,240.067 219.199 C 240.758 219.750,242.105 220.801,243.060 221.536 C 244.015 222.270,245.197 223.223,245.687 223.653 C 246.177 224.083,246.961 224.684,247.430 224.989 C 247.899 225.293,248.875 226.028,249.600 226.621 C 253.034 229.430,255.833 231.670,257.433 232.888 C 258.397 233.623,259.835 234.750,260.627 235.392 C 261.419 236.035,262.763 237.087,263.615 237.730 C 264.466 238.372,266.484 239.950,268.099 241.235 C 269.714 242.521,271.819 244.174,272.778 244.908 C 273.736 245.643,276.222 247.596,278.302 249.249 C 280.381 250.902,282.864 252.855,283.819 253.589 C 284.773 254.324,286.120 255.376,286.811 255.927 C 287.503 256.477,288.857 257.529,289.821 258.264 C 290.785 258.998,292.225 260.125,293.021 260.768 C 293.818 261.411,295.188 262.496,296.066 263.180 C 296.944 263.864,298.734 265.291,300.044 266.352 C 301.353 267.413,303.213 268.881,304.178 269.616 C 305.142 270.351,306.584 271.477,307.382 272.120 C 310.451 274.593,310.941 274.978,311.837 275.626 C 312.345 275.993,313.880 277.195,315.248 278.297 C 316.616 279.399,318.242 280.676,318.861 281.135 C 319.481 281.594,321.856 283.472,324.140 285.309 C 326.424 287.145,328.786 289.023,329.389 289.482 C 333.076 292.291,336.646 295.078,340.906 298.474 C 343.571 300.599,346.338 302.788,347.054 303.339 C 347.770 303.890,349.433 305.167,350.749 306.177 C 352.065 307.187,353.787 308.539,354.576 309.182 C 356.845 311.032,358.386 312.253,360.267 313.689 C 361.229 314.424,362.576 315.476,363.262 316.027 C 363.948 316.578,365.089 317.479,365.798 318.030 C 370.382 321.590,373.219 323.842,374.261 324.744 C 382.100 331.537,393.636 330.330,397.686 322.294 C 398.127 321.418,398.588 320.626,398.711 320.534 C 398.833 320.442,399.040 319.652,399.171 318.777 C 399.302 317.903,399.542 317.105,399.705 317.005 C 400.180 316.711,400.035 312.815,399.489 311.249 C 398.082 307.210,395.324 303.576,391.526 300.758 C 390.717 300.157,386.641 296.962,382.470 293.656 C 378.298 290.351,374.393 287.270,373.793 286.811 C 371.684 285.199,370.097 283.954,367.409 281.803 C 365.918 280.609,363.913 279.032,362.953 278.297 C 361.994 277.563,359.608 275.681,357.650 274.115 C 355.692 272.549,351.686 269.399,348.748 267.113 C 345.810 264.828,342.497 262.203,341.385 261.279 C 340.274 260.355,336.459 257.346,332.908 254.591 C 329.356 251.836,325.815 249.057,325.039 248.414 C 322.792 246.555,322.438 246.273,320.384 244.714 C 317.192 242.291,316.442 241.704,312.521 238.564 C 306.821 234.000,306.389 233.658,304.503 232.220 C 303.539 231.486,302.116 230.359,301.342 229.716 C 300.568 229.073,298.009 227.045,295.655 225.209 C 293.302 223.372,290.734 221.344,289.948 220.701 C 289.163 220.058,287.067 218.406,285.293 217.028 C 283.518 215.651,281.498 214.073,280.805 213.523 C 280.112 212.972,278.757 211.920,277.796 211.185 C 276.834 210.451,275.030 209.023,273.787 208.013 C 272.545 207.003,270.046 205.017,268.235 203.598 C 257.812 195.438,255.870 193.913,255.327 193.465 C 254.777 193.010,256.865 189.849,258.526 188.620 C 258.671 188.514,259.122 187.969,259.528 187.410 C 261.645 184.501,263.440 182.218,265.418 179.923 C 266.625 178.521,268.251 176.568,269.031 175.582 C 269.812 174.596,271.357 172.663,272.466 171.285 C 273.575 169.908,274.884 168.255,275.376 167.613 C 275.868 166.970,276.801 165.827,277.451 165.073 C 278.100 164.320,279.307 162.839,280.134 161.783 C 280.960 160.727,282.162 159.218,282.805 158.430 C 283.447 157.643,284.677 156.119,285.538 155.043 C 286.398 153.968,288.322 151.586,289.812 149.750 C 291.302 147.913,292.702 146.185,292.923 145.910 C 293.143 145.634,293.924 144.658,294.658 143.740 C 295.393 142.821,296.069 141.995,296.163 141.903 C 296.256 141.811,297.533 140.246,299.001 138.424 C 300.468 136.602,302.346 134.297,303.172 133.302 C 305.195 130.865,306.411 129.337,308.070 127.148 C 308.835 126.137,309.662 125.098,309.906 124.839 C 310.395 124.320,312.612 121.604,317.893 115.054 C 322.278 109.615,324.425 106.954,325.759 105.306 C 326.338 104.591,327.417 103.255,328.157 102.337 C 328.898 101.419,330.497 99.466,331.712 97.997 C 332.926 96.528,334.513 94.574,335.238 93.656 C 335.964 92.738,337.160 91.235,337.896 90.317 C 338.633 89.399,339.839 87.896,340.575 86.978 C 341.312 86.060,342.592 84.482,343.420 83.472 C 344.248 82.462,345.560 80.835,346.336 79.856 C 349.346 76.058,349.812 75.479,351.753 73.125 C 358.026 65.519,359.267 62.658,359.506 55.259 C 359.671 50.173,359.466 49.160,357.417 44.908 C 353.862 37.535,347.912 32.686,340.735 31.314 C 337.281 30.654,313.301 30.454,189.816 30.055 L 62.938 29.646 60.100 30.356 C 58.438 30.772,56.310 31.617,54.964 32.395 C 51.757 34.248,52.581 34.658,41.700 25.794 C 39.303 23.841,37.283 22.243,29.419 16.079 C 28.797 15.591,27.520 14.575,26.581 13.821 C 24.538 12.179,21.757 10.654,19.699 10.048 C 18.873 9.804,17.761 9.472,17.229 9.310 C 16.053 8.952,14.425 8.963,13.523 9.336 M34.625 18.187 C 34.955 18.640,35.364 19.015,35.534 19.021 C 35.704 19.027,35.490 18.656,35.058 18.197 C 34.057 17.131,33.854 17.127,34.625 18.187 M100.083 28.295 C 101.598 28.357,104.078 28.357,105.593 28.295 C 107.108 28.233,105.868 28.183,102.838 28.183 C 99.808 28.183,98.568 28.233,100.083 28.295 M108.514 28.381 C 108.514 28.589,110.518 28.715,113.856 28.715 C 117.195 28.715,119.199 28.589,119.199 28.381 C 119.199 28.172,117.195 28.047,113.856 28.047 C 110.518 28.047,108.514 28.172,108.514 28.381 M279.064 28.963 C 280.588 29.025,282.992 29.025,284.407 28.962 C 285.821 28.900,284.574 28.849,281.636 28.850 C 278.698 28.850,277.541 28.901,279.064 28.963 M50.273 30.885 C 50.969 31.561,51.781 32.034,52.199 32.008 C 52.917 31.963,52.918 31.962,52.216 31.824 C 51.828 31.748,51.087 31.242,50.568 30.701 C 50.049 30.159,49.500 29.716,49.347 29.716 C 49.195 29.716,49.611 30.242,50.273 30.885 M330.993 101.252 C 330.621 101.665,330.197 102.229,330.051 102.504 C 329.769 103.036,329.846 102.963,331.198 101.419 C 331.641 100.914,331.928 100.501,331.836 100.501 C 331.744 100.501,331.365 100.839,330.993 101.252 M295.494 145.074 C 295.063 145.532,294.774 145.967,294.851 146.041 C 294.928 146.115,295.388 145.740,295.871 145.208 C 296.355 144.676,296.644 144.240,296.514 144.240 C 296.383 144.240,295.924 144.615,295.494 145.074 M143.907 145.926 C 145.065 146.712,145.724 146.941,144.908 146.274 C 144.449 145.898,143.923 145.590,143.740 145.588 C 143.556 145.587,143.631 145.739,143.907 145.926 M292.844 148.390 C 292.425 148.836,292.161 149.400,292.258 149.642 C 292.395 149.985,292.441 149.976,292.461 149.604 C 292.476 149.341,292.814 148.777,293.213 148.352 C 293.613 147.927,293.864 147.579,293.772 147.579 C 293.681 147.579,293.263 147.944,292.844 148.390 M161.383 229.262 C 161.532 266.937,161.451 265.978,164.925 271.094 C 166.857 273.939,173.418 279.174,196.950 296.647 C 197.434 297.006,200.459 299.260,203.673 301.655 C 206.886 304.050,209.666 306.085,209.850 306.177 C 210.033 306.269,210.872 306.756,211.713 307.261 C 220.221 312.361,231.894 309.204,237.330 300.334 C 240.310 295.471,240.452 294.399,240.623 275.558 C 240.784 257.650,241.152 259.897,237.605 257.095 C 236.559 256.269,235.052 255.067,234.256 254.424 C 233.460 253.781,232.018 252.654,231.052 251.920 C 230.085 251.185,228.659 250.058,227.882 249.416 C 227.106 248.773,224.546 246.745,222.193 244.908 C 219.841 243.072,216.552 240.479,214.885 239.146 C 209.803 235.083,207.515 233.271,202.346 229.215 C 195.377 223.748,192.808 221.718,192.309 221.287 C 192.027 221.044,191.200 220.400,190.472 219.856 C 189.744 219.313,189.073 218.793,188.982 218.700 C 188.890 218.607,188.063 217.933,187.145 217.202 C 186.227 216.471,185.307 215.720,185.100 215.533 C 184.893 215.345,183.178 213.990,181.288 212.521 C 177.302 209.422,166.370 200.762,164.496 199.218 C 163.792 198.638,162.775 197.884,162.236 197.542 L 161.256 196.921 161.383 229.262 M228.381 212.187 C 229.127 212.981,229.382 213.165,229.382 212.906 C 229.382 212.649,228.117 211.352,227.866 211.352 C 227.718 211.352,227.949 211.728,228.381 212.187 M230.384 213.460 C 230.384 213.518,230.872 214.006,231.469 214.545 L 232.554 215.526 231.574 214.441 C 230.659 213.429,230.384 213.202,230.384 213.460 " stroke="none" fill="#1b3454" fill-rule="evenodd"></path><path id="path1" d="M12.598 8.043 C 12.274 8.233,11.748 8.347,11.430 8.299 C 11.112 8.250,10.533 8.386,10.144 8.601 C 9.755 8.816,9.347 8.902,9.238 8.793 C 9.129 8.684,8.857 8.996,8.634 9.486 C 8.411 9.976,8.041 10.304,7.811 10.216 C 7.582 10.128,7.209 10.280,6.983 10.553 C 6.756 10.825,6.370 10.972,6.123 10.877 C 5.877 10.783,5.676 10.824,5.676 10.969 C 5.676 11.114,5.225 11.737,4.674 12.354 C 2.587 14.692,3.739 14.351,6.914 11.690 C 7.136 11.504,7.420 11.352,7.545 11.352 C 7.670 11.352,7.940 11.150,8.143 10.902 C 9.409 9.367,19.086 8.401,20.367 9.683 C 20.459 9.775,21.712 10.451,23.152 11.185 C 24.592 11.920,26.545 13.154,27.493 13.927 C 29.175 15.301,29.561 15.617,32.779 18.254 C 35.992 20.888,36.835 21.545,37.416 21.870 C 37.744 22.053,38.662 22.756,39.457 23.431 C 41.205 24.916,43.498 26.779,45.649 28.461 C 46.527 29.147,48.272 30.537,49.527 31.549 C 50.782 32.561,51.934 33.389,52.087 33.389 C 52.536 33.389,54.420 32.244,54.422 31.970 C 54.423 31.832,54.716 31.720,55.072 31.720 C 55.429 31.720,55.804 31.583,55.907 31.417 C 56.010 31.250,56.958 30.862,58.014 30.554 C 59.070 30.246,60.227 29.836,60.587 29.642 C 61.221 29.301,146.669 29.397,283.973 29.894 C 335.843 30.082,341.413 30.228,342.721 31.428 C 342.896 31.588,343.384 31.720,343.806 31.720 C 344.229 31.720,344.574 31.870,344.574 32.053 C 344.574 32.237,344.883 32.387,345.260 32.387 C 345.637 32.387,346.498 32.763,347.174 33.222 C 347.849 33.681,348.516 34.057,348.655 34.057 C 350.721 34.057,356.801 41.844,358.952 47.245 C 360.396 50.872,360.380 58.894,358.921 62.604 C 358.142 64.586,356.116 68.375,355.350 69.282 C 355.195 69.466,354.814 69.992,354.503 70.451 C 353.909 71.327,352.714 72.773,351.163 74.496 C 350.656 75.060,349.784 76.183,349.227 76.993 C 348.671 77.802,348.110 78.464,347.981 78.465 C 347.852 78.465,347.220 79.240,346.578 80.187 C 345.935 81.134,345.033 82.323,344.574 82.830 C 344.115 83.336,343.063 84.599,342.237 85.637 C 341.411 86.675,340.246 88.078,339.649 88.754 C 339.051 89.430,338.478 90.246,338.374 90.568 C 338.270 90.889,338.045 91.152,337.874 91.152 C 337.703 91.152,337.563 91.291,337.563 91.460 C 337.563 91.630,337.149 92.209,336.644 92.749 C 335.246 94.241,334.131 95.554,333.042 96.989 C 332.498 97.705,331.753 98.610,331.386 99.001 C 331.018 99.391,329.967 100.729,329.048 101.974 C 328.130 103.218,326.973 104.678,326.476 105.217 C 325.980 105.756,325.259 106.639,324.875 107.179 C 324.491 107.718,323.770 108.595,323.273 109.127 C 322.777 109.659,321.694 110.947,320.868 111.990 C 320.042 113.032,318.905 114.442,318.342 115.123 C 317.779 115.804,316.983 116.844,316.574 117.436 C 316.164 118.027,315.423 118.936,314.926 119.457 C 314.430 119.978,313.422 121.203,312.688 122.181 C 311.953 123.158,311.048 124.277,310.676 124.667 C 310.304 125.057,309.555 125.977,309.010 126.711 C 308.466 127.446,307.792 128.272,307.513 128.548 C 307.233 128.823,306.563 129.649,306.024 130.384 C 305.485 131.119,304.953 131.795,304.841 131.886 C 304.730 131.978,304.201 132.654,303.666 133.389 C 303.131 134.124,302.289 135.175,301.796 135.726 C 300.236 137.469,298.672 139.358,297.727 140.639 C 297.224 141.321,296.365 142.369,295.819 142.967 C 295.272 143.566,294.825 144.166,294.825 144.302 C 294.825 144.437,294.533 144.820,294.177 145.152 C 293.541 145.744,293.168 146.206,290.150 150.136 C 289.324 151.212,288.347 152.418,287.980 152.817 C 287.015 153.864,286.477 154.541,286.477 154.710 C 286.477 154.792,285.989 155.388,285.392 156.035 C 283.927 157.624,282.706 159.134,281.429 160.935 C 280.843 161.761,280.173 162.551,279.940 162.690 C 279.708 162.829,279.192 163.469,278.794 164.113 C 278.396 164.757,277.671 165.701,277.182 166.212 C 275.704 167.757,273.649 170.303,273.195 171.153 C 272.959 171.593,272.628 171.953,272.459 171.953 C 272.291 171.953,271.669 172.667,271.078 173.539 C 270.058 175.044,268.726 176.718,266.989 178.678 C 266.560 179.163,265.855 180.064,265.425 180.681 C 264.994 181.298,264.449 181.921,264.215 182.066 C 263.980 182.210,263.309 183.037,262.723 183.902 C 262.137 184.768,261.067 186.152,260.345 186.978 C 258.187 189.450,257.930 189.766,257.090 190.985 C 256.647 191.628,256.066 192.321,255.798 192.525 C 255.379 192.844,255.401 192.970,255.953 193.423 C 257.469 194.666,259.474 196.252,261.102 197.496 C 262.063 198.230,263.471 199.329,264.230 199.937 C 266.214 201.527,266.451 201.713,268.115 202.979 C 268.940 203.608,269.768 204.284,269.954 204.482 C 270.139 204.680,270.816 205.206,271.456 205.653 C 272.097 206.099,272.922 206.736,273.289 207.068 C 273.656 207.401,274.933 208.434,276.127 209.365 C 277.321 210.295,278.748 211.413,279.299 211.848 C 281.768 213.798,286.241 217.311,287.809 218.531 C 288.753 219.265,290.079 220.355,290.756 220.951 C 291.433 221.548,292.077 222.036,292.188 222.036 C 292.299 222.037,292.766 222.375,293.226 222.788 C 293.686 223.201,294.408 223.765,294.832 224.040 C 295.256 224.316,295.847 224.766,296.146 225.042 C 296.840 225.682,299.922 228.159,302.168 229.883 C 303.125 230.618,304.456 231.704,305.126 232.298 C 305.796 232.892,306.607 233.465,306.928 233.573 C 307.250 233.680,307.513 233.888,307.513 234.034 C 307.513 234.180,308.151 234.731,308.932 235.259 C 310.333 236.206,310.938 236.679,315.192 240.160 C 316.386 241.137,317.830 242.262,318.401 242.661 C 318.973 243.059,319.928 243.841,320.523 244.397 C 321.119 244.954,321.821 245.409,322.083 245.409 C 322.344 245.409,322.644 245.631,322.748 245.902 C 322.852 246.173,323.636 246.915,324.490 247.552 C 325.896 248.598,327.224 249.620,330.386 252.087 C 330.975 252.546,332.642 253.871,334.092 255.032 C 335.542 256.193,336.953 257.323,337.229 257.542 C 337.504 257.762,338.328 258.389,339.059 258.937 C 339.789 259.485,340.691 260.183,341.062 260.489 C 342.667 261.810,347.996 266.054,349.589 267.279 C 350.545 268.013,351.498 268.765,351.707 268.948 C 351.916 269.132,352.688 269.725,353.422 270.266 C 354.157 270.807,354.833 271.341,354.925 271.452 C 355.017 271.564,355.693 272.096,356.427 272.636 C 357.162 273.176,358.755 274.445,359.968 275.457 C 361.180 276.468,363.178 278.047,364.406 278.965 C 365.635 279.883,366.822 280.791,367.043 280.983 C 367.426 281.314,372.966 285.708,376.388 288.396 C 378.234 289.845,380.385 291.557,382.157 292.988 C 382.839 293.539,383.639 294.126,383.935 294.292 C 384.232 294.459,385.016 295.060,385.678 295.628 C 386.340 296.196,388.218 297.703,389.852 298.976 C 392.871 301.331,397.663 305.966,397.663 306.533 C 397.663 306.704,397.778 306.845,397.918 306.845 C 398.204 306.845,399.364 309.233,399.701 310.518 C 399.872 311.167,399.930 311.029,399.960 309.897 C 400.033 307.237,396.075 301.169,394.268 301.169 C 394.104 301.169,393.508 300.643,392.944 300.000 C 392.379 299.357,391.693 298.831,391.418 298.831 C 391.144 298.831,390.498 298.381,389.983 297.830 C 389.469 297.279,388.914 296.828,388.750 296.828 C 388.587 296.828,387.895 296.302,387.214 295.659 C 386.533 295.017,385.893 294.491,385.794 294.491 C 385.694 294.491,385.266 294.153,384.842 293.740 C 383.503 292.434,382.188 291.370,380.519 290.243 C 379.629 289.642,378.479 288.699,377.964 288.148 C 377.449 287.596,376.867 287.145,376.672 287.145 C 376.476 287.145,375.790 286.619,375.147 285.977 C 374.505 285.334,373.836 284.808,373.661 284.808 C 373.486 284.808,372.757 284.245,372.040 283.556 C 371.323 282.867,370.185 281.928,369.511 281.469 C 368.837 281.010,368.284 280.522,368.283 280.384 C 368.281 280.246,368.131 280.134,367.947 280.134 C 367.764 280.134,367.057 279.608,366.375 278.965 C 365.694 278.322,364.971 277.796,364.769 277.796 C 364.566 277.796,363.884 277.199,363.252 276.468 C 362.620 275.738,361.923 275.137,361.701 275.133 C 361.480 275.129,360.924 274.750,360.464 274.290 C 360.005 273.831,359.424 273.456,359.172 273.456 C 358.920 273.456,358.275 272.930,357.739 272.287 C 357.203 271.644,356.583 271.119,356.361 271.119 C 356.139 271.119,355.291 270.442,354.476 269.616 C 353.662 268.790,352.841 268.114,352.653 268.114 C 352.464 268.114,351.893 267.672,351.384 267.132 C 350.874 266.591,350.352 266.215,350.223 266.294 C 349.960 266.456,347.913 264.462,347.913 264.043 C 347.913 263.895,347.628 263.773,347.280 263.773 C 346.932 263.773,346.185 263.247,345.621 262.604 C 345.033 261.935,344.281 261.436,343.861 261.436 C 343.458 261.436,343.226 261.338,343.346 261.218 C 343.601 260.962,341.626 259.432,341.042 259.432 C 340.823 259.432,340.375 259.019,340.047 258.514 C 339.294 257.357,338.561 256.785,337.813 256.772 C 337.492 256.766,337.229 256.638,337.229 256.488 C 337.229 255.978,335.336 254.090,334.825 254.090 C 334.546 254.090,334.035 253.715,333.690 253.255 C 333.346 252.796,332.812 252.421,332.505 252.421 C 332.197 252.421,331.574 251.978,331.119 251.438 C 330.664 250.897,330.199 250.546,330.087 250.658 C 329.975 250.771,329.883 250.687,329.883 250.473 C 329.883 250.259,329.583 250.083,329.215 250.083 C 328.848 250.083,328.548 249.949,328.548 249.785 C 328.548 249.389,326.674 247.393,326.483 247.585 C 326.401 247.667,325.750 247.136,325.036 246.405 C 324.322 245.673,323.569 245.075,323.363 245.075 C 323.156 245.075,322.549 244.549,322.013 243.907 C 321.428 243.204,320.738 242.738,320.286 242.738 C 319.871 242.738,319.533 242.577,319.533 242.380 C 319.533 241.909,318.679 241.068,318.201 241.068 C 317.994 241.068,317.917 240.918,318.030 240.735 C 318.147 240.546,317.874 240.401,317.404 240.401 C 316.873 240.401,316.498 240.166,316.366 239.749 C 316.252 239.391,315.566 238.836,314.841 238.517 C 314.116 238.197,313.523 237.837,313.523 237.716 C 313.523 237.338,312.292 236.060,311.927 236.060 C 311.736 236.060,310.942 235.392,310.163 234.574 C 309.385 233.757,308.629 233.119,308.484 233.155 C 308.185 233.231,306.728 232.141,304.666 230.301 C 303.895 229.612,303.076 229.048,302.846 229.048 C 302.616 229.048,301.901 228.447,301.257 227.713 C 300.613 226.978,299.878 226.377,299.624 226.377 C 299.369 226.377,298.834 226.002,298.435 225.543 C 298.036 225.083,297.527 224.708,297.304 224.708 C 297.082 224.708,296.813 224.482,296.707 224.207 C 296.602 223.932,296.375 223.706,296.204 223.706 C 296.033 223.706,295.374 223.218,294.739 222.621 C 292.448 220.468,291.083 219.366,290.704 219.363 C 290.491 219.361,289.962 218.910,289.528 218.361 C 289.095 217.812,288.526 217.362,288.266 217.362 C 288.005 217.362,287.310 216.836,286.720 216.194 C 286.130 215.551,285.495 215.025,285.309 215.025 C 285.123 215.025,284.368 214.462,283.630 213.773 C 282.893 213.084,281.730 212.145,281.047 211.686 C 280.363 211.227,279.803 210.739,279.802 210.601 C 279.801 210.463,279.612 210.349,279.382 210.347 C 279.153 210.345,278.456 209.819,277.833 209.178 C 277.210 208.538,276.557 208.013,276.381 208.013 C 276.205 208.013,275.640 207.563,275.125 207.012 C 274.611 206.461,274.017 206.010,273.806 206.010 C 273.595 206.010,272.881 205.484,272.219 204.841 C 271.558 204.199,270.833 203.673,270.609 203.673 C 270.385 203.673,269.579 202.997,268.817 202.170 C 268.055 201.344,267.227 200.668,266.976 200.668 C 266.726 200.668,266.275 200.292,265.974 199.833 C 265.673 199.374,265.205 198.998,264.934 198.998 C 264.662 198.998,263.877 198.431,263.188 197.737 C 262.500 197.044,261.523 196.296,261.018 196.075 C 260.513 195.854,260.100 195.469,260.100 195.218 C 260.100 194.968,259.424 194.415,258.598 193.990 C 256.840 193.086,256.748 192.672,258.062 191.566 C 258.594 191.119,259.273 190.281,259.571 189.703 C 259.870 189.126,260.488 188.409,260.946 188.109 C 261.403 187.809,261.865 187.214,261.973 186.785 C 262.081 186.357,262.655 185.586,263.249 185.073 C 263.844 184.560,264.612 183.689,264.957 183.139 C 265.302 182.588,266.003 181.722,266.515 181.216 C 267.027 180.709,267.446 180.176,267.446 180.031 C 267.446 179.887,268.041 179.187,268.767 178.478 C 269.494 177.768,270.011 177.061,269.916 176.907 C 269.821 176.754,269.903 176.628,270.097 176.628 C 270.292 176.628,270.451 176.459,270.451 176.252 C 270.451 176.046,271.110 175.297,271.916 174.587 C 272.722 173.878,273.469 172.958,273.575 172.542 C 273.682 172.126,274.225 171.486,274.780 171.119 C 275.336 170.751,275.792 170.183,275.792 169.856 C 275.793 169.529,276.319 168.779,276.962 168.189 C 277.604 167.599,278.130 166.868,278.130 166.564 C 278.130 166.261,278.656 165.551,279.299 164.986 C 279.942 164.422,280.468 163.693,280.468 163.366 C 280.469 163.036,281.129 162.326,281.954 161.770 C 282.770 161.219,283.632 160.392,283.868 159.933 C 284.104 159.474,284.788 158.620,285.388 158.036 C 285.987 157.451,286.477 156.654,286.477 156.263 C 286.477 155.873,286.628 155.646,286.811 155.760 C 286.995 155.873,287.145 155.796,287.145 155.589 C 287.145 155.126,287.980 154.257,288.424 154.257 C 288.603 154.257,288.903 153.816,289.091 153.277 C 289.279 152.738,290.045 151.744,290.793 151.068 C 291.541 150.392,292.159 149.668,292.165 149.460 C 292.179 148.968,293.339 147.579,293.737 147.579 C 293.906 147.579,294.254 147.166,294.509 146.661 C 295.036 145.623,296.494 143.732,296.494 144.089 C 296.494 144.701,297.479 143.408,297.668 142.548 C 297.786 142.010,298.016 141.569,298.179 141.569 C 298.619 141.569,300.501 139.649,300.501 139.199 C 300.501 138.985,301.027 138.314,301.669 137.708 C 302.312 137.102,302.838 136.475,302.838 136.316 C 302.838 136.157,303.511 135.358,304.334 134.541 C 305.157 133.724,305.833 132.855,305.836 132.610 C 305.840 132.365,306.369 131.654,307.012 131.030 C 307.654 130.406,308.180 129.744,308.180 129.560 C 308.180 129.376,308.856 128.568,309.683 127.765 C 310.509 126.962,311.186 126.096,311.186 125.840 C 311.187 125.585,311.627 125.081,312.164 124.721 C 312.702 124.361,313.068 123.948,312.978 123.803 C 312.889 123.658,312.938 123.539,313.087 123.539 C 313.237 123.539,313.556 123.096,313.796 122.553 C 314.036 122.011,314.526 121.475,314.884 121.361 C 315.242 121.247,315.459 121.030,315.366 120.879 C 315.272 120.728,315.420 120.518,315.695 120.413 C 315.969 120.307,316.194 119.953,316.194 119.626 C 316.194 119.299,316.945 118.370,317.863 117.562 C 318.781 116.755,319.533 115.919,319.533 115.706 C 319.533 115.251,321.480 113.189,321.909 113.189 C 322.071 113.189,322.204 112.951,322.204 112.660 C 322.204 112.369,322.730 111.621,323.372 110.996 C 324.015 110.372,324.541 109.709,324.541 109.523 C 324.541 109.336,325.067 108.626,325.710 107.945 C 326.352 107.263,326.878 106.436,326.878 106.107 C 326.878 105.772,327.122 105.509,327.435 105.509 C 327.741 105.509,327.899 105.417,327.786 105.304 C 327.673 105.191,328.098 104.609,328.732 104.012 C 329.365 103.415,329.887 102.719,329.892 102.465 C 329.897 102.211,330.419 101.628,331.052 101.169 C 331.684 100.710,332.206 100.150,332.211 99.926 C 332.216 99.702,332.894 98.801,333.717 97.923 C 334.540 97.045,335.217 96.064,335.220 95.743 C 335.223 95.422,335.353 95.159,335.510 95.159 C 335.937 95.159,337.896 93.205,337.896 92.778 C 337.896 92.574,338.573 91.760,339.399 90.968 C 340.225 90.176,340.902 89.374,340.902 89.185 C 340.902 88.996,341.506 88.282,342.245 87.599 C 342.983 86.915,343.537 86.204,343.475 86.018 C 343.413 85.833,343.853 85.250,344.453 84.723 C 345.053 84.196,345.647 83.441,345.773 83.044 C 345.899 82.648,346.732 81.666,347.625 80.864 C 348.518 80.061,349.249 79.199,349.249 78.949 C 349.249 78.433,350.783 76.795,351.267 76.795 C 351.443 76.795,351.586 76.547,351.586 76.244 C 351.586 75.941,352.112 75.183,352.755 74.559 C 353.397 73.934,353.923 73.205,353.923 72.939 C 353.923 72.672,354.036 72.453,354.174 72.452 C 354.311 72.451,354.800 71.897,355.259 71.221 C 355.718 70.545,356.641 69.328,357.311 68.517 C 358.359 67.247,358.676 66.561,359.119 64.608 C 359.370 63.504,359.718 62.771,359.992 62.771 C 360.165 62.771,360.214 62.621,360.100 62.437 C 359.987 62.254,360.022 62.104,360.178 62.104 C 360.523 62.104,361.348 59.163,361.111 58.779 C 361.018 58.629,361.166 58.321,361.439 58.094 C 362.111 57.536,362.094 54.361,361.411 53.042 C 361.049 52.341,360.955 51.622,361.107 50.722 C 361.282 49.684,361.215 49.374,360.778 49.206 C 360.476 49.090,360.310 48.783,360.410 48.523 C 360.510 48.264,360.247 47.494,359.827 46.814 C 359.407 46.133,359.120 45.313,359.189 44.992 C 359.258 44.670,359.172 44.407,358.998 44.407 C 358.824 44.407,358.596 43.994,358.491 43.489 C 358.387 42.984,357.842 42.073,357.281 41.465 C 356.201 40.295,355.988 39.872,356.678 40.266 C 356.907 40.397,356.682 40.059,356.177 39.516 C 355.672 38.972,355.259 38.427,355.259 38.303 C 355.259 37.884,352.061 34.725,351.636 34.725 C 351.403 34.725,351.306 34.574,351.419 34.391 C 351.533 34.207,351.368 34.057,351.053 34.057 C 350.738 34.057,350.015 33.711,349.447 33.288 C 347.629 31.935,345.895 31.052,345.056 31.052 C 344.607 31.052,344.240 30.902,344.240 30.718 C 344.240 30.534,343.865 30.384,343.406 30.384 C 342.947 30.384,342.571 30.250,342.571 30.085 C 342.571 29.198,293.891 28.801,171.209 28.686 C 136.551 28.654,108.253 28.534,108.323 28.421 C 108.394 28.307,106.047 28.289,103.108 28.381 C 100.169 28.472,97.694 28.433,97.608 28.293 C 97.414 27.977,60.870 28.167,60.552 28.485 C 60.426 28.611,60.043 28.715,59.700 28.715 C 59.358 28.715,59.000 28.918,58.904 29.166 C 58.799 29.440,58.413 29.556,57.919 29.462 C 57.472 29.376,56.841 29.421,56.516 29.562 C 56.192 29.702,55.729 29.858,55.489 29.907 C 55.248 29.957,54.684 30.392,54.236 30.875 C 53.789 31.359,53.422 31.641,53.422 31.503 C 53.422 31.365,53.242 31.432,53.022 31.653 C 52.358 32.316,51.478 32.110,50.468 31.052 C 49.941 30.501,49.367 30.050,49.193 30.050 C 49.018 30.050,48.358 29.452,47.726 28.722 C 47.095 27.992,46.333 27.391,46.033 27.387 C 45.733 27.382,45.087 26.853,44.597 26.210 C 44.107 25.568,43.483 25.042,43.211 25.042 C 42.940 25.042,42.235 24.516,41.645 23.873 C 41.055 23.230,40.299 22.705,39.966 22.705 C 39.632 22.705,39.452 22.554,39.566 22.371 C 39.679 22.187,39.650 22.037,39.501 22.037 C 39.352 22.037,38.505 21.361,37.617 20.534 C 36.730 19.708,35.878 19.032,35.724 19.032 C 35.570 19.032,34.944 18.583,34.333 18.034 C 33.722 17.485,32.799 16.658,32.283 16.197 C 31.766 15.736,31.203 15.359,31.032 15.359 C 30.860 15.359,30.162 14.833,29.480 14.190 C 28.799 13.548,28.108 13.022,27.944 13.022 C 27.781 13.022,27.226 12.571,26.711 12.020 C 26.197 11.469,25.683 11.018,25.569 11.018 C 25.455 11.018,24.802 10.667,24.117 10.237 C 22.852 9.443,21.177 8.857,20.489 8.967 C 20.280 9.000,20.018 8.788,19.906 8.497 C 19.770 8.143,19.480 8.038,19.033 8.180 C 18.649 8.302,18.364 8.241,18.364 8.036 C 18.364 7.571,13.398 7.578,12.598 8.043 M2.755 14.245 C 2.173 14.479,2.232 15.025,2.838 15.025 C 3.114 15.025,3.339 14.800,3.339 14.524 C 3.339 14.249,3.301 14.035,3.255 14.050 C 3.210 14.064,2.984 14.152,2.755 14.245 M1.765 15.811 C 1.946 16.357,2.671 16.462,2.671 15.943 C 2.671 15.683,2.442 15.470,2.161 15.470 C 1.880 15.470,1.702 15.624,1.765 15.811 M1.002 17.648 C -0.189 18.908,-0.488 30.932,0.689 30.204 C 0.861 30.098,1.002 30.245,1.002 30.531 C 1.002 31.199,2.251 32.463,2.505 32.052 C 2.611 31.881,2.387 31.060,2.008 30.228 C 1.629 29.395,1.228 28.261,1.117 27.706 C 1.006 27.151,0.818 26.637,0.698 26.563 C 0.368 26.359,0.893 20.193,1.307 19.420 C 1.506 19.047,1.669 18.431,1.669 18.052 C 1.669 17.673,1.820 17.362,2.003 17.362 C 2.187 17.362,2.337 17.212,2.337 17.028 C 2.337 16.495,1.899 16.699,1.002 17.648 M2.505 32.720 C 2.392 32.903,2.684 33.408,3.153 33.843 C 3.623 34.278,4.007 34.809,4.007 35.022 C 4.007 35.577,6.033 37.730,6.556 37.730 C 6.798 37.730,7.474 38.255,8.059 38.898 C 8.644 39.541,9.297 40.067,9.511 40.067 C 9.725 40.067,10.253 40.442,10.684 40.902 C 11.116 41.361,11.705 41.745,11.995 41.757 C 12.284 41.768,13.047 42.435,13.689 43.239 C 14.332 44.043,15.093 44.710,15.381 44.721 C 15.669 44.732,16.369 45.267,16.938 45.910 C 17.507 46.553,18.138 47.078,18.338 47.078 C 18.539 47.078,19.176 47.529,19.752 48.080 C 20.329 48.631,20.988 49.082,21.217 49.082 C 21.446 49.082,22.095 49.608,22.660 50.250 C 23.224 50.893,23.885 51.419,24.130 51.419 C 24.374 51.419,25.207 52.028,25.981 52.771 C 26.755 53.515,27.504 54.052,27.645 53.965 C 27.786 53.878,28.254 54.321,28.685 54.950 C 29.129 55.598,29.753 56.093,30.124 56.093 C 30.500 56.093,30.855 56.379,30.955 56.761 C 31.051 57.129,31.342 57.429,31.602 57.429 C 31.862 57.429,32.158 57.647,32.260 57.914 C 32.363 58.180,32.952 58.565,33.569 58.769 C 34.187 58.973,34.785 59.431,34.898 59.787 C 35.011 60.143,35.311 60.434,35.566 60.434 C 35.820 60.434,36.539 60.960,37.163 61.603 C 37.787 62.245,38.433 62.776,38.598 62.782 C 39.049 62.798,40.735 64.357,40.735 64.759 C 40.735 64.951,41.047 65.109,41.429 65.109 C 41.810 65.109,42.700 65.710,43.406 66.444 C 44.111 67.179,44.830 67.780,45.002 67.780 C 45.174 67.780,45.825 68.304,46.447 68.945 C 47.070 69.585,47.702 70.111,47.852 70.113 C 48.203 70.118,50.444 71.930,52.090 73.539 C 52.794 74.228,53.506 74.791,53.672 74.791 C 53.838 74.791,54.335 75.176,54.778 75.647 C 55.220 76.117,56.110 76.823,56.756 77.216 C 57.401 77.608,58.173 78.200,58.470 78.530 C 58.767 78.861,59.175 79.132,59.377 79.132 C 59.579 79.132,60.270 79.658,60.913 80.301 C 61.555 80.943,62.168 81.469,62.273 81.469 C 62.379 81.469,62.647 81.622,62.869 81.809 C 64.475 83.164,64.929 83.472,65.315 83.472 C 65.556 83.472,65.930 83.804,66.147 84.210 C 66.560 84.981,67.767 86.113,68.197 86.132 C 68.334 86.139,69.066 86.745,69.823 87.479 C 70.580 88.214,71.324 88.815,71.478 88.815 C 71.631 88.815,72.132 89.190,72.591 89.649 C 73.050 90.109,73.624 90.484,73.868 90.484 C 74.111 90.484,74.531 90.794,74.801 91.172 C 75.071 91.550,76.006 92.300,76.878 92.838 C 77.750 93.376,78.464 93.943,78.464 94.097 C 78.464 94.252,78.876 94.591,79.380 94.852 C 79.884 95.112,80.855 95.889,81.537 96.578 C 82.220 97.266,82.972 97.834,83.209 97.840 C 83.446 97.846,84.158 98.372,84.792 99.009 C 85.426 99.646,86.122 100.167,86.340 100.167 C 86.557 100.167,86.981 100.543,87.281 101.002 C 87.621 101.520,88.142 101.836,88.655 101.836 C 89.110 101.836,89.482 101.982,89.482 102.159 C 89.482 102.675,91.792 104.841,92.342 104.841 C 92.617 104.841,92.942 105.101,93.064 105.418 C 93.336 106.129,94.796 107.513,95.273 107.513 C 95.465 107.513,96.007 107.877,96.476 108.323 C 96.945 108.769,97.543 109.182,97.805 109.241 C 98.066 109.301,98.720 109.837,99.258 110.434 C 99.796 111.031,100.429 111.519,100.665 111.519 C 100.901 111.519,101.448 111.969,101.882 112.518 C 102.316 113.067,102.915 113.518,103.213 113.520 C 103.511 113.521,104.187 114.023,104.715 114.636 C 105.244 115.248,106.127 116.034,106.678 116.383 C 107.229 116.731,108.078 117.432,108.565 117.941 C 109.052 118.449,109.579 118.865,109.737 118.865 C 109.894 118.865,110.429 119.240,110.924 119.699 C 111.419 120.159,112.018 120.537,112.256 120.541 C 112.493 120.545,113.137 121.071,113.686 121.710 C 114.235 122.349,114.843 122.871,115.036 122.871 C 115.229 122.871,115.944 123.397,116.626 124.040 C 117.307 124.683,118.032 125.209,118.236 125.209 C 118.440 125.209,119.121 125.795,119.748 126.511 C 120.376 127.227,121.223 127.899,121.630 128.003 C 122.037 128.108,122.671 128.649,123.038 129.204 C 123.406 129.760,123.901 130.216,124.139 130.216 C 124.377 130.217,124.947 130.593,125.406 131.052 C 125.865 131.511,126.441 131.886,126.686 131.886 C 126.931 131.886,127.658 132.487,128.302 133.222 C 128.946 133.957,129.643 134.558,129.851 134.558 C 130.058 134.558,130.901 135.260,131.723 136.118 C 132.545 136.976,133.314 137.582,133.431 137.465 C 133.548 137.348,134.060 137.698,134.569 138.242 C 135.077 138.787,135.661 139.232,135.866 139.232 C 136.071 139.232,136.750 139.758,137.374 140.401 C 137.998 141.043,138.772 141.569,139.093 141.569 C 139.414 141.569,139.580 141.667,139.461 141.786 C 139.146 142.100,140.961 143.572,141.663 143.572 C 141.990 143.572,142.345 143.798,142.450 144.073 C 142.556 144.349,142.852 144.574,143.108 144.574 C 143.363 144.574,143.573 144.772,143.573 145.014 C 143.573 145.255,144.184 145.797,144.932 146.217 C 145.680 146.637,146.385 147.228,146.499 147.531 C 146.799 148.323,147.455 148.915,148.032 148.915 C 148.307 148.915,148.828 149.290,149.189 149.750 C 149.550 150.209,150.162 150.584,150.549 150.584 C 150.963 150.584,151.252 150.798,151.252 151.105 C 151.252 151.391,151.402 151.533,151.586 151.419 C 151.770 151.306,151.920 151.392,151.920 151.611 C 151.920 152.121,153.126 153.170,154.046 153.460 C 154.438 153.584,155.001 153.964,155.298 154.305 C 155.595 154.646,155.981 154.925,156.156 154.925 C 156.331 154.925,156.801 155.301,157.200 155.760 C 157.599 156.219,158.067 156.594,158.239 156.594 C 158.412 156.594,158.649 156.897,158.766 157.267 C 158.884 157.637,159.125 157.850,159.302 157.740 C 159.480 157.630,160.203 158.154,160.909 158.904 C 161.615 159.654,162.338 160.267,162.516 160.267 C 162.694 160.267,163.311 160.718,163.887 161.269 C 164.464 161.820,165.050 162.272,165.189 162.273 C 165.328 162.275,165.996 162.801,166.672 163.442 C 167.349 164.083,168.025 164.611,168.175 164.614 C 168.325 164.618,169.047 165.143,169.779 165.783 C 170.512 166.422,171.230 166.945,171.375 166.945 C 171.521 166.945,172.101 167.471,172.666 168.114 C 173.230 168.756,173.842 169.282,174.025 169.282 C 174.208 169.282,174.883 169.808,175.526 170.451 C 176.169 171.093,177.005 171.619,177.385 171.619 C 177.764 171.619,177.977 171.717,177.858 171.836 C 177.635 172.059,179.265 173.622,179.722 173.622 C 179.863 173.623,180.489 174.149,181.113 174.791 C 181.737 175.434,182.406 175.960,182.599 175.960 C 182.792 175.960,183.459 176.470,184.082 177.093 C 184.705 177.716,185.837 178.637,186.597 179.140 C 187.358 179.644,187.980 180.186,187.980 180.345 C 187.980 180.504,188.206 180.634,188.482 180.634 C 188.758 180.634,189.512 181.220,190.159 181.936 C 190.806 182.651,191.697 183.328,192.139 183.439 C 192.582 183.550,193.039 183.941,193.156 184.308 C 193.272 184.675,193.622 184.975,193.932 184.975 C 194.548 184.975,196.327 186.474,196.327 186.992 C 196.327 187.168,196.568 187.312,196.861 187.312 C 197.155 187.312,197.922 187.838,198.564 188.481 C 199.207 189.124,199.952 189.649,200.220 189.649 C 200.488 189.649,200.614 189.800,200.501 189.983 C 200.387 190.167,200.504 190.317,200.760 190.317 C 201.016 190.317,201.631 190.773,202.128 191.331 C 202.625 191.888,203.159 192.265,203.316 192.168 C 203.472 192.071,204.142 192.592,204.804 193.325 C 205.466 194.058,206.207 194.658,206.450 194.658 C 206.693 194.658,207.311 195.184,207.823 195.826 C 208.336 196.469,209.002 196.995,209.303 196.995 C 209.605 196.995,210.278 197.446,210.798 197.998 C 211.319 198.549,212.069 199.082,212.467 199.182 C 212.864 199.282,213.528 199.883,213.943 200.517 C 214.404 201.221,214.968 201.669,215.393 201.669 C 215.808 201.669,216.160 201.939,216.264 202.337 C 216.360 202.705,216.646 203.005,216.900 203.005 C 217.154 203.005,217.362 203.155,217.362 203.339 C 217.362 203.523,217.663 203.673,218.030 203.673 C 218.397 203.673,218.698 203.816,218.698 203.992 C 218.698 204.458,220.327 206.010,220.816 206.010 C 221.046 206.010,221.753 206.531,222.387 207.168 C 223.021 207.805,223.732 208.331,223.967 208.337 C 224.202 208.342,224.856 208.873,225.419 209.515 C 225.983 210.157,226.558 210.612,226.696 210.527 C 226.834 210.441,227.634 211.029,228.472 211.833 C 229.311 212.636,230.272 213.382,230.608 213.490 C 230.944 213.597,231.519 214.137,231.886 214.688 C 232.254 215.240,232.758 215.691,233.007 215.692 C 233.256 215.692,233.755 216.068,234.116 216.528 C 234.478 216.987,235.034 217.362,235.353 217.362 C 235.672 217.362,236.450 217.960,237.082 218.690 C 237.713 219.421,238.402 220.022,238.613 220.026 C 238.823 220.030,239.711 220.710,240.587 221.537 C 241.463 222.364,242.236 222.983,242.306 222.913 C 242.377 222.843,242.916 223.220,243.504 223.750 C 245.580 225.619,246.077 226.017,246.077 225.813 C 246.077 225.700,246.357 225.931,246.700 226.326 C 247.043 226.722,247.456 227.046,247.618 227.048 C 247.781 227.050,248.467 227.575,249.143 228.217 C 249.819 228.858,250.479 229.382,250.609 229.382 C 250.739 229.382,251.277 229.833,251.803 230.384 C 252.330 230.935,252.903 231.386,253.077 231.386 C 253.252 231.386,254.026 231.987,254.798 232.721 C 255.570 233.456,256.386 234.057,256.611 234.057 C 256.836 234.057,257.375 234.506,257.809 235.055 C 258.243 235.605,258.782 236.055,259.007 236.057 C 259.232 236.059,259.895 236.586,260.480 237.229 C 261.064 237.871,261.722 238.397,261.942 238.397 C 262.161 238.397,262.716 238.850,263.175 239.404 C 263.633 239.958,264.594 240.703,265.310 241.060 C 266.025 241.417,266.488 241.716,266.337 241.723 C 265.963 241.741,266.984 242.738,267.376 242.738 C 267.758 242.738,270.338 244.745,272.417 246.659 C 273.264 247.439,274.074 248.077,274.218 248.078 C 274.362 248.079,274.921 248.531,275.459 249.082 C 275.998 249.633,276.665 250.083,276.943 250.083 C 277.220 250.083,277.693 250.459,277.994 250.918 C 278.295 251.377,278.749 251.753,279.003 251.753 C 279.258 251.753,279.466 251.903,279.466 252.087 C 279.466 252.270,279.626 252.421,279.823 252.421 C 280.019 252.421,280.875 253.097,281.725 253.923 C 282.575 254.750,283.433 255.426,283.632 255.426 C 283.830 255.426,284.205 255.721,284.465 256.081 C 284.725 256.442,285.352 256.828,285.859 256.939 C 286.366 257.050,286.873 257.432,286.986 257.786 C 287.098 258.141,287.330 258.431,287.502 258.431 C 287.673 258.431,287.813 258.656,287.813 258.932 C 287.813 259.215,288.112 259.432,288.502 259.432 C 288.881 259.432,289.571 259.883,290.035 260.434 C 290.498 260.985,291.165 261.436,291.515 261.436 C 291.866 261.436,292.154 261.597,292.154 261.793 C 292.154 262.256,293.003 263.105,293.465 263.105 C 293.662 263.105,293.823 263.255,293.823 263.439 C 293.823 263.623,294.041 263.773,294.308 263.773 C 294.574 263.773,295.303 264.299,295.928 264.942 C 296.552 265.584,297.273 266.111,297.530 266.111 C 297.786 266.112,298.297 266.562,298.664 267.112 C 299.032 267.662,299.568 268.112,299.856 268.113 C 300.145 268.113,300.971 268.756,301.693 269.542 C 302.415 270.327,303.410 271.147,303.906 271.363 C 304.401 271.579,305.057 272.138,305.363 272.606 C 305.669 273.073,306.092 273.456,306.302 273.456 C 306.513 273.456,307.090 273.831,307.585 274.290 C 308.080 274.750,308.648 275.125,308.847 275.125 C 309.046 275.125,309.798 275.726,310.518 276.461 C 311.238 277.195,311.976 277.796,312.159 277.796 C 312.341 277.796,312.866 278.172,313.325 278.631 C 313.784 279.090,314.297 279.466,314.465 279.466 C 314.633 279.466,315.446 280.142,316.273 280.968 C 317.099 281.795,317.909 282.471,318.073 282.471 C 318.486 282.471,320.200 284.096,320.200 284.488 C 320.200 284.664,320.492 284.808,320.849 284.808 C 321.206 284.808,321.694 285.078,321.934 285.408 C 322.174 285.737,322.912 286.337,323.574 286.740 C 324.235 287.143,325.060 287.850,325.406 288.311 C 325.752 288.772,326.220 289.149,326.445 289.149 C 326.671 289.149,327.382 289.674,328.024 290.317 C 328.667 290.960,329.329 291.486,329.496 291.486 C 329.663 291.486,330.373 292.012,331.075 292.654 C 331.777 293.297,332.465 293.823,332.603 293.823 C 332.742 293.823,333.367 294.349,333.991 294.992 C 334.615 295.634,335.285 296.160,335.480 296.160 C 335.675 296.160,336.223 296.623,336.698 297.188 C 337.174 297.753,337.567 298.091,337.573 297.939 C 337.578 297.787,337.736 297.926,337.923 298.247 C 338.110 298.568,338.460 298.831,338.701 298.831 C 338.942 298.831,339.421 299.207,339.765 299.666 C 340.111 300.126,340.732 300.501,341.148 300.501 C 341.563 300.501,341.903 300.614,341.904 300.751 C 341.905 301.567,346.366 305.175,347.374 305.175 C 347.670 305.175,347.876 305.363,347.830 305.593 C 347.784 305.822,347.934 305.972,348.164 305.927 C 348.393 305.881,348.581 306.013,348.581 306.221 C 348.581 306.682,349.876 307.846,350.389 307.846 C 350.593 307.846,351.050 308.234,351.406 308.707 C 351.761 309.180,352.510 309.803,353.071 310.092 C 353.632 310.380,354.333 310.895,354.630 311.235 C 354.927 311.575,355.491 311.853,355.882 311.853 C 356.274 311.853,356.594 311.997,356.594 312.173 C 356.594 312.616,358.334 314.190,358.822 314.190 C 359.041 314.190,359.563 314.679,359.983 315.275 C 360.865 316.530,361.503 317.224,361.758 317.207 C 362.583 317.152,363.016 317.229,362.845 317.399 C 362.576 317.669,364.407 319.199,364.999 319.199 C 365.544 319.199,366.644 320.390,366.361 320.673 C 366.254 320.780,366.425 320.868,366.742 320.868 C 367.059 320.868,367.225 321.018,367.112 321.202 C 366.994 321.393,367.294 321.536,367.816 321.536 C 368.316 321.536,368.629 321.632,368.512 321.750 C 368.279 321.982,370.262 323.859,370.748 323.868 C 370.912 323.871,371.477 324.324,372.003 324.875 C 372.530 325.426,373.147 325.876,373.375 325.876 C 373.603 325.876,374.209 326.402,374.722 327.045 C 375.235 327.688,375.851 328.214,376.091 328.214 C 376.332 328.214,377.235 328.589,378.098 329.048 C 378.962 329.508,379.952 329.883,380.298 329.883 C 380.645 329.883,381.022 330.033,381.135 330.217 C 381.249 330.401,381.708 330.551,382.157 330.551 C 382.605 330.551,382.972 330.679,382.972 330.835 C 382.972 331.205,387.949 331.205,388.178 330.835 C 388.274 330.679,388.870 330.551,389.502 330.551 C 390.134 330.551,390.651 330.431,390.651 330.284 C 390.651 330.137,391.177 329.827,391.820 329.595 C 392.462 329.362,392.988 329.044,392.988 328.886 C 392.988 328.729,393.402 328.510,393.907 328.398 C 394.443 328.280,395.061 327.783,395.393 327.203 C 395.706 326.657,396.128 326.210,396.331 326.210 C 396.534 326.210,396.592 326.398,396.460 326.628 C 396.328 326.857,396.624 326.677,397.118 326.226 C 397.612 325.776,397.942 325.213,397.850 324.974 C 397.759 324.736,397.829 324.541,398.007 324.541 C 398.185 324.541,398.331 324.253,398.331 323.901 C 398.331 323.549,398.518 323.192,398.748 323.108 C 399.082 322.986,399.082 322.866,398.748 322.513 C 398.403 322.147,398.331 322.157,398.331 322.570 C 398.331 324.016,392.334 328.380,389.076 329.305 C 386.825 329.945,380.634 329.602,380.634 328.838 C 380.634 328.678,380.414 328.548,380.145 328.548 C 379.646 328.548,377.303 327.327,375.399 326.074 C 374.815 325.690,372.862 324.169,371.059 322.694 C 369.255 321.219,367.216 319.666,366.528 319.244 C 365.839 318.822,365.275 318.358,365.275 318.214 C 365.275 318.070,364.712 317.556,364.023 317.071 C 363.335 316.587,362.149 315.703,361.388 315.107 C 360.627 314.511,359.350 313.531,358.550 312.929 C 356.514 311.397,354.964 310.134,354.133 309.330 C 353.742 308.952,352.859 308.301,352.170 307.883 C 351.482 307.466,350.918 306.990,350.918 306.826 C 350.918 306.662,350.494 306.309,349.975 306.040 C 349.456 305.772,348.539 305.092,347.936 304.529 C 347.334 303.966,346.738 303.506,346.612 303.506 C 346.486 303.506,345.849 303.018,345.197 302.421 C 344.544 301.824,343.218 300.735,342.250 300.000 C 341.281 299.265,339.923 298.214,339.232 297.663 C 338.541 297.112,337.190 296.060,336.230 295.326 C 333.740 293.420,330.863 291.109,329.890 290.234 C 329.431 289.821,328.937 289.482,328.793 289.482 C 328.648 289.482,328.014 289.013,327.383 288.439 C 326.752 287.865,325.793 287.076,325.251 286.686 C 324.421 286.089,322.588 284.638,318.323 281.205 C 317.934 280.891,317.282 280.409,316.875 280.134 C 316.468 279.858,315.735 279.290,315.246 278.872 C 314.757 278.454,314.207 277.996,314.023 277.856 C 311.813 276.168,307.178 272.444,306.382 271.717 C 305.820 271.204,305.266 270.785,305.150 270.785 C 305.034 270.785,304.563 270.447,304.103 270.033 C 303.643 269.620,302.926 269.057,302.509 268.781 C 301.730 268.267,301.448 268.047,298.777 265.874 C 295.894 263.530,294.664 262.577,293.489 261.778 C 292.846 261.341,292.076 260.747,291.777 260.458 C 291.479 260.169,290.445 259.332,289.480 258.598 C 287.671 257.221,285.147 255.171,283.973 254.125 C 283.606 253.798,282.667 253.110,281.886 252.597 C 281.106 252.084,280.467 251.566,280.467 251.447 C 280.467 251.327,279.999 250.952,279.426 250.614 C 278.853 250.276,277.989 249.654,277.506 249.232 C 274.884 246.943,273.852 246.126,272.871 245.559 C 272.275 245.214,271.786 244.815,271.786 244.673 C 271.786 244.532,271.199 244.045,270.481 243.591 C 269.762 243.138,268.812 242.422,268.370 242.001 C 267.927 241.580,266.760 240.634,265.776 239.900 C 264.793 239.165,263.636 238.230,263.205 237.821 C 262.775 237.412,262.147 236.930,261.811 236.750 C 261.475 236.570,260.599 235.928,259.864 235.323 C 259.130 234.718,257.947 233.773,257.235 233.222 C 256.523 232.671,254.807 231.319,253.422 230.217 C 248.855 226.583,248.388 226.217,247.311 225.439 C 246.162 224.609,244.801 223.505,242.818 221.794 C 242.131 221.201,241.467 220.713,241.343 220.709 C 241.218 220.705,240.918 220.506,240.675 220.268 C 240.432 220.029,238.806 218.719,237.062 217.356 C 235.317 215.994,233.815 214.798,233.723 214.700 C 233.631 214.601,232.960 214.076,232.232 213.532 C 231.504 212.989,230.665 212.314,230.367 212.032 C 230.070 211.750,229.477 211.294,229.050 211.018 C 228.363 210.574,226.481 209.085,222.513 205.843 C 221.838 205.292,220.671 204.421,219.919 203.908 C 219.167 203.394,218.471 202.858,218.374 202.716 C 218.277 202.574,217.145 201.670,215.860 200.706 C 214.574 199.742,212.743 198.279,211.790 197.456 C 210.837 196.632,209.485 195.569,208.785 195.095 C 208.085 194.620,207.212 193.954,206.845 193.615 C 206.477 193.275,205.619 192.582,204.938 192.075 C 202.533 190.283,198.493 187.164,198.135 186.823 C 197.936 186.633,197.349 186.177,196.830 185.810 C 196.311 185.442,195.347 184.679,194.688 184.113 C 194.029 183.547,192.062 181.969,190.317 180.607 C 188.573 179.245,186.920 177.951,186.644 177.732 C 186.369 177.514,184.641 176.174,182.805 174.756 C 180.968 173.337,179.391 172.079,179.299 171.959 C 179.125 171.732,176.565 169.720,174.617 168.280 C 173.996 167.821,172.222 166.439,170.676 165.208 C 169.130 163.977,167.496 162.700,167.045 162.370 C 166.594 162.040,165.884 161.469,165.467 161.102 C 164.217 160.001,163.165 159.153,161.763 158.114 C 161.032 157.573,160.359 157.037,160.267 156.924 C 160.175 156.810,159.424 156.236,158.598 155.647 C 156.441 154.112,152.736 151.206,151.291 149.917 C 150.628 149.326,148.549 147.689,147.260 146.745 C 145.473 145.435,141.956 142.688,137.905 139.438 C 135.642 137.623,132.499 135.159,130.919 133.962 C 129.339 132.766,127.128 131.020,126.005 130.084 C 124.882 129.147,123.632 128.155,123.226 127.880 C 122.820 127.604,121.936 126.891,121.261 126.294 C 120.586 125.697,119.921 125.209,119.783 125.209 C 119.645 125.209,119.269 124.946,118.946 124.624 C 118.624 124.303,116.633 122.692,114.522 121.044 C 112.411 119.396,110.521 117.893,110.322 117.705 C 110.123 117.516,109.541 117.062,109.028 116.694 C 108.516 116.327,107.627 115.651,107.053 115.192 C 106.479 114.733,105.860 114.252,105.676 114.122 C 105.492 113.992,104.366 113.090,103.172 112.118 C 101.978 111.146,100.401 109.908,99.666 109.367 C 98.932 108.825,98.255 108.292,98.164 108.180 C 98.027 108.014,92.653 103.848,89.123 101.171 C 88.650 100.812,87.889 100.176,87.432 99.758 C 86.975 99.340,85.409 98.103,83.952 97.008 C 82.495 95.913,80.835 94.636,80.265 94.170 C 78.492 92.721,78.005 92.340,76.628 91.321 C 75.893 90.777,74.391 89.571,73.289 88.640 C 72.187 87.709,70.083 86.052,68.614 84.959 C 67.145 83.866,65.868 82.889,65.776 82.789 C 65.527 82.516,57.465 76.111,55.927 74.964 C 55.192 74.416,54.366 73.789,54.090 73.571 C 53.815 73.352,51.185 71.286,48.247 68.980 C 45.309 66.673,42.679 64.596,42.403 64.363 C 41.949 63.981,33.022 56.980,32.220 56.378 C 32.037 56.240,31.285 55.626,30.551 55.014 C 28.985 53.709,26.042 51.435,23.618 49.658 C 22.672 48.965,21.817 48.279,21.717 48.135 C 21.618 47.991,19.733 46.496,17.529 44.813 C 15.326 43.130,13.372 41.630,13.189 41.479 C 13.005 41.328,11.653 40.254,10.184 39.092 C 6.954 36.539,4.138 33.925,3.664 33.039 C 3.283 32.327,2.826 32.201,2.505 32.720 M161.799 196.451 C 161.896 196.703,162.680 197.409,163.542 198.020 C 164.404 198.631,165.184 199.222,165.275 199.333 C 165.367 199.444,166.038 199.977,166.767 200.518 C 167.495 201.060,168.340 201.728,168.644 202.003 C 168.948 202.279,170.056 203.180,171.106 204.007 C 172.157 204.833,173.586 205.960,174.282 206.511 C 174.978 207.062,176.336 208.114,177.300 208.848 C 178.264 209.583,179.689 210.710,180.467 211.352 C 181.245 211.995,182.664 213.122,183.620 213.856 C 184.576 214.591,185.796 215.605,186.332 216.110 C 186.868 216.615,187.432 217.028,187.585 217.028 C 187.739 217.028,188.601 217.705,189.501 218.531 C 190.401 219.357,191.328 220.033,191.562 220.033 C 191.796 220.033,191.987 220.170,191.987 220.336 C 191.987 220.502,192.725 221.169,193.628 221.818 C 194.531 222.467,195.545 223.223,195.882 223.498 C 196.219 223.774,197.170 224.541,197.997 225.204 C 198.823 225.867,200.163 226.965,200.975 227.645 C 201.787 228.325,202.860 229.182,203.359 229.549 C 204.932 230.707,206.819 232.198,207.512 232.830 C 207.880 233.166,208.593 233.687,209.098 233.987 C 209.604 234.288,210.017 234.645,210.017 234.780 C 210.017 234.916,210.730 235.513,211.603 236.108 C 212.475 236.703,213.235 237.302,213.293 237.438 C 213.350 237.575,214.139 238.163,215.046 238.744 C 215.953 239.326,216.695 239.900,216.695 240.018 C 216.695 240.137,217.372 240.661,218.198 241.183 C 219.025 241.705,219.814 242.318,219.951 242.544 C 220.088 242.771,221.461 243.921,223.003 245.101 C 224.544 246.280,226.497 247.806,227.343 248.491 C 228.189 249.176,229.470 250.151,230.189 250.658 C 230.908 251.166,231.893 251.958,232.378 252.418 C 233.332 253.323,233.841 253.735,235.893 255.263 C 236.628 255.809,237.318 256.378,237.426 256.526 C 237.535 256.675,238.361 257.279,239.263 257.869 L 240.902 258.941 240.997 274.128 C 241.115 292.688,240.757 295.933,238.169 299.827 C 237.743 300.467,237.396 301.095,237.396 301.224 C 237.396 301.352,236.419 302.449,235.225 303.660 C 232.932 305.988,232.653 306.511,233.702 306.511 C 234.409 306.511,237.730 303.283,237.730 302.596 C 237.730 302.362,237.858 302.170,238.015 302.170 C 238.479 302.170,241.023 296.776,241.243 295.326 C 241.354 294.591,241.665 293.373,241.934 292.618 C 242.343 291.472,242.408 288.639,242.330 275.383 L 242.237 259.519 240.902 258.004 C 240.167 257.171,239.331 256.399,239.043 256.288 C 238.755 256.178,237.795 255.413,236.910 254.588 C 236.024 253.763,235.133 253.087,234.929 253.085 C 234.725 253.084,234.203 252.633,233.769 252.084 C 233.335 251.535,232.769 251.085,232.511 251.085 C 232.253 251.085,231.531 250.559,230.907 249.917 C 230.283 249.274,229.611 248.748,229.415 248.748 C 229.218 248.748,228.567 248.227,227.968 247.591 C 227.368 246.955,226.670 246.391,226.415 246.339 C 226.160 246.287,225.352 245.605,224.619 244.825 C 223.887 244.044,223.109 243.406,222.891 243.406 C 222.674 243.406,222.075 242.967,221.562 242.431 C 221.048 241.895,220.269 241.366,219.830 241.256 C 219.391 241.146,219.032 240.931,219.032 240.779 C 219.032 240.277,217.794 239.065,217.282 239.065 C 217.006 239.065,216.330 238.539,215.781 237.896 C 215.232 237.254,214.599 236.728,214.373 236.728 C 214.148 236.728,213.316 236.062,212.525 235.247 C 211.733 234.433,211.019 233.833,210.938 233.915 C 210.856 233.996,210.317 233.611,209.738 233.058 C 209.160 232.506,208.486 232.053,208.239 232.053 C 207.993 232.053,207.308 231.452,206.718 230.718 C 206.128 229.983,205.442 229.382,205.194 229.382 C 204.946 229.382,204.282 228.856,203.718 228.214 C 203.153 227.571,202.481 227.045,202.223 227.045 C 201.965 227.045,201.305 226.519,200.756 225.876 C 200.207 225.234,199.581 224.708,199.364 224.708 C 199.147 224.708,198.564 224.332,198.069 223.873 C 197.574 223.414,197.032 223.038,196.865 223.038 C 196.698 223.038,195.922 222.362,195.142 221.536 C 194.361 220.710,193.444 220.030,193.105 220.025 C 192.765 220.021,192.045 219.420,191.505 218.690 C 190.965 217.960,190.300 217.362,190.026 217.362 C 189.753 217.362,189.048 216.836,188.459 216.194 C 187.871 215.551,187.071 215.025,186.683 215.025 C 186.278 215.025,185.977 214.812,185.977 214.524 C 185.977 214.249,185.742 214.023,185.456 214.023 C 185.170 214.023,185.028 213.873,185.142 213.689 C 185.255 213.506,185.065 213.356,184.719 213.356 C 184.062 213.356,183.421 212.810,182.272 211.269 C 181.863 210.720,181.271 210.351,180.800 210.351 C 180.305 210.351,179.933 210.102,179.800 209.683 C 179.683 209.316,179.448 209.015,179.276 209.015 C 179.105 209.015,178.965 208.790,178.965 208.514 C 178.965 208.199,178.647 208.013,178.111 208.013 C 177.626 208.013,177.345 207.869,177.462 207.679 C 177.576 207.496,177.547 207.345,177.399 207.344 C 177.250 207.343,176.648 206.892,176.062 206.342 C 175.475 205.792,174.841 205.342,174.654 205.342 C 174.466 205.342,173.749 204.779,173.061 204.090 C 172.372 203.402,171.692 202.838,171.550 202.838 C 171.407 202.838,170.758 202.350,170.108 201.753 C 169.458 201.156,168.716 200.668,168.459 200.668 C 168.202 200.668,167.896 200.365,167.778 199.995 C 167.661 199.625,167.453 199.392,167.316 199.476 C 167.179 199.561,166.856 199.338,166.598 198.980 C 166.340 198.623,165.998 198.331,165.836 198.331 C 165.675 198.331,165.017 197.805,164.374 197.162 C 163.205 195.993,161.436 195.505,161.799 196.451 M159.819 196.553 C 159.445 196.927,159.558 263.105,159.933 263.105 C 160.117 263.105,160.267 263.631,160.267 264.274 C 160.267 264.917,160.417 265.442,160.601 265.442 C 160.785 265.442,160.935 265.809,160.935 266.257 C 160.935 266.706,161.085 267.165,161.269 267.279 C 161.452 267.392,161.603 267.854,161.603 268.305 C 161.603 269.292,162.149 270.299,163.272 271.381 C 163.731 271.823,164.107 272.294,164.107 272.428 C 164.107 272.562,164.514 273.111,165.012 273.648 C 165.510 274.185,166.224 274.985,166.598 275.427 C 166.973 275.868,167.279 276.120,167.279 275.987 C 167.279 275.854,167.504 275.971,167.780 276.246 C 168.055 276.522,168.280 276.844,168.280 276.962 C 168.280 277.227,169.193 278.158,169.437 278.142 C 170.293 278.085,170.618 278.186,170.618 278.508 C 170.618 279.001,171.928 280.134,172.497 280.134 C 172.741 280.134,173.186 280.509,173.486 280.968 C 173.787 281.427,174.165 281.803,174.325 281.803 C 174.669 281.803,178.747 284.840,178.909 285.217 C 178.971 285.359,179.204 285.476,179.428 285.476 C 179.652 285.476,180.343 285.999,180.963 286.639 C 181.584 287.279,182.170 287.725,182.266 287.629 C 182.362 287.533,182.823 287.839,183.290 288.310 C 184.119 289.144,185.087 289.868,187.813 291.693 C 188.548 292.185,189.199 292.715,189.260 292.871 C 189.321 293.027,189.567 293.155,189.807 293.155 C 190.046 293.155,190.597 293.605,191.031 294.154 C 191.465 294.703,192.001 295.154,192.222 295.156 C 192.443 295.157,193.000 295.534,193.459 295.993 C 193.918 296.452,194.427 296.828,194.591 296.828 C 194.754 296.828,195.174 297.144,195.523 297.530 C 195.873 297.916,196.610 298.464,197.161 298.748 C 197.713 299.032,198.469 299.618,198.842 300.049 C 199.215 300.481,199.691 300.835,199.899 300.835 C 200.107 300.835,200.703 301.285,201.223 301.836 C 201.743 302.387,202.348 302.838,202.568 302.838 C 202.787 302.838,203.163 303.115,203.403 303.453 C 203.643 303.791,204.478 304.469,205.259 304.959 C 206.039 305.450,206.678 306.000,206.678 306.181 C 206.678 306.362,206.971 306.511,207.329 306.511 C 207.687 306.511,208.100 306.717,208.247 306.969 C 208.577 307.535,211.258 308.848,212.083 308.848 C 212.416 308.848,212.688 309.073,212.688 309.349 C 212.688 309.624,212.838 309.869,213.022 309.891 C 213.374 309.936,213.857 310.047,214.274 310.180 C 214.412 310.224,214.764 310.238,215.057 310.210 C 215.351 310.182,215.782 310.390,216.016 310.672 C 216.302 311.016,217.028 311.185,218.218 311.185 C 219.195 311.185,220.087 311.336,220.200 311.519 C 220.515 312.029,222.367 311.918,222.574 311.377 C 222.703 311.040,223.087 310.955,223.893 311.086 C 224.644 311.208,225.309 311.087,225.858 310.727 C 226.314 310.428,226.918 310.184,227.200 310.184 C 227.482 310.184,227.713 310.033,227.713 309.850 C 227.713 309.444,228.000 309.444,224.267 309.860 C 220.359 310.296,213.469 309.475,212.688 308.480 C 212.596 308.363,211.694 307.770,210.684 307.160 C 209.674 306.551,208.372 305.668,207.790 305.197 C 207.209 304.726,206.007 303.815,205.119 303.172 C 204.232 302.529,203.306 301.815,203.062 301.584 C 202.819 301.353,202.293 300.991,201.894 300.778 C 201.173 300.395,198.926 298.713,198.062 297.911 C 197.814 297.680,197.298 297.324,196.917 297.120 C 196.535 296.916,195.908 296.456,195.524 296.098 C 195.139 295.741,193.022 294.109,190.818 292.473 C 188.614 290.837,186.436 289.209,185.977 288.856 C 185.518 288.502,184.316 287.609,183.306 286.870 C 179.976 284.434,177.340 282.422,175.488 280.904 C 175.137 280.616,174.348 280.085,173.735 279.723 C 173.122 279.362,172.621 278.955,172.621 278.819 C 172.621 278.683,172.283 278.415,171.870 278.225 C 170.219 277.464,165.104 272.582,164.250 270.952 C 163.109 268.775,162.926 268.424,162.604 267.784 C 162.421 267.419,162.270 266.893,162.270 266.616 C 162.270 266.338,162.145 266.110,161.991 266.110 C 161.163 266.110,160.934 257.862,160.934 228.004 C 160.935 196.750,160.890 195.482,159.819 196.553 M231.725 306.716 C 231.269 306.955,230.743 307.352,230.557 307.598 C 230.370 307.843,229.729 308.244,229.132 308.487 C 228.535 308.730,228.047 309.052,228.047 309.203 C 228.047 309.731,228.665 309.851,229.108 309.408 C 229.354 309.162,229.981 308.854,230.500 308.724 C 231.614 308.444,233.264 306.905,232.846 306.537 C 232.685 306.396,232.181 306.476,231.725 306.716 M399.757 319.533 C 399.757 320.359,399.822 320.697,399.902 320.284 C 399.981 319.871,399.981 319.194,399.902 318.781 C 399.822 318.368,399.757 318.706,399.757 319.533 M398.998 321.703 C 398.998 321.978,399.149 322.204,399.332 322.204 C 399.516 322.204,399.666 321.978,399.666 321.703 C 399.666 321.427,399.516 321.202,399.332 321.202 C 399.149 321.202,398.998 321.427,398.998 321.703 " stroke="none" fill="#6c7b91" fill-rule="evenodd"></path><path id="path2" d="M12.688 9.349 C 12.243 9.637,12.243 9.673,12.688 9.673 C 12.963 9.673,13.414 9.527,13.689 9.349 C 14.135 9.061,14.135 9.025,13.689 9.025 C 13.414 9.025,12.963 9.171,12.688 9.349 M22.705 11.172 C 22.705 11.264,23.268 11.632,23.957 11.991 C 24.645 12.349,25.960 13.262,26.878 14.019 C 27.796 14.776,28.777 15.575,29.058 15.795 C 29.339 16.014,30.278 16.767,31.145 17.468 C 32.012 18.169,32.721 18.595,32.721 18.414 C 32.721 18.233,32.577 18.036,32.402 17.974 C 32.094 17.867,30.028 16.243,26.836 13.597 C 25.383 12.393,22.705 10.820,22.705 11.172 M5.754 12.786 C 3.934 14.240,2.798 15.597,3.125 15.925 C 3.229 16.028,3.491 15.724,3.708 15.248 C 3.924 14.773,4.982 13.743,6.058 12.960 C 7.133 12.176,8.013 11.494,8.013 11.444 C 8.013 11.129,7.294 11.557,5.754 12.786 M1.669 18.337 C 1.669 18.689,1.570 19.252,1.449 19.589 C 1.328 19.925,1.333 20.108,1.460 19.995 C 1.872 19.628,2.309 17.696,1.980 17.696 C 1.809 17.696,1.669 17.984,1.669 18.337 M34.848 20.276 C 35.191 20.679,36.280 21.565,37.268 22.246 C 38.257 22.926,39.065 23.572,39.065 23.681 C 39.065 23.790,39.403 24.090,39.816 24.347 C 41.237 25.232,39.730 23.724,37.730 22.260 C 36.720 21.520,35.818 20.829,35.726 20.725 C 35.634 20.620,35.259 20.311,34.891 20.039 C 34.233 19.551,34.232 19.554,34.848 20.276 M42.030 26.057 C 42.834 26.784,43.656 27.379,43.857 27.379 C 44.058 27.379,43.851 27.121,43.396 26.805 C 42.942 26.489,42.226 25.888,41.805 25.469 C 41.383 25.050,40.932 24.714,40.803 24.722 C 40.673 24.729,41.226 25.330,42.030 26.057 M1.527 28.692 C 1.758 29.520,3.001 31.738,3.004 31.325 C 3.004 31.199,2.622 30.373,2.153 29.488 C 1.685 28.604,1.403 28.245,1.527 28.692 M69.048 28.295 C 70.571 28.357,72.975 28.357,74.390 28.295 C 75.804 28.232,74.558 28.181,71.619 28.182 C 68.681 28.182,67.524 28.233,69.048 28.295 M268.046 28.963 C 269.570 29.025,271.974 29.025,273.388 28.962 C 274.803 28.900,273.556 28.849,270.618 28.850 C 267.679 28.850,266.522 28.901,268.046 28.963 M330.647 29.296 C 331.709 29.362,333.362 29.361,334.319 29.294 C 335.277 29.227,334.407 29.173,332.387 29.173 C 330.367 29.174,329.584 29.229,330.647 29.296 M62.771 29.461 C 62.863 29.555,94.416 29.739,132.888 29.871 C 171.361 30.002,202.755 30.026,202.653 29.922 C 202.550 29.819,170.998 29.635,132.536 29.513 C 94.073 29.390,62.679 29.367,62.771 29.461 M59.833 30.046 C 59.227 30.189,58.637 30.401,58.522 30.516 C 58.300 30.737,60.033 30.445,61.436 30.024 C 62.595 29.676,61.319 29.694,59.833 30.046 M257.095 30.235 C 257.371 30.294,275.551 30.391,297.496 30.450 C 319.441 30.509,335.743 30.463,333.723 30.346 C 330.076 30.137,256.136 30.029,257.095 30.235 M54.591 32.225 C 53.122 33.043,52.111 33.714,52.344 33.717 C 52.577 33.720,53.396 33.327,54.163 32.842 C 54.930 32.358,56.167 31.685,56.911 31.347 C 57.655 31.009,58.038 30.734,57.763 30.735 C 57.487 30.737,56.060 31.407,54.591 32.225 M339.065 31.049 C 339.703 31.326,342.165 31.515,341.875 31.266 C 341.799 31.200,340.985 31.059,340.067 30.953 C 338.993 30.829,338.635 30.863,339.065 31.049 M49.386 31.825 C 49.900 32.473,51.753 33.867,51.753 33.607 C 51.753 33.518,51.114 32.947,50.334 32.338 C 49.553 31.730,49.127 31.499,49.386 31.825 M2.644 32.266 C 2.251 32.750,2.250 32.802,2.634 32.570 C 2.964 32.371,3.630 32.859,4.937 34.259 C 6.574 36.010,6.084 35.237,3.899 32.619 C 3.168 31.743,3.087 31.720,2.644 32.266 M346.912 33.405 C 348.070 34.191,348.729 34.420,347.913 33.753 C 347.454 33.377,346.928 33.069,346.745 33.068 C 346.561 33.066,346.636 33.218,346.912 33.405 M349.917 35.150 C 349.917 35.201,351.081 36.365,352.504 37.738 L 355.092 40.234 352.596 37.646 C 350.278 35.243,349.917 34.906,349.917 35.150 M7.012 36.171 C 7.012 36.263,7.613 36.814,8.347 37.396 C 9.082 37.977,9.683 38.378,9.683 38.286 C 9.683 38.195,9.082 37.644,8.347 37.062 C 7.613 36.480,7.012 36.079,7.012 36.171 M11.185 39.569 C 12.859 41.108,15.025 42.843,15.025 42.644 C 15.025 42.561,13.861 41.559,12.437 40.417 C 11.014 39.275,10.451 38.894,11.185 39.569 M355.216 40.902 C 355.396 41.269,355.788 41.870,356.087 42.237 L 356.631 42.905 356.303 42.237 C 356.123 41.870,355.731 41.269,355.432 40.902 L 354.888 40.234 355.216 40.902 M16.371 43.656 C 16.377 43.794,16.790 44.195,17.289 44.547 L 18.197 45.188 17.388 44.297 C 16.537 43.360,16.354 43.245,16.371 43.656 M18.531 45.290 C 20.231 46.798,20.857 47.238,20.202 46.463 C 19.838 46.033,19.238 45.526,18.869 45.337 C 18.499 45.148,18.347 45.127,18.531 45.290 M358.183 46.583 C 358.412 47.780,358.840 47.908,358.666 46.727 C 358.587 46.186,358.410 45.743,358.272 45.743 C 358.135 45.743,358.095 46.121,358.183 46.583 M21.136 47.304 C 21.269 47.521,22.009 48.197,22.780 48.807 C 23.551 49.417,24.073 49.740,23.939 49.524 C 23.806 49.307,23.066 48.631,22.295 48.021 C 21.524 47.411,21.002 47.088,21.136 47.304 M358.978 48.414 C 358.978 48.689,359.108 49.215,359.265 49.583 C 359.446 50.004,359.552 50.065,359.552 49.750 C 359.552 49.474,359.423 48.948,359.265 48.581 C 359.085 48.160,358.978 48.098,358.978 48.414 M26.982 52.081 C 27.589 52.674,28.157 53.090,28.243 53.004 C 28.329 52.918,27.831 52.432,27.138 51.925 L 25.876 51.002 26.982 52.081 M359.724 55.259 C 359.725 57.279,359.780 58.062,359.846 56.999 C 359.913 55.937,359.912 54.284,359.845 53.327 C 359.778 52.369,359.723 53.239,359.724 55.259 M31.739 55.645 C 31.758 55.927,35.058 58.566,35.058 58.300 C 35.058 58.222,34.307 57.530,33.389 56.761 C 32.471 55.993,31.728 55.490,31.739 55.645 M35.697 58.877 C 35.956 59.199,36.632 59.789,37.199 60.186 C 37.971 60.727,38.112 60.761,37.759 60.322 C 37.500 59.999,36.824 59.410,36.257 59.012 C 35.485 58.472,35.344 58.438,35.697 58.877 M359.140 59.946 C 359.025 60.245,358.944 60.739,358.960 61.046 C 358.976 61.352,359.121 61.159,359.283 60.618 C 359.598 59.564,359.487 59.042,359.140 59.946 M357.808 63.985 C 357.492 64.649,357.302 65.260,357.386 65.344 C 357.470 65.428,357.797 64.953,358.112 64.289 C 358.427 63.625,358.617 63.013,358.534 62.930 C 358.451 62.848,358.125 63.322,357.808 63.985 M356.506 66.864 L 355.917 67.947 356.590 67.158 C 357.162 66.488,357.468 65.771,357.179 65.778 C 357.133 65.780,356.830 66.268,356.506 66.864 M46.188 67.022 C 46.288 67.183,47.317 68.050,48.477 68.948 C 49.636 69.847,50.291 70.244,49.933 69.832 C 49.252 69.048,45.873 66.512,46.188 67.022 M354.877 69.199 C 354.337 69.969,354.287 70.146,354.706 69.810 C 355.301 69.333,356.083 68.114,355.794 68.114 C 355.708 68.114,355.296 68.602,354.877 69.199 M353.040 71.564 C 352.516 72.176,351.336 73.619,350.417 74.771 C 349.499 75.923,348.222 77.509,347.579 78.297 C 346.937 79.085,345.735 80.589,344.908 81.640 C 344.082 82.691,342.805 84.267,342.070 85.142 C 341.336 86.017,340.058 87.591,339.232 88.640 C 338.406 89.690,337.091 91.314,336.311 92.249 C 335.530 93.185,334.891 94.094,334.891 94.271 C 334.891 94.447,335.342 94.005,335.892 93.289 C 337.513 91.180,338.937 89.398,341.068 86.816 C 342.170 85.480,343.364 83.994,343.721 83.513 C 344.078 83.031,344.829 82.094,345.390 81.430 C 345.952 80.766,347.087 79.353,347.913 78.291 C 348.740 77.228,349.716 76.035,350.083 75.639 C 350.451 75.243,351.194 74.327,351.735 73.603 C 352.275 72.879,352.912 72.168,353.149 72.022 C 353.585 71.756,354.404 70.451,354.136 70.451 C 354.057 70.451,353.564 70.952,353.040 71.564 M56.737 75.353 C 60.244 78.235,64.805 81.789,64.627 81.500 C 64.358 81.065,58.275 76.179,56.761 75.182 L 55.593 74.412 56.737 75.353 M65.109 81.914 C 65.109 82.006,65.710 82.557,66.444 83.139 C 67.179 83.720,67.780 84.121,67.780 84.029 C 67.780 83.938,67.179 83.386,66.444 82.805 C 65.710 82.223,65.109 81.822,65.109 81.914 M68.114 84.256 C 68.114 84.345,68.752 84.916,69.533 85.525 C 70.313 86.134,70.740 86.365,70.480 86.038 C 69.966 85.390,68.114 83.996,68.114 84.256 M72.415 87.588 C 72.941 88.234,77.129 91.576,77.129 91.349 C 77.129 91.267,75.964 90.260,74.541 89.110 C 73.118 87.961,72.161 87.276,72.415 87.588 M77.462 91.597 C 77.462 91.688,78.063 92.240,78.798 92.821 C 79.533 93.403,80.134 93.804,80.134 93.712 C 80.134 93.620,79.533 93.069,78.798 92.487 C 78.063 91.906,77.462 91.505,77.462 91.597 M80.480 94.045 C 80.493 94.319,83.139 96.283,83.139 96.018 C 83.139 95.944,82.538 95.406,81.803 94.825 C 81.068 94.243,80.473 93.892,80.480 94.045 M333.030 96.336 C 332.349 97.167,331.851 97.897,331.923 97.960 C 331.995 98.022,332.619 97.342,333.311 96.449 C 334.896 94.401,334.685 94.316,333.030 96.336 M87.646 99.684 C 88.381 100.359,90.184 101.802,91.653 102.893 C 93.122 103.983,93.854 104.454,93.279 103.940 C 92.705 103.426,90.902 101.982,89.273 100.732 C 87.644 99.481,86.912 99.010,87.646 99.684 M329.854 100.250 C 329.034 101.215,327.844 102.679,327.211 103.506 C 326.578 104.332,325.982 105.083,325.885 105.175 C 325.065 105.955,322.934 108.801,323.272 108.665 C 323.511 108.569,324.082 107.988,324.541 107.374 C 325.000 106.760,326.277 105.167,327.379 103.833 C 329.579 101.170,331.619 98.497,331.453 98.497 C 331.394 98.497,330.675 99.286,329.854 100.250 M94.992 105.390 C 96.692 106.898,97.318 107.338,96.662 106.563 C 96.299 106.133,95.699 105.626,95.329 105.437 C 94.960 105.248,94.808 105.227,94.992 105.390 M97.496 107.277 C 97.496 107.375,98.509 108.257,99.748 109.237 C 102.328 111.278,103.397 112.162,104.067 112.811 C 104.327 113.062,104.607 113.201,104.689 113.119 C 104.771 113.036,103.825 112.159,102.586 111.169 C 101.347 110.179,99.695 108.858,98.915 108.233 C 98.134 107.609,97.496 107.178,97.496 107.277 M320.965 111.269 C 319.195 113.203,314.569 119.199,314.847 119.199 C 315.019 119.199,315.622 118.526,316.188 117.705 C 316.753 116.883,317.774 115.544,318.458 114.728 C 321.548 111.039,322.968 109.079,320.965 111.269 M106.048 114.250 C 107.528 115.368,107.815 115.457,106.691 114.450 C 106.133 113.950,105.543 113.536,105.381 113.532 C 105.218 113.527,105.519 113.850,106.048 114.250 M312.833 121.285 C 312.029 122.250,311.635 122.827,311.958 122.570 C 312.608 122.052,314.664 119.533,314.438 119.533 C 314.359 119.533,313.637 120.321,312.833 121.285 M114.858 120.956 C 114.858 121.030,115.497 121.598,116.277 122.218 C 117.058 122.838,117.484 123.082,117.225 122.759 C 116.737 122.151,114.858 120.721,114.858 120.956 M119.533 124.683 C 119.533 124.758,120.134 125.295,120.868 125.876 C 121.603 126.458,122.198 126.809,122.191 126.656 C 122.179 126.382,119.533 124.418,119.533 124.683 M308.867 126.137 C 308.235 127.004,307.334 128.158,306.864 128.702 C 306.394 129.246,306.275 129.488,306.599 129.241 C 307.384 128.642,310.599 124.538,310.273 124.551 C 310.132 124.557,309.499 125.271,308.867 126.137 M124.374 128.426 C 124.558 128.587,125.233 129.169,125.875 129.719 L 127.043 130.718 126.209 129.769 C 125.751 129.247,125.075 128.665,124.708 128.476 C 124.341 128.287,124.190 128.264,124.374 128.426 M127.713 131.114 C 128.602 132.033,141.051 141.748,140.783 141.313 C 140.605 141.026,137.714 138.729,128.548 131.594 C 127.721 130.950,127.346 130.735,127.713 131.114 M304.305 131.970 C 303.754 132.567,302.759 133.731,302.095 134.558 C 301.431 135.384,300.397 136.643,299.798 137.356 C 298.937 138.382,298.862 138.571,299.438 138.263 C 299.839 138.048,300.167 137.730,300.167 137.554 C 300.167 137.379,300.881 136.407,301.753 135.395 C 304.632 132.053,305.588 130.885,305.446 130.885 C 305.369 130.885,304.856 131.373,304.305 131.970 M297.449 140.317 C 296.842 141.098,296.265 141.811,296.169 141.903 C 295.472 142.565,293.499 145.238,293.717 145.223 C 294.071 145.198,299.030 138.898,298.696 138.898 C 298.618 138.898,298.057 139.537,297.449 140.317 M141.336 141.795 C 141.469 142.011,142.209 142.688,142.980 143.298 C 143.751 143.908,144.273 144.231,144.140 144.014 C 144.006 143.798,143.266 143.122,142.495 142.512 C 141.725 141.902,141.203 141.579,141.336 141.795 M145.743 145.376 C 146.477 146.041,147.379 146.748,147.746 146.945 C 148.529 147.367,146.862 145.884,145.409 144.867 C 144.755 144.409,144.871 144.586,145.743 145.376 M292.321 146.561 C 291.953 147.098,290.150 149.370,288.314 151.609 C 286.477 153.848,284.524 156.250,283.973 156.945 C 283.422 157.641,282.337 159.011,281.561 159.990 C 280.785 160.969,279.472 162.596,278.642 163.606 C 277.812 164.616,276.644 166.063,276.046 166.821 C 275.448 167.579,274.008 169.382,272.847 170.828 C 271.685 172.273,271.234 172.921,271.845 172.266 C 272.455 171.612,273.706 170.130,274.624 168.972 C 275.543 167.814,276.895 166.158,277.629 165.291 C 278.364 164.425,279.309 163.308,279.730 162.808 C 280.151 162.309,281.029 161.157,281.681 160.249 C 282.334 159.341,282.971 158.598,283.098 158.598 C 283.225 158.598,283.610 158.121,283.955 157.537 C 284.299 156.954,285.572 155.339,286.784 153.948 C 287.996 152.557,289.422 150.818,289.953 150.083 C 290.483 149.349,291.083 148.598,291.285 148.414 C 291.995 147.769,293.520 145.576,293.256 145.580 C 293.109 145.583,292.688 146.024,292.321 146.561 M152.047 150.186 C 152.169 150.383,153.639 151.626,155.314 152.947 C 156.989 154.268,158.259 155.187,158.137 154.990 C 158.015 154.792,156.545 153.550,154.870 152.228 C 153.195 150.907,151.925 149.988,152.047 150.186 M161.603 157.701 C 161.603 157.783,162.154 158.271,162.828 158.786 C 163.503 159.300,163.949 159.550,163.820 159.342 C 163.556 158.914,161.603 157.469,161.603 157.701 M166.955 162.096 C 168.510 163.343,170.008 164.514,170.284 164.697 C 171.240 165.336,168.383 162.764,166.660 161.436 C 163.726 159.173,163.959 159.694,166.955 162.096 M171.326 165.549 C 171.575 165.950,171.920 166.277,172.091 166.277 C 172.262 166.277,172.676 166.526,173.012 166.830 C 173.348 167.134,173.623 167.297,173.623 167.192 C 173.623 167.087,173.004 166.511,172.247 165.911 C 171.189 165.074,170.976 164.990,171.326 165.549 M173.957 167.390 C 173.957 167.481,174.558 168.033,175.292 168.614 C 176.027 169.196,176.628 169.597,176.628 169.505 C 176.628 169.413,176.027 168.862,175.292 168.280 C 174.558 167.699,173.957 167.298,173.957 167.390 M177.977 170.530 C 177.995 170.849,182.972 174.838,182.972 174.533 C 182.972 174.452,181.845 173.461,180.467 172.331 C 179.090 171.200,177.970 170.390,177.977 170.530 M269.115 175.495 C 268.289 176.523,266.559 178.590,265.271 180.089 C 263.983 181.587,262.569 183.337,262.129 183.978 C 261.689 184.618,261.014 185.524,260.631 185.992 C 260.247 186.460,260.384 186.365,260.935 185.782 C 261.486 185.198,262.688 183.787,263.606 182.645 C 264.524 181.504,265.876 179.848,266.611 178.966 C 269.215 175.837,270.287 174.504,270.551 174.066 C 271.095 173.162,270.576 173.679,269.115 175.495 M183.610 175.064 C 184.124 175.712,185.977 177.106,185.977 176.845 C 185.977 176.757,185.338 176.186,184.558 175.577 C 183.777 174.968,183.351 174.737,183.610 175.064 M189.326 179.549 C 189.332 179.687,189.745 180.088,190.244 180.441 L 191.152 181.082 190.342 180.190 C 189.492 179.254,189.309 179.138,189.326 179.549 M192.619 182.092 C 192.875 182.402,194.753 183.938,196.793 185.505 C 198.832 187.073,200.040 187.933,199.476 187.417 C 197.871 185.945,192.100 181.464,192.619 182.092 M201.182 188.857 C 201.557 189.201,202.233 189.782,202.685 190.148 L 203.506 190.813 202.671 189.867 C 202.212 189.346,201.536 188.765,201.169 188.576 C 200.518 188.240,200.518 188.247,201.182 188.857 M256.544 190.796 C 254.646 193.108,254.641 193.033,256.761 194.600 L 258.264 195.711 256.660 194.258 L 255.056 192.806 255.825 192.097 C 256.917 191.091,258.854 188.642,258.533 188.675 C 258.385 188.690,257.490 189.645,256.544 190.796 M203.673 190.767 C 203.673 190.856,204.311 191.427,205.092 192.036 C 205.872 192.644,206.299 192.875,206.040 192.549 C 205.525 191.901,203.673 190.507,203.673 190.767 M207.551 193.887 C 208.124 194.403,209.551 195.574,210.723 196.489 C 211.896 197.404,212.930 198.231,213.022 198.325 C 213.645 198.968,214.761 199.757,214.560 199.413 C 214.310 198.985,210.734 196.059,208.013 194.055 C 206.827 193.181,206.730 193.146,207.551 193.887 M160.810 196.260 C 160.598 196.603,160.983 197.138,161.519 197.245 C 161.993 197.340,162.017 197.260,161.734 196.521 C 161.516 195.953,161.076 195.829,160.810 196.260 M260.023 197.062 C 260.257 197.347,261.609 198.462,263.028 199.540 C 264.448 200.618,266.886 202.515,268.447 203.757 C 270.008 204.999,271.886 206.479,272.621 207.048 L 273.957 208.081 272.758 206.962 C 272.099 206.347,270.017 204.641,268.132 203.172 C 266.247 201.703,264.529 200.351,264.316 200.167 C 263.034 199.063,259.670 196.630,260.023 197.062 M165.442 199.892 C 165.859 200.342,173.391 206.358,177.629 209.626 C 179.374 210.971,180.337 211.647,179.770 211.127 C 177.913 209.427,164.618 199.002,165.442 199.892 M215.192 199.881 C 216.892 201.389,217.518 201.829,216.863 201.054 C 216.499 200.624,215.899 200.117,215.530 199.928 C 215.160 199.739,215.008 199.718,215.192 199.881 M218.030 202.108 C 218.030 202.190,218.582 202.679,219.256 203.193 C 219.930 203.707,220.376 203.957,220.247 203.749 C 219.983 203.321,218.030 201.876,218.030 202.108 M221.577 204.925 C 223.164 206.419,225.042 207.740,225.042 207.363 C 225.042 207.170,224.920 207.012,224.771 207.012 C 224.623 207.012,223.709 206.336,222.741 205.509 C 220.807 203.858,220.031 203.469,221.577 204.925 M225.387 207.906 C 225.394 208.057,226.689 209.157,228.266 210.351 C 229.844 211.544,231.521 212.818,231.995 213.182 C 232.468 213.546,232.749 213.671,232.619 213.460 C 232.489 213.249,231.294 212.246,229.964 211.230 C 228.634 210.215,227.058 208.990,226.461 208.508 C 225.864 208.026,225.381 207.755,225.387 207.906 M274.428 208.460 C 274.916 209.067,276.795 210.498,276.795 210.262 C 276.795 210.189,276.156 209.621,275.376 209.001 C 274.595 208.380,274.169 208.137,274.428 208.460 M277.256 210.608 C 277.488 210.995,279.904 212.921,282.100 214.471 C 283.240 215.276,281.478 213.702,279.800 212.418 C 279.157 211.926,278.556 211.447,278.464 211.354 C 277.879 210.762,277.035 210.242,277.256 210.608 M181.803 212.849 C 182.354 213.335,183.331 214.135,183.973 214.627 C 184.616 215.119,185.217 215.603,185.309 215.702 C 185.401 215.801,186.227 216.478,187.145 217.207 C 188.063 217.935,188.975 218.681,189.172 218.865 C 189.369 219.048,190.082 219.574,190.756 220.033 C 191.431 220.492,191.983 220.976,191.984 221.107 C 191.986 221.238,192.325 221.520,192.738 221.732 L 193.489 222.119 192.759 221.416 C 192.058 220.743,189.927 218.996,187.202 216.861 C 186.498 216.311,185.221 215.298,184.364 214.612 C 183.506 213.926,182.354 213.050,181.803 212.665 L 180.801 211.965 181.803 212.849 M236.368 216.474 C 236.629 216.800,237.755 217.744,238.872 218.570 C 239.988 219.396,240.429 219.650,239.852 219.135 C 238.008 217.487,235.877 215.859,236.368 216.474 M286.311 217.830 C 287.045 218.496,287.947 219.202,288.314 219.399 C 289.097 219.821,287.430 218.338,285.977 217.321 C 285.323 216.863,285.439 217.040,286.311 217.830 M241.235 220.281 C 241.967 221.075,244.915 223.372,245.203 223.372 C 245.482 223.372,244.696 222.726,241.903 220.660 C 241.352 220.252,241.052 220.082,241.235 220.281 M193.656 222.149 C 193.656 222.232,194.953 223.330,196.538 224.589 C 198.122 225.848,199.963 227.310,200.628 227.839 L 201.836 228.799 200.628 227.672 C 198.531 225.715,193.656 221.854,193.656 222.149 M292.821 222.847 C 292.821 222.921,293.422 223.458,294.157 224.040 C 294.891 224.622,295.487 224.973,295.480 224.819 C 295.467 224.545,292.821 222.582,292.821 222.847 M247.927 225.585 C 248.302 225.929,248.978 226.510,249.429 226.876 L 250.250 227.541 249.416 226.595 C 248.957 226.074,248.280 225.493,247.913 225.304 C 247.262 224.968,247.263 224.975,247.927 225.585 M251.433 228.264 C 251.447 228.534,254.008 230.676,255.541 231.699 C 256.505 232.342,256.002 231.860,253.506 229.747 C 252.358 228.776,251.425 228.108,251.433 228.264 M202.838 229.543 C 203.389 230.032,204.591 231.012,205.509 231.720 C 206.427 232.428,207.930 233.613,208.848 234.352 C 211.431 236.431,212.802 237.377,211.352 236.080 C 210.710 235.504,209.658 234.627,209.015 234.130 C 208.372 233.633,207.771 233.139,207.679 233.034 C 207.497 232.824,204.101 230.252,202.708 229.268 C 202.040 228.797,202.071 228.862,202.838 229.543 M301.682 229.883 C 303.036 231.182,306.073 233.522,306.601 233.674 C 306.827 233.739,306.636 233.522,306.177 233.193 C 305.718 232.863,305.267 232.501,305.175 232.389 C 305.083 232.277,304.407 231.751,303.673 231.220 C 302.938 230.689,301.955 229.946,301.487 229.568 C 301.019 229.190,301.107 229.332,301.682 229.883 M257.457 233.105 C 258.580 234.154,259.322 234.770,260.935 235.991 C 261.302 236.269,261.057 235.985,260.391 235.360 C 259.725 234.735,258.523 233.720,257.720 233.105 L 256.260 231.986 257.457 233.105 M261.937 236.609 C 263.637 238.117,264.263 238.557,263.607 237.782 C 263.243 237.352,262.644 236.845,262.274 236.656 C 261.905 236.467,261.753 236.446,261.937 236.609 M311.853 237.840 C 311.853 237.932,312.454 238.483,313.189 239.065 C 313.923 239.647,314.524 240.048,314.524 239.956 C 314.524 239.864,313.923 239.313,313.189 238.731 C 312.454 238.149,311.853 237.749,311.853 237.840 M265.609 239.510 C 266.344 240.176,268.072 241.585,269.449 242.642 C 270.826 243.700,272.028 244.650,272.120 244.754 C 272.212 244.858,272.888 245.385,273.623 245.926 C 274.357 246.466,275.033 246.984,275.125 247.077 C 275.217 247.169,275.593 247.453,275.960 247.706 C 277.153 248.530,274.610 246.282,272.794 244.908 C 271.823 244.174,269.734 242.536,268.152 241.270 C 264.650 238.467,263.836 237.904,265.609 239.510 M214.691 238.842 C 214.691 238.934,216.457 240.381,218.614 242.057 C 220.772 243.734,221.937 244.556,221.202 243.884 C 220.467 243.211,219.056 242.040,218.066 241.280 C 217.077 240.521,215.912 239.624,215.479 239.288 C 215.046 238.951,214.691 238.750,214.691 238.842 M315.197 240.535 C 315.635 241.096,317.501 242.602,320.164 244.541 L 321.035 245.175 320.200 244.363 C 319.741 243.917,318.765 243.106,318.030 242.562 C 317.295 242.018,316.619 241.497,316.528 241.404 C 315.723 240.590,314.740 239.948,315.197 240.535 M321.874 245.780 C 323.242 247.082,324.159 247.731,323.569 246.979 C 323.310 246.649,322.634 246.065,322.066 245.681 L 321.035 244.982 321.874 245.780 M324.515 247.849 C 325.136 248.640,328.882 251.487,328.879 251.166 C 328.878 251.030,328.319 250.543,327.637 250.083 C 326.956 249.624,325.867 248.798,325.219 248.247 C 324.571 247.696,324.254 247.517,324.515 247.849 M277.099 248.519 C 277.613 249.167,279.466 250.562,279.466 250.301 C 279.466 250.212,278.827 249.642,278.047 249.033 C 277.266 248.424,276.840 248.193,277.099 248.519 M228.090 249.457 C 230.059 251.290,232.057 252.817,231.876 252.352 C 231.784 252.114,231.153 251.544,230.473 251.085 C 229.793 250.626,228.706 249.818,228.057 249.290 L 226.878 248.329 228.090 249.457 M280.133 250.886 C 280.408 251.235,281.443 252.136,282.432 252.889 C 283.421 253.641,284.716 254.633,285.309 255.092 C 287.238 256.585,289.940 258.685,291.987 260.281 C 293.191 261.221,293.513 261.396,292.794 260.722 C 292.136 260.104,290.803 258.998,289.833 258.264 C 288.862 257.529,287.503 256.477,286.811 255.927 C 286.120 255.376,284.764 254.324,283.797 253.589 C 282.831 252.855,281.499 251.803,280.837 251.252 C 280.174 250.701,279.858 250.536,280.133 250.886 M329.304 251.627 C 329.416 251.808,330.456 252.681,331.615 253.569 C 332.774 254.456,333.272 254.748,332.721 254.219 C 331.514 253.058,329.019 251.165,329.304 251.627 M234.222 254.371 C 234.586 254.802,235.186 255.308,235.556 255.498 C 236.265 255.861,236.161 255.749,234.560 254.419 C 233.596 253.619,233.584 253.617,234.222 254.371 M237.576 256.928 C 239.357 258.632,240.735 259.719,240.735 259.419 C 240.735 259.262,240.171 258.720,239.482 258.216 C 238.794 257.712,237.848 256.991,237.380 256.613 C 236.913 256.236,237.001 256.377,237.576 256.928 M335.559 256.516 C 335.559 256.589,336.198 257.157,336.978 257.777 C 337.759 258.397,338.185 258.641,337.926 258.318 C 337.438 257.711,335.559 256.280,335.559 256.516 M240.675 275.626 C 240.558 284.257,240.384 292.070,240.289 292.988 L 240.116 294.658 240.461 292.988 C 240.801 291.342,241.201 268.781,240.994 262.938 C 240.935 261.285,240.792 266.995,240.675 275.626 M161.388 261.728 C 161.506 262.348,161.603 263.512,161.603 264.316 C 161.603 265.119,161.724 265.776,161.873 265.776 C 162.187 265.776,161.748 261.126,161.404 260.812 C 161.277 260.696,161.270 261.108,161.388 261.728 M341.873 261.528 C 342.489 262.322,349.583 267.846,349.580 267.528 C 349.579 267.391,349.082 266.941,348.475 266.528 C 347.868 266.115,347.081 265.514,346.724 265.192 C 346.368 264.871,345.475 264.165,344.741 263.624 C 344.007 263.082,343.331 262.557,343.239 262.455 C 342.639 261.792,341.455 260.987,341.873 261.528 M294.999 262.637 C 295.554 263.170,296.606 264.051,297.336 264.596 C 298.067 265.140,298.863 265.778,299.106 266.015 C 299.348 266.251,299.649 266.440,299.773 266.434 C 299.898 266.429,299.528 266.016,298.951 265.516 C 295.703 262.705,293.077 260.792,294.999 262.637 M303.171 269.199 C 306.338 271.594,306.744 271.731,304.013 269.483 C 303.098 268.730,302.211 268.114,302.043 268.114 C 301.874 268.114,302.382 268.602,303.171 269.199 M353.907 271.051 C 355.279 272.287,358.932 275.150,358.932 274.988 C 358.932 274.836,354.038 270.847,353.407 270.485 C 353.214 270.374,353.440 270.629,353.907 271.051 M164.510 270.937 C 164.986 272.336,167.993 275.254,172.037 278.241 C 174.392 279.981,173.293 278.857,170.527 276.697 C 167.857 274.612,166.068 272.849,164.865 271.116 C 164.452 270.521,164.351 270.470,164.510 270.937 M306.177 271.223 C 306.177 271.280,306.665 271.769,307.262 272.308 L 308.347 273.289 307.367 272.204 C 306.452 271.192,306.177 270.965,306.177 271.223 M309.665 274.242 C 310.389 274.911,311.054 275.459,311.142 275.459 C 311.448 275.459,309.678 273.726,309.015 273.376 C 308.648 273.183,308.940 273.572,309.665 274.242 M359.908 275.903 C 360.759 276.840,360.942 276.955,360.924 276.544 C 360.919 276.407,360.505 276.005,360.006 275.653 L 359.098 275.012 359.908 275.903 M312.670 276.579 C 313.394 277.248,314.059 277.796,314.147 277.796 C 314.453 277.796,312.683 276.063,312.020 275.713 C 311.653 275.520,311.945 275.909,312.670 276.579 M362.913 278.241 C 363.764 279.177,363.947 279.293,363.929 278.881 C 363.924 278.744,363.510 278.343,363.011 277.990 L 362.104 277.349 362.913 278.241 M173.623 279.219 C 173.623 279.313,175.980 281.172,178.862 283.351 C 185.209 288.150,185.309 288.223,185.309 288.035 C 185.309 287.953,182.867 286.044,179.883 283.793 C 176.899 281.543,174.270 279.555,174.040 279.376 C 173.811 279.197,173.623 279.126,173.623 279.219 M316.198 279.385 C 316.202 279.662,318.538 281.244,318.693 281.076 C 318.747 281.017,318.207 280.557,317.492 280.053 C 316.778 279.550,316.196 279.249,316.198 279.385 M320.149 282.472 C 320.911 283.024,321.873 283.766,322.286 284.120 C 323.635 285.277,328.284 288.970,329.009 289.461 C 330.266 290.312,327.149 287.656,323.212 284.521 C 321.103 282.843,319.240 281.469,319.071 281.469 C 318.903 281.469,319.388 281.921,320.149 282.472 M368.280 282.447 C 368.923 283.020,369.900 283.799,370.451 284.180 C 371.296 284.763,371.270 284.709,370.284 283.830 C 369.641 283.257,368.664 282.478,368.114 282.097 C 367.269 281.514,367.295 281.568,368.280 282.447 M371.924 285.254 C 372.412 285.862,374.290 287.293,374.290 287.057 C 374.290 286.983,373.652 286.416,372.871 285.795 C 372.091 285.175,371.664 284.932,371.924 285.254 M185.655 288.398 C 185.662 288.535,186.497 289.211,187.511 289.898 C 188.524 290.586,189.269 291.013,189.167 290.848 C 188.874 290.374,185.641 288.119,185.655 288.398 M376.628 288.957 C 376.628 289.031,377.229 289.568,377.963 290.150 C 378.698 290.732,379.293 291.083,379.286 290.930 C 379.274 290.656,376.628 288.692,376.628 288.957 M330.896 290.859 C 331.544 291.479,332.585 292.362,333.209 292.821 C 333.832 293.280,335.781 294.772,337.539 296.137 C 339.296 297.501,340.548 298.389,340.320 298.110 C 340.093 297.830,338.154 296.263,336.012 294.627 C 333.870 292.991,331.577 291.220,330.917 290.692 L 329.716 289.732 330.896 290.859 M190.651 292.147 C 190.651 292.334,190.767 292.487,190.908 292.487 C 191.049 292.487,191.913 293.082,192.827 293.809 C 196.073 296.388,196.439 296.664,196.964 296.937 C 197.674 297.306,196.631 296.427,193.360 293.900 C 191.870 292.748,190.651 291.959,190.651 292.147 M381.302 292.598 C 381.302 292.690,381.903 293.241,382.638 293.823 C 383.372 294.405,383.973 294.806,383.973 294.714 C 383.973 294.622,383.372 294.071,382.638 293.489 C 381.903 292.907,381.302 292.506,381.302 292.598 M385.977 296.271 C 385.977 296.363,386.578 296.914,387.312 297.496 C 388.047 298.078,388.648 298.478,388.648 298.387 C 388.648 298.295,388.047 297.744,387.312 297.162 C 386.578 296.580,385.977 296.179,385.977 296.271 M238.848 297.412 C 237.559 302.563,229.595 308.934,223.706 309.526 L 221.536 309.745 223.440 309.797 C 224.487 309.826,225.764 309.678,226.278 309.469 C 228.928 308.388,229.686 308.009,231.219 306.998 C 234.898 304.569,241.068 296.494,239.245 296.494 C 239.153 296.494,238.974 296.907,238.848 297.412 M197.663 297.257 C 197.663 297.367,200.029 299.219,202.922 301.374 C 205.814 303.529,208.443 305.514,208.765 305.786 C 209.086 306.058,209.349 306.185,209.349 306.068 C 209.349 305.952,206.982 304.100,204.090 301.953 C 201.198 299.807,198.568 297.827,198.247 297.554 C 197.926 297.282,197.663 297.148,197.663 297.257 M341.569 299.304 C 342.330 300.146,343.573 301.034,343.573 300.735 C 343.573 300.668,342.934 300.110,342.154 299.497 C 340.908 298.517,340.837 298.493,341.569 299.304 M344.936 301.886 C 345.594 302.501,346.926 303.606,347.897 304.341 C 349.762 305.753,351.609 307.202,353.673 308.873 C 354.361 309.431,354.920 309.766,354.914 309.618 C 354.908 309.470,353.613 308.372,352.035 307.179 C 350.457 305.985,348.546 304.517,347.788 303.917 C 347.031 303.316,345.810 302.362,345.075 301.796 L 343.740 300.767 344.936 301.886 M392.654 301.641 C 392.654 301.718,393.293 302.261,394.073 302.849 L 395.492 303.918 394.204 302.710 C 392.969 301.554,392.654 301.336,392.654 301.641 M396.209 305.175 C 396.786 305.818,397.718 307.245,398.280 308.347 C 398.841 309.449,399.307 310.215,399.316 310.050 C 399.358 309.274,397.506 306.163,396.397 305.144 L 395.159 304.007 396.209 305.175 M209.683 306.328 C 209.683 306.628,213.882 308.807,214.858 309.014 C 215.409 309.130,215.017 308.865,213.987 308.426 C 212.958 307.986,211.657 307.300,211.098 306.901 C 210.105 306.194,209.683 306.023,209.683 306.328 M216.441 309.573 C 216.672 309.719,217.838 309.824,219.032 309.806 C 221.525 309.767,221.140 309.610,218.111 309.430 C 216.961 309.362,216.210 309.426,216.441 309.573 M355.259 309.966 C 355.259 310.055,355.897 310.626,356.678 311.234 C 357.458 311.843,357.885 312.074,357.626 311.748 C 357.111 311.100,355.259 309.705,355.259 309.966 M359.163 313.100 C 359.749 313.659,360.725 314.463,361.333 314.887 C 361.940 315.310,363.189 316.277,364.107 317.037 C 365.955 318.565,368.847 320.638,367.758 319.654 C 367.379 319.312,366.489 318.581,365.781 318.030 C 365.072 317.479,364.030 316.648,363.465 316.183 C 360.476 313.723,357.826 311.824,359.163 313.100 M399.517 317.279 C 399.112 318.592,398.982 319.666,399.264 319.366 C 399.613 318.995,400.081 316.861,399.814 316.861 C 399.721 316.861,399.587 317.049,399.517 317.279 M368.633 320.420 C 368.652 320.701,371.953 323.341,371.953 323.075 C 371.953 322.997,371.202 322.305,370.284 321.536 C 369.366 320.767,368.623 320.265,368.633 320.420 M398.827 320.456 C 398.641 320.591,398.123 321.427,397.675 322.314 C 397.228 323.202,396.028 324.691,395.009 325.624 C 393.989 326.557,393.459 327.159,393.831 326.961 C 394.935 326.374,397.869 323.096,398.634 321.595 C 399.373 320.146,399.390 320.048,398.827 320.456 M373.456 324.348 C 375.077 325.826,377.297 327.322,377.526 327.092 C 377.619 327.000,377.106 326.625,376.387 326.258 C 375.669 325.891,374.879 325.348,374.632 325.051 C 374.385 324.753,373.719 324.199,373.152 323.820 C 372.347 323.283,372.414 323.399,373.456 324.348 M380.968 328.841 C 381.244 328.997,381.995 329.217,382.638 329.331 C 383.341 329.455,383.607 329.425,383.306 329.256 C 383.030 329.100,382.279 328.880,381.636 328.766 C 380.933 328.641,380.667 328.671,380.968 328.841 M387.646 329.231 C 387.280 329.478,387.415 329.509,388.147 329.345 C 389.375 329.071,389.641 328.880,388.787 328.887 C 388.435 328.889,387.922 329.044,387.646 329.231 " stroke="none" fill="#465976" fill-rule="evenodd"></path><path id="path3" d="M7.911 10.232 C 8.130 10.321,8.268 10.572,8.216 10.790 C 8.165 11.007,8.186 11.073,8.263 10.935 C 8.340 10.797,8.653 10.674,8.959 10.661 C 9.574 10.635,8.499 10.061,7.846 10.067 C 7.663 10.068,7.692 10.142,7.911 10.232 M2.806 14.075 C 2.659 14.314,2.715 14.370,2.953 14.222 C 3.182 14.081,3.339 14.196,3.339 14.505 C 3.339 14.791,3.189 15.025,3.005 15.025 C 2.821 15.025,2.672 15.288,2.673 15.609 C 2.675 16.031,2.856 15.920,3.322 15.213 C 3.946 14.266,3.953 13.689,3.339 13.689 C 3.177 13.689,2.937 13.863,2.806 14.075 M310.784 29.297 C 312.308 29.359,314.712 29.359,316.126 29.296 C 317.541 29.234,316.294 29.183,313.356 29.184 C 310.417 29.184,309.260 29.235,310.784 29.297 M163.181 29.623 C 163.774 29.697,164.826 29.698,165.518 29.626 C 166.211 29.554,165.726 29.493,164.441 29.492 C 163.155 29.490,162.588 29.550,163.181 29.623 M177.379 29.632 C 180.455 29.687,185.488 29.687,188.564 29.632 C 191.640 29.577,189.124 29.532,182.972 29.532 C 176.820 29.532,174.303 29.577,177.379 29.632 M225.316 29.966 C 231.252 30.018,240.868 30.018,246.685 29.966 C 252.503 29.915,247.646 29.873,235.893 29.873 C 224.140 29.874,219.381 29.915,225.316 29.966 M360.011 54.424 C 360.011 55.067,360.079 55.330,360.163 55.008 C 360.247 54.687,360.247 54.161,360.163 53.840 C 360.079 53.518,360.011 53.781,360.011 54.424 M161.095 229.048 C 161.095 246.402,161.136 253.502,161.185 244.825 C 161.235 236.148,161.235 221.949,161.185 213.272 C 161.136 204.595,161.095 211.694,161.095 229.048 M383.639 294.249 C 383.639 294.313,384.128 294.723,384.725 295.160 C 385.396 295.651,385.629 295.732,385.336 295.371 C 384.892 294.824,383.639 293.996,383.639 294.249 M399.018 321.011 C 398.793 321.282,398.679 321.774,398.765 322.104 C 398.892 322.592,398.928 322.569,398.960 321.981 C 398.981 321.583,399.186 321.191,399.416 321.109 C 399.645 321.027,399.742 320.860,399.630 320.739 C 399.519 320.617,399.243 320.740,399.018 321.011 M384.558 329.791 C 385.154 329.865,386.131 329.865,386.728 329.791 C 387.325 329.717,386.836 329.656,385.643 329.656 C 384.449 329.656,383.961 329.717,384.558 329.791 " stroke="none" fill="#546c84" fill-rule="evenodd"></path><path id="path4" d="M321.134 29.297 C 322.658 29.359,325.062 29.359,326.477 29.296 C 327.891 29.234,326.644 29.183,323.706 29.184 C 320.768 29.184,319.611 29.235,321.134 29.297 M153.688 29.631 C 155.120 29.694,157.373 29.693,158.696 29.630 C 160.019 29.567,158.848 29.515,156.093 29.516 C 153.339 29.516,152.256 29.568,153.688 29.631 M167.696 29.626 C 168.385 29.698,169.512 29.698,170.200 29.626 C 170.889 29.553,170.326 29.495,168.948 29.495 C 167.571 29.495,167.008 29.553,167.696 29.626 M206.594 29.965 C 208.109 30.026,210.588 30.026,212.104 29.965 C 213.619 29.903,212.379 29.852,209.349 29.852 C 206.319 29.852,205.079 29.903,206.594 29.965 M331.970 30.293 C 332.659 30.365,333.785 30.365,334.474 30.293 C 335.163 30.221,334.599 30.162,333.222 30.162 C 331.845 30.162,331.281 30.221,331.970 30.293 " stroke="none" fill="#546484" fill-rule="evenodd"></path></g></svg>